<?xml version="1.0" encoding="utf-8"?>
<!-- Generator: Adobe Illustrator 15.0.0, SVG Export Plug-In  -->
<!DOCTYPE svg PUBLIC "-//W3C//DTD SVG 1.0//EN" "http://www.w3.org/TR/2001/REC-SVG-20010904/DTD/svg10.dtd" [
	<!ENTITY ns_flows "http://ns.adobe.com/Flows/1.0/">
]>
<svg version="1.0"
	 xmlns="http://www.w3.org/2000/svg" xmlns:xlink="http://www.w3.org/1999/xlink" xmlns:a="http://ns.adobe.com/AdobeSVGViewerExtensions/3.0/"
	 x="0px" y="0px" width="1000px" height="125px" viewBox="-9.664 -13.981 705 88" enable-background="new -9.664 -13.981 705 88"
	 xml:space="preserve">
<defs>
</defs>
<rect fill="#E77806" width="684.521" height="61.602"/>
<path fill="#FFFFFF" d="M84.789,13.684h3.51c0.6,0,1.149,0.054,1.647,0.162s0.924,0.276,1.278,0.504
	c0.354,0.228,0.63,0.525,0.828,0.891c0.198,0.366,0.297,0.807,0.297,1.323c0,0.588-0.147,1.119-0.441,1.593
	s-0.723,0.801-1.287,0.981v0.072c0.72,0.132,1.302,0.432,1.746,0.9c0.443,0.468,0.666,1.11,0.666,1.926
	c0,0.576-0.108,1.08-0.324,1.512c-0.216,0.432-0.522,0.792-0.918,1.08c-0.396,0.288-0.87,0.504-1.422,0.648
	c-0.552,0.144-1.158,0.216-1.818,0.216h-3.762V13.684z M88.028,18.706c1.008,0,1.734-0.174,2.178-0.522
	c0.444-0.348,0.666-0.822,0.666-1.422c0-0.684-0.231-1.17-0.693-1.458c-0.462-0.288-1.155-0.432-2.079-0.432h-1.818v3.834H88.028z
	 M88.334,24.304c1.02,0,1.812-0.189,2.376-0.567s0.846-0.963,0.846-1.755c0-0.732-0.276-1.269-0.828-1.611
	c-0.552-0.342-1.35-0.513-2.394-0.513h-2.052v4.446H88.334z"/>
<path fill="#FFFFFF" d="M98.774,25.708c-0.588,0-1.137-0.105-1.647-0.315c-0.51-0.209-0.954-0.51-1.332-0.9
	c-0.378-0.39-0.675-0.867-0.891-1.431c-0.216-0.564-0.324-1.206-0.324-1.926c0-0.72,0.111-1.365,0.333-1.935
	c0.222-0.57,0.516-1.053,0.882-1.449c0.366-0.396,0.783-0.699,1.251-0.909c0.468-0.21,0.954-0.315,1.458-0.315
	c0.552,0,1.047,0.096,1.485,0.288s0.804,0.468,1.098,0.828c0.294,0.36,0.519,0.792,0.675,1.296c0.156,0.504,0.234,1.068,0.234,1.692
	c0,0.156-0.003,0.309-0.009,0.459s-0.021,0.279-0.045,0.387h-5.904c0.06,0.936,0.351,1.677,0.873,2.223
	c0.522,0.546,1.203,0.819,2.043,0.819c0.42,0,0.807-0.063,1.161-0.189s0.693-0.291,1.017-0.495l0.522,0.972
	c-0.384,0.24-0.81,0.45-1.278,0.63C99.908,25.618,99.375,25.708,98.774,25.708z M100.701,20.416c0-0.888-0.189-1.563-0.567-2.025
	c-0.378-0.462-0.909-0.693-1.593-0.693c-0.313,0-0.609,0.06-0.891,0.18c-0.282,0.12-0.537,0.297-0.765,0.531
	s-0.417,0.519-0.567,0.855s-0.249,0.72-0.297,1.152H100.701z"/>
<path fill="#FFFFFF" d="M106.73,25.708c-0.468,0-0.861-0.072-1.179-0.216s-0.576-0.342-0.774-0.594
	c-0.198-0.252-0.339-0.558-0.423-0.918c-0.084-0.36-0.126-0.756-0.126-1.188V17.95h-1.296v-1.116l1.368-0.09l0.18-2.448h1.242v2.448
	h2.358v1.206h-2.358v4.86c0,0.54,0.099,0.957,0.297,1.251c0.198,0.294,0.549,0.441,1.053,0.441c0.156,0,0.324-0.023,0.504-0.072
	c0.18-0.048,0.342-0.102,0.486-0.162l0.288,1.116c-0.24,0.084-0.501,0.159-0.783,0.225C107.285,25.675,107.006,25.708,106.73,25.708
	z"/>
<path fill="#FFFFFF" d="M111.699,25.708c-0.732,0-1.341-0.216-1.827-0.648c-0.486-0.432-0.729-1.044-0.729-1.836
	c0-0.96,0.426-1.695,1.278-2.205c0.852-0.51,2.214-0.867,4.086-1.071c0-0.276-0.027-0.546-0.081-0.81
	c-0.054-0.264-0.147-0.498-0.279-0.702c-0.132-0.204-0.315-0.369-0.549-0.495s-0.531-0.189-0.891-0.189
	c-0.504,0-0.978,0.096-1.422,0.288c-0.444,0.192-0.84,0.408-1.188,0.648l-0.576-1.026c0.408-0.264,0.906-0.519,1.494-0.765
	c0.588-0.246,1.236-0.369,1.944-0.369c1.068,0,1.842,0.327,2.322,0.981c0.479,0.654,0.72,1.527,0.72,2.619v5.364h-1.224
	l-0.126-1.044h-0.054c-0.42,0.348-0.87,0.645-1.35,0.891C112.767,25.585,112.25,25.708,111.699,25.708z M112.13,24.52
	c0.42,0,0.816-0.099,1.188-0.297c0.372-0.198,0.768-0.489,1.188-0.873v-2.43c-0.732,0.096-1.347,0.21-1.845,0.342
	c-0.498,0.132-0.9,0.288-1.206,0.468c-0.306,0.18-0.528,0.387-0.666,0.621c-0.138,0.234-0.207,0.489-0.207,0.765
	c0,0.504,0.15,0.864,0.45,1.08C111.333,24.412,111.699,24.52,112.13,24.52z"/>
<path fill="#FFFFFF" d="M122.499,13.684h1.548l4.266,7.416l1.278,2.448h0.072c-0.036-0.6-0.075-1.221-0.117-1.863
	c-0.042-0.642-0.063-1.275-0.063-1.899v-6.102h1.422v11.808h-1.548l-4.284-7.434l-1.278-2.43h-0.072
	c0.047,0.6,0.093,1.209,0.135,1.827c0.042,0.618,0.063,1.239,0.063,1.863v6.174h-1.422V13.684z"/>
<path fill="#FFFFFF" d="M137.402,25.708c-0.54,0-1.053-0.102-1.539-0.306c-0.486-0.204-0.915-0.501-1.287-0.891
	c-0.372-0.39-0.669-0.87-0.891-1.44c-0.222-0.57-0.333-1.215-0.333-1.935c0-0.732,0.111-1.383,0.333-1.953
	c0.222-0.57,0.519-1.053,0.891-1.449s0.801-0.696,1.287-0.9c0.486-0.204,0.999-0.306,1.539-0.306s1.053,0.102,1.539,0.306
	c0.486,0.205,0.915,0.504,1.287,0.9c0.372,0.396,0.669,0.879,0.891,1.449c0.222,0.57,0.333,1.221,0.333,1.953
	c0,0.72-0.111,1.365-0.333,1.935c-0.222,0.57-0.52,1.05-0.891,1.44c-0.372,0.39-0.801,0.687-1.287,0.891
	C138.456,25.606,137.942,25.708,137.402,25.708z M137.402,24.484c0.372,0,0.714-0.081,1.026-0.243s0.579-0.39,0.801-0.684
	c0.222-0.294,0.393-0.645,0.513-1.053c0.12-0.408,0.18-0.864,0.18-1.368s-0.06-0.963-0.18-1.377
	c-0.12-0.414-0.291-0.771-0.513-1.071c-0.222-0.3-0.489-0.531-0.801-0.693s-0.654-0.243-1.026-0.243s-0.714,0.081-1.026,0.243
	s-0.579,0.393-0.801,0.693c-0.222,0.3-0.393,0.657-0.513,1.071c-0.12,0.414-0.18,0.873-0.18,1.377s0.06,0.96,0.18,1.368
	c0.12,0.408,0.291,0.759,0.513,1.053c0.222,0.294,0.489,0.522,0.801,0.684S137.03,24.484,137.402,24.484z"/>
<path fill="#FFFFFF" d="M146.204,25.708c-0.468,0-0.861-0.072-1.179-0.216s-0.576-0.342-0.774-0.594
	c-0.198-0.252-0.339-0.558-0.423-0.918c-0.084-0.36-0.126-0.756-0.126-1.188V17.95h-1.296v-1.116l1.368-0.09l0.18-2.448h1.242v2.448
	h2.358v1.206h-2.358v4.86c0,0.54,0.099,0.957,0.297,1.251c0.198,0.294,0.549,0.441,1.053,0.441c0.156,0,0.324-0.023,0.504-0.072
	c0.18-0.048,0.342-0.102,0.486-0.162l0.288,1.116c-0.24,0.084-0.501,0.159-0.783,0.225C146.759,25.675,146.48,25.708,146.204,25.708
	z"/>
<path fill="#FFFFFF" d="M150.29,14.944c-0.288,0-0.531-0.09-0.729-0.27c-0.198-0.18-0.297-0.408-0.297-0.684
	c0-0.288,0.099-0.519,0.297-0.693c0.198-0.174,0.441-0.261,0.729-0.261s0.531,0.087,0.729,0.261
	c0.198,0.174,0.297,0.405,0.297,0.693c0,0.276-0.099,0.504-0.297,0.684C150.821,14.854,150.578,14.944,150.29,14.944z
	 M149.534,16.744h1.476v8.748h-1.476V16.744z"/>
<path fill="#FFFFFF" d="M157.418,25.708c-0.576,0-1.116-0.102-1.62-0.306c-0.504-0.204-0.939-0.501-1.305-0.891
	c-0.366-0.39-0.654-0.87-0.864-1.44s-0.315-1.215-0.315-1.935c0-0.732,0.114-1.383,0.342-1.953c0.228-0.57,0.534-1.053,0.918-1.449
	c0.384-0.396,0.831-0.696,1.341-0.9c0.51-0.204,1.046-0.306,1.611-0.306c0.576,0,1.068,0.102,1.476,0.306
	c0.408,0.205,0.768,0.444,1.08,0.72l-0.756,0.972c-0.252-0.228-0.519-0.414-0.801-0.558c-0.282-0.144-0.597-0.216-0.945-0.216
	c-0.396,0-0.762,0.081-1.098,0.243c-0.336,0.162-0.624,0.393-0.864,0.693c-0.24,0.3-0.429,0.657-0.567,1.071
	c-0.138,0.414-0.207,0.873-0.207,1.377s0.066,0.96,0.198,1.368c0.132,0.408,0.315,0.759,0.549,1.053
	c0.234,0.294,0.519,0.522,0.855,0.684s0.702,0.243,1.098,0.243c0.408,0,0.783-0.087,1.125-0.261
	c0.342-0.174,0.651-0.381,0.927-0.621l0.648,0.99c-0.396,0.348-0.834,0.621-1.314,0.819
	C158.45,25.609,157.946,25.708,157.418,25.708z"/>
<path fill="#FFFFFF" d="M165.338,25.708c-0.588,0-1.137-0.105-1.647-0.315c-0.51-0.209-0.954-0.51-1.332-0.9
	c-0.378-0.39-0.675-0.867-0.891-1.431c-0.216-0.564-0.324-1.206-0.324-1.926c0-0.72,0.111-1.365,0.333-1.935
	c0.222-0.57,0.516-1.053,0.882-1.449c0.366-0.396,0.783-0.699,1.251-0.909c0.468-0.21,0.954-0.315,1.458-0.315
	c0.552,0,1.047,0.096,1.485,0.288s0.804,0.468,1.098,0.828c0.294,0.36,0.519,0.792,0.675,1.296c0.156,0.504,0.234,1.068,0.234,1.692
	c0,0.156-0.003,0.309-0.009,0.459s-0.021,0.279-0.045,0.387h-5.904c0.06,0.936,0.351,1.677,0.873,2.223
	c0.522,0.546,1.203,0.819,2.043,0.819c0.42,0,0.807-0.063,1.161-0.189s0.693-0.291,1.017-0.495l0.522,0.972
	c-0.384,0.24-0.81,0.45-1.278,0.63C166.472,25.618,165.938,25.708,165.338,25.708z M167.264,20.416c0-0.888-0.189-1.563-0.567-2.025
	c-0.378-0.462-0.909-0.693-1.593-0.693c-0.313,0-0.609,0.06-0.891,0.18c-0.282,0.12-0.537,0.297-0.765,0.531
	s-0.417,0.519-0.567,0.855s-0.249,0.72-0.297,1.152H167.264z"/>
<path fill="#FFFFFF" d="M87.47,35.95h-3.78v-0.72h8.388v0.72h-3.78v11.142H87.47V35.95z"/>
<path fill="#FFFFFF" d="M94.256,34.15h0.792v5.652c0.456-0.456,0.918-0.831,1.386-1.125c0.468-0.294,1.002-0.441,1.602-0.441
	c0.9,0,1.56,0.27,1.98,0.81c0.42,0.54,0.63,1.374,0.63,2.502v5.544h-0.792v-5.436c0-0.924-0.153-1.605-0.459-2.043
	s-0.813-0.657-1.521-0.657c-0.516,0-0.984,0.135-1.404,0.405c-0.42,0.27-0.894,0.675-1.422,1.215v6.516h-0.792V34.15z"/>
<path fill="#FFFFFF" d="M104.174,36.364c-0.204,0-0.375-0.066-0.513-0.198c-0.138-0.132-0.207-0.3-0.207-0.504
	c0-0.228,0.069-0.405,0.207-0.531c0.138-0.126,0.309-0.189,0.513-0.189s0.375,0.063,0.513,0.189
	c0.138,0.126,0.207,0.303,0.207,0.531c0,0.205-0.069,0.372-0.207,0.504C104.549,36.298,104.378,36.364,104.174,36.364z
	 M103.76,38.452h0.792v8.64h-0.792V38.452z"/>
<path fill="#FFFFFF" d="M109.97,47.308c-0.648,0-1.242-0.117-1.782-0.351c-0.54-0.234-1.002-0.513-1.386-0.837l0.468-0.594
	c0.372,0.312,0.768,0.573,1.188,0.783c0.42,0.21,0.942,0.315,1.566,0.315c0.684,0,1.197-0.171,1.539-0.513
	c0.342-0.342,0.513-0.741,0.513-1.197c0-0.264-0.063-0.498-0.189-0.702s-0.291-0.378-0.495-0.522s-0.429-0.27-0.675-0.378
	c-0.246-0.108-0.495-0.21-0.747-0.306c-0.324-0.12-0.651-0.246-0.981-0.378c-0.331-0.132-0.627-0.291-0.891-0.477
	c-0.264-0.186-0.477-0.408-0.639-0.666c-0.162-0.258-0.243-0.573-0.243-0.945c0-0.312,0.06-0.609,0.18-0.891s0.3-0.528,0.54-0.738
	c0.24-0.209,0.531-0.375,0.873-0.495s0.741-0.18,1.197-0.18s0.903,0.084,1.341,0.252c0.438,0.168,0.813,0.384,1.125,0.648
	l-0.432,0.558c-0.288-0.216-0.594-0.399-0.918-0.549s-0.708-0.225-1.152-0.225c-0.336,0-0.624,0.045-0.864,0.135
	c-0.24,0.09-0.441,0.207-0.603,0.351c-0.162,0.144-0.282,0.312-0.36,0.504c-0.078,0.192-0.117,0.384-0.117,0.576
	c0,0.252,0.057,0.465,0.171,0.639c0.114,0.174,0.267,0.327,0.459,0.459c0.191,0.132,0.411,0.249,0.657,0.351
	c0.246,0.103,0.495,0.201,0.747,0.297c0.336,0.132,0.672,0.264,1.008,0.396s0.639,0.294,0.909,0.486s0.489,0.429,0.657,0.711
	c0.167,0.282,0.252,0.633,0.252,1.053c0,0.324-0.063,0.633-0.189,0.927c-0.126,0.294-0.315,0.552-0.567,0.774
	c-0.252,0.222-0.558,0.399-0.918,0.531C110.852,47.242,110.438,47.308,109.97,47.308z"/>
<path fill="#FFFFFF" d="M120.86,47.308c-0.648,0-1.242-0.117-1.782-0.351c-0.54-0.234-1.002-0.513-1.386-0.837l0.468-0.594
	c0.372,0.312,0.768,0.573,1.188,0.783c0.42,0.21,0.942,0.315,1.566,0.315c0.684,0,1.197-0.171,1.539-0.513
	c0.342-0.342,0.513-0.741,0.513-1.197c0-0.264-0.063-0.498-0.189-0.702s-0.291-0.378-0.495-0.522s-0.429-0.27-0.675-0.378
	c-0.246-0.108-0.495-0.21-0.747-0.306c-0.324-0.12-0.651-0.246-0.981-0.378c-0.331-0.132-0.627-0.291-0.891-0.477
	c-0.264-0.186-0.477-0.408-0.639-0.666c-0.162-0.258-0.243-0.573-0.243-0.945c0-0.312,0.06-0.609,0.18-0.891s0.3-0.528,0.54-0.738
	c0.24-0.209,0.531-0.375,0.873-0.495s0.741-0.18,1.197-0.18s0.903,0.084,1.341,0.252c0.438,0.168,0.813,0.384,1.125,0.648
	l-0.432,0.558c-0.288-0.216-0.594-0.399-0.918-0.549s-0.708-0.225-1.152-0.225c-0.336,0-0.624,0.045-0.864,0.135
	c-0.24,0.09-0.441,0.207-0.603,0.351c-0.162,0.144-0.282,0.312-0.36,0.504c-0.078,0.192-0.117,0.384-0.117,0.576
	c0,0.252,0.057,0.465,0.171,0.639c0.114,0.174,0.267,0.327,0.459,0.459c0.191,0.132,0.411,0.249,0.657,0.351
	c0.246,0.103,0.495,0.201,0.747,0.297c0.336,0.132,0.672,0.264,1.008,0.396s0.639,0.294,0.909,0.486s0.489,0.429,0.657,0.711
	c0.167,0.282,0.252,0.633,0.252,1.053c0,0.324-0.063,0.633-0.189,0.927c-0.126,0.294-0.315,0.552-0.567,0.774
	c-0.252,0.222-0.558,0.399-0.918,0.531C121.742,47.242,121.328,47.308,120.86,47.308z"/>
<path fill="#FFFFFF" d="M129.212,47.308c-0.516,0-1.008-0.102-1.476-0.306c-0.468-0.204-0.879-0.498-1.233-0.882
	c-0.354-0.384-0.636-0.855-0.846-1.413c-0.21-0.558-0.315-1.197-0.315-1.917c0-0.72,0.105-1.365,0.315-1.935
	s0.492-1.047,0.846-1.431c0.354-0.384,0.765-0.678,1.233-0.882c0.468-0.204,0.96-0.306,1.476-0.306c0.516,0,1.011,0.102,1.485,0.306
	s0.888,0.498,1.242,0.882c0.354,0.384,0.636,0.861,0.846,1.431s0.315,1.215,0.315,1.935c0,0.72-0.105,1.359-0.315,1.917
	c-0.21,0.558-0.492,1.029-0.846,1.413c-0.354,0.384-0.768,0.678-1.242,0.882C130.223,47.206,129.728,47.308,129.212,47.308z
	 M129.212,46.606c0.432,0,0.837-0.093,1.215-0.279c0.378-0.186,0.702-0.447,0.972-0.783s0.483-0.738,0.639-1.206
	c0.156-0.468,0.234-0.984,0.234-1.548c0-0.576-0.079-1.098-0.234-1.566c-0.156-0.468-0.369-0.873-0.639-1.215
	s-0.594-0.606-0.972-0.792s-0.783-0.279-1.215-0.279c-0.432,0-0.834,0.093-1.206,0.279c-0.372,0.186-0.693,0.45-0.963,0.792
	s-0.483,0.747-0.639,1.215c-0.156,0.468-0.234,0.99-0.234,1.566c0,0.564,0.078,1.08,0.234,1.548c0.156,0.468,0.369,0.87,0.639,1.206
	s0.591,0.597,0.963,0.783C128.377,46.514,128.78,46.606,129.212,46.606z"/>
<path fill="#FFFFFF" d="M143.54,46.984c-0.252,0.096-0.507,0.174-0.765,0.234c-0.258,0.06-0.477,0.09-0.657,0.09
	c-0.42,0-0.765-0.063-1.035-0.189s-0.489-0.303-0.657-0.531c-0.168-0.228-0.285-0.504-0.351-0.828
	c-0.066-0.324-0.099-0.678-0.099-1.062v-5.562h-3.366v7.956h-0.792v-7.956h-1.188v-0.612l1.188-0.072v-1.926
	c0-0.864,0.186-1.512,0.558-1.944c0.372-0.432,0.9-0.648,1.584-0.648c0.42,0,0.84,0.096,1.26,0.288l-0.216,0.648
	c-0.18-0.096-0.357-0.162-0.531-0.198c-0.174-0.036-0.345-0.054-0.513-0.054c-0.456,0-0.795,0.168-1.017,0.504
	c-0.223,0.336-0.333,0.822-0.333,1.458v1.872h3.384l0.108-2.502h0.666v2.502h2.52v0.684h-2.52v5.634
	c0,0.276,0.021,0.525,0.063,0.747c0.042,0.222,0.117,0.414,0.225,0.576s0.258,0.288,0.45,0.378c0.191,0.09,0.438,0.135,0.738,0.135
	c0.168,0,0.351-0.027,0.549-0.081c0.198-0.054,0.375-0.117,0.531-0.189L143.54,46.984z"/>
<path fill="#FFFFFF" d="M144.169,38.452h0.864l1.548,5.598c0.108,0.396,0.209,0.783,0.306,1.161s0.192,0.759,0.288,1.143h0.072
	c0.096-0.384,0.198-0.765,0.306-1.143s0.216-0.765,0.324-1.161l1.566-5.598h0.954l1.566,5.598c0.108,0.396,0.216,0.783,0.324,1.161
	c0.108,0.378,0.216,0.759,0.324,1.143h0.072c0.096-0.384,0.198-0.765,0.306-1.143s0.21-0.765,0.306-1.161l1.53-5.598h0.81
	l-2.484,8.64h-1.044l-1.512-5.364c-0.132-0.42-0.243-0.831-0.333-1.233c-0.09-0.402-0.201-0.813-0.333-1.233h-0.072
	c-0.096,0.42-0.201,0.837-0.315,1.251c-0.114,0.414-0.237,0.831-0.369,1.251l-1.494,5.328h-0.954L144.169,38.452z"/>
<path fill="#FFFFFF" d="M159.434,47.308c-0.348,0-0.672-0.048-0.972-0.144c-0.3-0.096-0.564-0.24-0.792-0.432
	c-0.229-0.192-0.408-0.438-0.54-0.738c-0.132-0.3-0.198-0.654-0.198-1.062c0-0.96,0.447-1.689,1.341-2.187
	c0.894-0.498,2.307-0.855,4.239-1.071c0-0.324-0.024-0.651-0.072-0.981s-0.15-0.624-0.306-0.882c-0.156-0.258-0.366-0.468-0.63-0.63
	c-0.264-0.162-0.612-0.243-1.044-0.243c-0.576,0-1.104,0.114-1.584,0.342s-0.87,0.45-1.17,0.666l-0.36-0.594
	c0.156-0.108,0.345-0.228,0.567-0.36c0.222-0.132,0.471-0.252,0.747-0.36c0.276-0.108,0.576-0.201,0.9-0.279
	c0.324-0.078,0.66-0.117,1.008-0.117c0.504,0,0.93,0.087,1.278,0.261c0.348,0.174,0.63,0.412,0.846,0.711
	c0.216,0.3,0.372,0.651,0.468,1.053c0.096,0.402,0.144,0.837,0.144,1.305v5.526h-0.684l-0.072-1.116h-0.054
	c-0.444,0.349-0.921,0.657-1.431,0.927C160.553,47.173,160.01,47.308,159.434,47.308z M159.578,46.625c0.504,0,0.984-0.12,1.44-0.36
	c0.456-0.24,0.954-0.588,1.494-1.044v-2.934c-0.888,0.108-1.638,0.24-2.25,0.396c-0.612,0.156-1.104,0.342-1.476,0.558
	s-0.639,0.462-0.801,0.738c-0.162,0.276-0.243,0.582-0.243,0.918c0,0.312,0.048,0.576,0.144,0.792
	c0.096,0.216,0.228,0.393,0.396,0.531c0.168,0.138,0.363,0.24,0.585,0.306C159.088,46.591,159.326,46.625,159.578,46.625z"/>
<path fill="#FFFFFF" d="M166.381,38.452h0.684l0.072,1.602h0.054c0.288-0.54,0.639-0.978,1.053-1.314s0.879-0.504,1.395-0.504
	c0.168,0,0.318,0.012,0.45,0.036c0.132,0.024,0.27,0.072,0.414,0.144l-0.18,0.72c-0.144-0.06-0.27-0.099-0.378-0.117
	c-0.108-0.018-0.246-0.027-0.414-0.027c-0.384,0-0.79,0.165-1.215,0.495s-0.807,0.903-1.143,1.719v5.886h-0.792V38.452z"/>
<path fill="#FFFFFF" d="M175.183,47.308c-0.552,0-1.071-0.102-1.557-0.306c-0.486-0.204-0.909-0.501-1.269-0.891
	c-0.36-0.39-0.645-0.864-0.855-1.422c-0.21-0.558-0.315-1.191-0.315-1.899s0.105-1.344,0.315-1.908s0.492-1.041,0.846-1.431
	c0.354-0.39,0.756-0.69,1.206-0.9c0.45-0.21,0.915-0.315,1.395-0.315c1.032,0,1.842,0.348,2.43,1.044
	c0.588,0.696,0.882,1.68,0.882,2.952c0,0.108,0,0.216,0,0.324s-0.012,0.216-0.036,0.324h-6.228c0.012,0.54,0.096,1.041,0.252,1.503
	c0.156,0.462,0.375,0.858,0.657,1.188c0.282,0.33,0.621,0.588,1.017,0.774s0.84,0.279,1.332,0.279c0.468,0,0.891-0.069,1.269-0.207
	c0.378-0.138,0.729-0.327,1.053-0.567l0.324,0.612c-0.348,0.204-0.729,0.396-1.143,0.576
	C176.344,47.218,175.819,47.308,175.183,47.308z M177.505,42.232c0-1.116-0.228-1.947-0.684-2.493
	c-0.456-0.546-1.074-0.819-1.854-0.819c-0.372,0-0.726,0.075-1.062,0.225s-0.639,0.369-0.909,0.657s-0.492,0.636-0.666,1.044
	c-0.174,0.408-0.285,0.87-0.333,1.386H177.505z"/>
<path fill="#FFFFFF" d="M184.615,36.364c-0.204,0-0.375-0.066-0.513-0.198c-0.138-0.132-0.207-0.3-0.207-0.504
	c0-0.228,0.069-0.405,0.207-0.531c0.138-0.126,0.309-0.189,0.513-0.189s0.375,0.063,0.513,0.189
	c0.138,0.126,0.207,0.303,0.207,0.531c0,0.205-0.069,0.372-0.207,0.504C184.99,36.298,184.819,36.364,184.615,36.364z
	 M184.201,38.452h0.792v8.64h-0.792V38.452z"/>
<path fill="#FFFFFF" d="M190.411,47.308c-0.648,0-1.242-0.117-1.782-0.351c-0.54-0.234-1.002-0.513-1.386-0.837l0.468-0.594
	c0.372,0.312,0.768,0.573,1.188,0.783c0.42,0.21,0.942,0.315,1.566,0.315c0.684,0,1.197-0.171,1.539-0.513
	c0.342-0.342,0.513-0.741,0.513-1.197c0-0.264-0.063-0.498-0.189-0.702s-0.291-0.378-0.495-0.522s-0.429-0.27-0.675-0.378
	c-0.246-0.108-0.495-0.21-0.747-0.306c-0.324-0.12-0.651-0.246-0.981-0.378c-0.331-0.132-0.627-0.291-0.891-0.477
	c-0.264-0.186-0.477-0.408-0.639-0.666c-0.162-0.258-0.243-0.573-0.243-0.945c0-0.312,0.06-0.609,0.18-0.891s0.3-0.528,0.54-0.738
	c0.24-0.209,0.531-0.375,0.873-0.495s0.741-0.18,1.197-0.18s0.903,0.084,1.341,0.252c0.438,0.168,0.813,0.384,1.125,0.648
	l-0.432,0.558c-0.288-0.216-0.594-0.399-0.918-0.549s-0.708-0.225-1.152-0.225c-0.336,0-0.624,0.045-0.864,0.135
	c-0.24,0.09-0.441,0.207-0.603,0.351c-0.162,0.144-0.282,0.312-0.36,0.504c-0.078,0.192-0.117,0.384-0.117,0.576
	c0,0.252,0.057,0.465,0.171,0.639c0.114,0.174,0.267,0.327,0.459,0.459c0.191,0.132,0.411,0.249,0.657,0.351
	c0.246,0.103,0.495,0.201,0.747,0.297c0.336,0.132,0.672,0.264,1.008,0.396s0.639,0.294,0.909,0.486s0.489,0.429,0.657,0.711
	c0.167,0.282,0.252,0.633,0.252,1.053c0,0.324-0.063,0.633-0.189,0.927c-0.126,0.294-0.315,0.552-0.567,0.774
	c-0.252,0.222-0.558,0.399-0.918,0.531C191.292,47.242,190.878,47.308,190.411,47.308z"/>
<path fill="#FFFFFF" d="M197.989,38.452h0.864l1.548,5.598c0.108,0.396,0.209,0.783,0.306,1.161s0.192,0.759,0.288,1.143h0.072
	c0.096-0.384,0.198-0.765,0.306-1.143s0.216-0.765,0.324-1.161l1.566-5.598h0.954l1.566,5.598c0.108,0.396,0.216,0.783,0.324,1.161
	c0.108,0.378,0.216,0.759,0.324,1.143h0.072c0.096-0.384,0.198-0.765,0.306-1.143s0.21-0.765,0.306-1.161l1.53-5.598h0.81
	l-2.484,8.64h-1.044l-1.512-5.364c-0.132-0.42-0.243-0.831-0.333-1.233c-0.09-0.402-0.201-0.813-0.333-1.233h-0.072
	c-0.096,0.42-0.201,0.837-0.315,1.251c-0.114,0.414-0.237,0.831-0.369,1.251l-1.494,5.328h-0.954L197.989,38.452z"/>
<path fill="#FFFFFF" d="M214.693,47.308c-0.516,0-1.008-0.102-1.476-0.306c-0.468-0.204-0.879-0.498-1.233-0.882
	c-0.354-0.384-0.636-0.855-0.846-1.413c-0.21-0.558-0.315-1.197-0.315-1.917c0-0.72,0.105-1.365,0.315-1.935
	s0.492-1.047,0.846-1.431c0.354-0.384,0.765-0.678,1.233-0.882c0.468-0.204,0.96-0.306,1.476-0.306c0.516,0,1.011,0.102,1.485,0.306
	s0.888,0.498,1.242,0.882c0.354,0.384,0.636,0.861,0.846,1.431s0.315,1.215,0.315,1.935c0,0.72-0.105,1.359-0.315,1.917
	c-0.21,0.558-0.492,1.029-0.846,1.413c-0.354,0.384-0.768,0.678-1.242,0.882C215.704,47.206,215.208,47.308,214.693,47.308z
	 M214.693,46.606c0.432,0,0.837-0.093,1.215-0.279c0.378-0.186,0.702-0.447,0.972-0.783s0.483-0.738,0.639-1.206
	c0.156-0.468,0.234-0.984,0.234-1.548c0-0.576-0.079-1.098-0.234-1.566c-0.156-0.468-0.369-0.873-0.639-1.215
	s-0.594-0.606-0.972-0.792s-0.783-0.279-1.215-0.279c-0.432,0-0.834,0.093-1.206,0.279c-0.372,0.186-0.693,0.45-0.963,0.792
	s-0.483,0.747-0.639,1.215c-0.156,0.468-0.234,0.99-0.234,1.566c0,0.564,0.078,1.08,0.234,1.548c0.156,0.468,0.369,0.87,0.639,1.206
	s0.591,0.597,0.963,0.783C213.858,46.514,214.261,46.606,214.693,46.606z"/>
<path fill="#FFFFFF" d="M221.172,38.452h0.684l0.072,1.602h0.054c0.288-0.54,0.639-0.978,1.053-1.314s0.879-0.504,1.395-0.504
	c0.168,0,0.318,0.012,0.45,0.036c0.132,0.024,0.27,0.072,0.414,0.144l-0.18,0.72c-0.144-0.06-0.27-0.099-0.378-0.117
	c-0.108-0.018-0.246-0.027-0.414-0.027c-0.384,0-0.79,0.165-1.215,0.495s-0.807,0.903-1.143,1.719v5.886h-0.792V38.452z"/>
<path fill="#FFFFFF" d="M226.878,34.15h0.792v9.54h0.036l4.266-5.238h0.918l-2.808,3.42l3.276,5.22h-0.882l-2.862-4.626
	l-1.944,2.268v2.358h-0.792V34.15z"/>
<path fill="#FFFFFF" d="M235.644,36.364c-0.204,0-0.375-0.066-0.513-0.198c-0.138-0.132-0.207-0.3-0.207-0.504
	c0-0.228,0.069-0.405,0.207-0.531c0.138-0.126,0.309-0.189,0.513-0.189s0.375,0.063,0.513,0.189
	c0.138,0.126,0.207,0.303,0.207,0.531c0,0.205-0.069,0.372-0.207,0.504C236.019,36.298,235.848,36.364,235.644,36.364z
	 M235.23,38.452h0.792v8.64h-0.792V38.452z"/>
<path fill="#FFFFFF" d="M239.352,38.452h0.684l0.072,1.332h0.054c0.444-0.444,0.9-0.813,1.368-1.107
	c0.468-0.294,1.002-0.441,1.602-0.441c0.9,0,1.56,0.27,1.98,0.81c0.42,0.54,0.63,1.374,0.63,2.502v5.544h-0.792v-5.436
	c0-0.924-0.153-1.605-0.459-2.043s-0.813-0.657-1.521-0.657c-0.516,0-0.984,0.135-1.404,0.405c-0.42,0.27-0.894,0.675-1.422,1.215
	v6.516h-0.792V38.452z"/>
<path fill="#FFFFFF" d="M251.754,51.25c-1.092,0-1.956-0.216-2.592-0.648c-0.636-0.432-0.954-1.014-0.954-1.746
	c0-0.384,0.114-0.756,0.342-1.116s0.54-0.684,0.936-0.972v-0.072c-0.216-0.132-0.396-0.312-0.54-0.54
	c-0.144-0.228-0.216-0.51-0.216-0.846c0-0.384,0.108-0.711,0.324-0.981c0.216-0.27,0.42-0.471,0.612-0.603v-0.072
	c-0.276-0.24-0.525-0.564-0.747-0.972c-0.222-0.408-0.333-0.875-0.333-1.404c0-0.444,0.078-0.852,0.234-1.224
	c0.156-0.372,0.372-0.693,0.648-0.963s0.6-0.48,0.972-0.63s0.768-0.225,1.188-0.225c0.24,0,0.456,0.021,0.648,0.063
	s0.354,0.093,0.486,0.153h2.934v0.666h-2.016c0.276,0.24,0.504,0.549,0.684,0.927c0.18,0.378,0.27,0.795,0.27,1.251
	c0,0.444-0.078,0.852-0.234,1.224c-0.156,0.372-0.369,0.693-0.639,0.963c-0.27,0.27-0.588,0.48-0.954,0.63
	c-0.366,0.15-0.759,0.225-1.179,0.225c-0.24,0-0.489-0.03-0.747-0.09c-0.258-0.06-0.489-0.15-0.693-0.27
	c-0.192,0.156-0.357,0.33-0.495,0.522c-0.138,0.192-0.207,0.432-0.207,0.72c0,0.313,0.114,0.579,0.342,0.801
	c0.228,0.222,0.666,0.333,1.314,0.333h1.854c0.972,0,1.689,0.159,2.151,0.477c0.462,0.318,0.693,0.819,0.693,1.503
	c0,0.372-0.096,0.735-0.288,1.089c-0.192,0.354-0.465,0.666-0.819,0.936s-0.783,0.486-1.287,0.648
	C252.942,51.169,252.378,51.25,251.754,51.25z M251.844,50.602c0.48,0,0.918-0.063,1.314-0.189s0.731-0.291,1.008-0.495
	c0.276-0.205,0.489-0.435,0.639-0.693c0.15-0.258,0.225-0.525,0.225-0.801c0-0.48-0.171-0.819-0.513-1.017
	c-0.342-0.198-0.837-0.297-1.485-0.297h-1.854c-0.096,0-0.243-0.009-0.441-0.027c-0.198-0.018-0.411-0.057-0.639-0.117
	c-0.396,0.276-0.684,0.57-0.864,0.882c-0.18,0.312-0.27,0.624-0.27,0.936c0,0.54,0.249,0.978,0.747,1.314
	S250.92,50.602,251.844,50.602z M251.628,43.708c0.3,0,0.585-0.057,0.855-0.171c0.27-0.114,0.507-0.279,0.711-0.495
	c0.204-0.216,0.366-0.474,0.486-0.774c0.12-0.3,0.18-0.63,0.18-0.99s-0.06-0.69-0.18-0.99c-0.12-0.3-0.279-0.552-0.477-0.756
	c-0.198-0.204-0.435-0.363-0.711-0.477c-0.276-0.114-0.564-0.171-0.864-0.171c-0.312,0-0.603,0.057-0.873,0.171
	c-0.27,0.114-0.507,0.273-0.711,0.477c-0.204,0.204-0.366,0.453-0.486,0.747c-0.12,0.294-0.18,0.627-0.18,0.999
	c0,0.36,0.06,0.69,0.18,0.99c0.12,0.3,0.285,0.558,0.495,0.774c0.21,0.216,0.45,0.381,0.72,0.495
	C251.043,43.651,251.328,43.708,251.628,43.708z"/>
<path fill="#FFFFFF" d="M264.678,47.308c-0.42,0-0.855-0.099-1.305-0.297c-0.45-0.198-0.879-0.465-1.287-0.801h-0.036l-0.09,0.882
	h-0.666V34.15h0.792v3.744l-0.036,1.692c0.444-0.372,0.918-0.69,1.422-0.954c0.504-0.264,1.026-0.396,1.566-0.396
	c1.152,0,2.016,0.399,2.592,1.197c0.576,0.798,0.864,1.869,0.864,3.213c0,0.732-0.102,1.386-0.306,1.962
	c-0.204,0.576-0.483,1.065-0.837,1.467c-0.354,0.402-0.762,0.708-1.224,0.918C265.665,47.203,265.182,47.308,264.678,47.308z
	 M264.642,46.606c0.432,0,0.834-0.096,1.206-0.288s0.69-0.462,0.954-0.81c0.264-0.348,0.471-0.765,0.621-1.251
	c0.15-0.486,0.225-1.023,0.225-1.611c0-0.528-0.051-1.02-0.153-1.476s-0.261-0.849-0.477-1.179c-0.216-0.33-0.498-0.588-0.846-0.774
	c-0.348-0.186-0.768-0.279-1.26-0.279c-0.432,0-0.882,0.123-1.35,0.369c-0.468,0.246-0.96,0.597-1.476,1.053v5.13
	c0.479,0.408,0.942,0.696,1.386,0.864S264.306,46.606,264.642,46.606z"/>
<path fill="#FFFFFF" d="M273.534,47.308c-0.9,0-1.56-0.27-1.98-0.81c-0.42-0.54-0.63-1.374-0.63-2.502v-5.544h0.792v5.436
	c0,0.924,0.153,1.605,0.459,2.043c0.306,0.438,0.807,0.657,1.503,0.657c0.516,0,0.983-0.141,1.404-0.423
	c0.42-0.282,0.882-0.729,1.386-1.341v-6.372h0.792v8.64h-0.666l-0.09-1.44h-0.036c-0.42,0.504-0.864,0.906-1.332,1.206
	C274.668,47.158,274.134,47.308,273.534,47.308z"/>
<path fill="#FFFFFF" d="M282.93,47.308c-0.42,0-0.768-0.063-1.044-0.189c-0.276-0.126-0.499-0.303-0.666-0.531
	c-0.168-0.228-0.285-0.504-0.351-0.828c-0.066-0.324-0.099-0.678-0.099-1.062v-5.562h-1.35v-0.612l1.368-0.072l0.108-2.502h0.684
	v2.502h2.502v0.684h-2.502v5.634c0,0.276,0.021,0.525,0.063,0.747c0.042,0.222,0.117,0.414,0.225,0.576s0.255,0.288,0.441,0.378
	c0.186,0.09,0.429,0.135,0.729,0.135c0.168,0,0.351-0.027,0.549-0.081c0.198-0.054,0.375-0.117,0.531-0.189l0.216,0.648
	c-0.252,0.096-0.504,0.174-0.756,0.234S283.11,47.308,282.93,47.308z"/>
<path fill="#FFFFFF" d="M290.202,36.364c-0.204,0-0.375-0.066-0.513-0.198c-0.138-0.132-0.207-0.3-0.207-0.504
	c0-0.228,0.069-0.405,0.207-0.531c0.138-0.126,0.309-0.189,0.513-0.189s0.375,0.063,0.513,0.189
	c0.138,0.126,0.207,0.303,0.207,0.531c0,0.205-0.069,0.372-0.207,0.504C290.577,36.298,290.406,36.364,290.202,36.364z
	 M289.788,38.452h0.792v8.64h-0.792V38.452z"/>
<path fill="#FFFFFF" d="M295.998,47.308c-0.648,0-1.242-0.117-1.782-0.351c-0.54-0.234-1.002-0.513-1.386-0.837l0.468-0.594
	c0.372,0.312,0.768,0.573,1.188,0.783c0.42,0.21,0.942,0.315,1.566,0.315c0.684,0,1.197-0.171,1.539-0.513
	c0.342-0.342,0.513-0.741,0.513-1.197c0-0.264-0.063-0.498-0.189-0.702s-0.291-0.378-0.495-0.522s-0.429-0.27-0.675-0.378
	c-0.246-0.108-0.495-0.21-0.747-0.306c-0.324-0.12-0.651-0.246-0.981-0.378c-0.331-0.132-0.627-0.291-0.891-0.477
	c-0.264-0.186-0.477-0.408-0.639-0.666c-0.162-0.258-0.243-0.573-0.243-0.945c0-0.312,0.06-0.609,0.18-0.891s0.3-0.528,0.54-0.738
	c0.24-0.209,0.531-0.375,0.873-0.495s0.741-0.18,1.197-0.18s0.903,0.084,1.341,0.252c0.438,0.168,0.813,0.384,1.125,0.648
	l-0.432,0.558c-0.288-0.216-0.594-0.399-0.918-0.549s-0.708-0.225-1.152-0.225c-0.336,0-0.624,0.045-0.864,0.135
	c-0.24,0.09-0.441,0.207-0.603,0.351c-0.162,0.144-0.282,0.312-0.36,0.504c-0.078,0.192-0.117,0.384-0.117,0.576
	c0,0.252,0.057,0.465,0.171,0.639c0.114,0.174,0.267,0.327,0.459,0.459c0.191,0.132,0.411,0.249,0.657,0.351
	c0.246,0.103,0.495,0.201,0.747,0.297c0.336,0.132,0.672,0.264,1.008,0.396s0.639,0.294,0.909,0.486s0.489,0.429,0.657,0.711
	c0.167,0.282,0.252,0.633,0.252,1.053c0,0.324-0.063,0.633-0.189,0.927c-0.126,0.294-0.315,0.552-0.567,0.774
	c-0.252,0.222-0.558,0.399-0.918,0.531C296.879,47.242,296.465,47.308,295.998,47.308z"/>
<path fill="#FFFFFF" d="M304.799,38.452h0.684l0.072,1.332h0.054c0.444-0.444,0.9-0.813,1.368-1.107
	c0.468-0.294,1.002-0.441,1.602-0.441c0.9,0,1.56,0.27,1.98,0.81c0.42,0.54,0.63,1.374,0.63,2.502v5.544h-0.792v-5.436
	c0-0.924-0.153-1.605-0.459-2.043s-0.813-0.657-1.521-0.657c-0.516,0-0.984,0.135-1.404,0.405c-0.42,0.27-0.894,0.675-1.422,1.215
	v6.516h-0.792V38.452z"/>
<path fill="#FFFFFF" d="M317.526,47.308c-0.516,0-1.008-0.102-1.476-0.306c-0.468-0.204-0.879-0.498-1.233-0.882
	c-0.354-0.384-0.636-0.855-0.846-1.413c-0.21-0.558-0.315-1.197-0.315-1.917c0-0.72,0.105-1.365,0.315-1.935
	s0.492-1.047,0.846-1.431c0.354-0.384,0.765-0.678,1.233-0.882c0.468-0.204,0.96-0.306,1.476-0.306c0.516,0,1.011,0.102,1.485,0.306
	s0.888,0.498,1.242,0.882c0.354,0.384,0.636,0.861,0.846,1.431s0.315,1.215,0.315,1.935c0,0.72-0.105,1.359-0.315,1.917
	c-0.21,0.558-0.492,1.029-0.846,1.413c-0.354,0.384-0.768,0.678-1.242,0.882C318.537,47.206,318.042,47.308,317.526,47.308z
	 M317.526,46.606c0.432,0,0.837-0.093,1.215-0.279c0.378-0.186,0.702-0.447,0.972-0.783s0.483-0.738,0.639-1.206
	c0.156-0.468,0.234-0.984,0.234-1.548c0-0.576-0.079-1.098-0.234-1.566c-0.156-0.468-0.369-0.873-0.639-1.215
	s-0.594-0.606-0.972-0.792s-0.783-0.279-1.215-0.279c-0.432,0-0.834,0.093-1.206,0.279c-0.372,0.186-0.693,0.45-0.963,0.792
	s-0.483,0.747-0.639,1.215c-0.156,0.468-0.234,0.99-0.234,1.566c0,0.564,0.078,1.08,0.234,1.548c0.156,0.468,0.369,0.87,0.639,1.206
	s0.591,0.597,0.963,0.783C316.691,46.514,317.094,46.606,317.526,46.606z"/>
<path fill="#FFFFFF" d="M326.148,47.308c-0.42,0-0.768-0.063-1.044-0.189c-0.276-0.126-0.499-0.303-0.666-0.531
	c-0.168-0.228-0.285-0.504-0.351-0.828c-0.066-0.324-0.099-0.678-0.099-1.062v-5.562h-1.35v-0.612l1.368-0.072l0.108-2.502h0.684
	v2.502h2.502v0.684h-2.502v5.634c0,0.276,0.021,0.525,0.063,0.747c0.042,0.222,0.117,0.414,0.225,0.576s0.255,0.288,0.441,0.378
	c0.186,0.09,0.429,0.135,0.729,0.135c0.168,0,0.351-0.027,0.549-0.081c0.198-0.054,0.375-0.117,0.531-0.189l0.216,0.648
	c-0.252,0.096-0.504,0.174-0.756,0.234S326.328,47.308,326.148,47.308z"/>
<path fill="#FFFFFF" d="M333.005,38.452h0.684l0.072,1.602h0.054c0.288-0.54,0.639-0.978,1.053-1.314s0.879-0.504,1.395-0.504
	c0.168,0,0.318,0.012,0.45,0.036c0.132,0.024,0.27,0.072,0.414,0.144l-0.18,0.72c-0.144-0.06-0.27-0.099-0.378-0.117
	c-0.108-0.018-0.246-0.027-0.414-0.027c-0.384,0-0.79,0.165-1.215,0.495s-0.807,0.903-1.143,1.719v5.886h-0.792V38.452z"/>
<path fill="#FFFFFF" d="M341.808,47.308c-0.552,0-1.071-0.102-1.557-0.306c-0.486-0.204-0.909-0.501-1.269-0.891
	c-0.36-0.39-0.645-0.864-0.855-1.422c-0.21-0.558-0.315-1.191-0.315-1.899s0.105-1.344,0.315-1.908s0.492-1.041,0.846-1.431
	c0.354-0.39,0.756-0.69,1.206-0.9c0.45-0.21,0.915-0.315,1.395-0.315c1.032,0,1.842,0.348,2.43,1.044
	c0.588,0.696,0.882,1.68,0.882,2.952c0,0.108,0,0.216,0,0.324s-0.012,0.216-0.036,0.324h-6.228c0.012,0.54,0.096,1.041,0.252,1.503
	c0.156,0.462,0.375,0.858,0.657,1.188c0.282,0.33,0.621,0.588,1.017,0.774s0.84,0.279,1.332,0.279c0.468,0,0.891-0.069,1.269-0.207
	c0.378-0.138,0.729-0.327,1.053-0.567l0.324,0.612c-0.348,0.204-0.729,0.396-1.143,0.576
	C342.968,47.218,342.443,47.308,341.808,47.308z M344.129,42.232c0-1.116-0.228-1.947-0.684-2.493
	c-0.456-0.546-1.074-0.819-1.854-0.819c-0.372,0-0.726,0.075-1.062,0.225s-0.639,0.369-0.909,0.657s-0.492,0.636-0.666,1.044
	c-0.174,0.408-0.285,0.87-0.333,1.386H344.129z"/>
<path fill="#FFFFFF" d="M350.429,47.308c-0.564,0-1.083-0.102-1.557-0.306c-0.475-0.204-0.888-0.498-1.242-0.882
	c-0.354-0.384-0.63-0.855-0.828-1.413c-0.198-0.558-0.297-1.197-0.297-1.917c0-0.72,0.108-1.365,0.324-1.935
	c0.216-0.57,0.504-1.047,0.864-1.431c0.36-0.384,0.777-0.678,1.251-0.882s0.975-0.306,1.503-0.306c0.6,0,1.098,0.108,1.494,0.324
	c0.396,0.216,0.744,0.462,1.044,0.738l-0.468,0.558c-0.276-0.264-0.583-0.483-0.918-0.657c-0.336-0.174-0.714-0.261-1.134-0.261
	c-0.444,0-0.855,0.093-1.233,0.279s-0.708,0.45-0.99,0.792s-0.504,0.747-0.666,1.215c-0.162,0.468-0.243,0.99-0.243,1.566
	c0,0.564,0.075,1.08,0.225,1.548c0.15,0.468,0.36,0.87,0.63,1.206s0.6,0.597,0.99,0.783c0.39,0.187,0.819,0.279,1.287,0.279
	c0.456,0,0.879-0.096,1.269-0.288c0.39-0.192,0.735-0.426,1.035-0.702l0.414,0.558c-0.372,0.324-0.786,0.594-1.242,0.81
	C351.485,47.2,350.981,47.308,350.429,47.308z"/>
<path fill="#FFFFFF" d="M358.151,47.308c-0.516,0-1.008-0.102-1.476-0.306c-0.468-0.204-0.879-0.498-1.233-0.882
	c-0.354-0.384-0.636-0.855-0.846-1.413c-0.21-0.558-0.315-1.197-0.315-1.917c0-0.72,0.105-1.365,0.315-1.935
	s0.492-1.047,0.846-1.431c0.354-0.384,0.765-0.678,1.233-0.882c0.468-0.204,0.96-0.306,1.476-0.306c0.516,0,1.011,0.102,1.485,0.306
	s0.888,0.498,1.242,0.882c0.354,0.384,0.636,0.861,0.846,1.431s0.315,1.215,0.315,1.935c0,0.72-0.105,1.359-0.315,1.917
	c-0.21,0.558-0.492,1.029-0.846,1.413c-0.354,0.384-0.768,0.678-1.242,0.882C359.162,47.206,358.667,47.308,358.151,47.308z
	 M358.151,46.606c0.432,0,0.837-0.093,1.215-0.279c0.378-0.186,0.702-0.447,0.972-0.783s0.483-0.738,0.639-1.206
	c0.156-0.468,0.234-0.984,0.234-1.548c0-0.576-0.079-1.098-0.234-1.566c-0.156-0.468-0.369-0.873-0.639-1.215
	s-0.594-0.606-0.972-0.792s-0.783-0.279-1.215-0.279c-0.432,0-0.834,0.093-1.206,0.279c-0.372,0.186-0.693,0.45-0.963,0.792
	s-0.483,0.747-0.639,1.215c-0.156,0.468-0.234,0.99-0.234,1.566c0,0.564,0.078,1.08,0.234,1.548c0.156,0.468,0.369,0.87,0.639,1.206
	s0.591,0.597,0.963,0.783C357.317,46.514,357.719,46.606,358.151,46.606z"/>
<path fill="#FFFFFF" d="M364.631,38.452h0.684l0.072,1.332h0.054c0.384-0.444,0.813-0.813,1.287-1.107
	c0.474-0.294,0.951-0.441,1.431-0.441c0.696,0,1.23,0.159,1.602,0.477c0.372,0.318,0.636,0.747,0.792,1.287
	c0.504-0.54,0.993-0.969,1.467-1.287s0.963-0.477,1.467-0.477c1.728,0,2.592,1.104,2.592,3.312v5.544h-0.81v-5.436
	c0-0.924-0.156-1.605-0.468-2.043c-0.313-0.438-0.798-0.657-1.458-0.657c-0.78,0-1.645,0.54-2.592,1.62v6.516h-0.792v-5.436
	c0-0.924-0.156-1.605-0.468-2.043c-0.313-0.438-0.804-0.657-1.476-0.657c-0.78,0-1.644,0.54-2.592,1.62v6.516h-0.792V38.452z"/>
<path fill="#FFFFFF" d="M379.247,38.452h0.684l0.072,1.332h0.054c0.384-0.444,0.813-0.813,1.287-1.107
	c0.474-0.294,0.951-0.441,1.431-0.441c0.696,0,1.23,0.159,1.602,0.477c0.372,0.318,0.636,0.747,0.792,1.287
	c0.504-0.54,0.993-0.969,1.467-1.287s0.963-0.477,1.467-0.477c1.728,0,2.592,1.104,2.592,3.312v5.544h-0.81v-5.436
	c0-0.924-0.156-1.605-0.468-2.043c-0.313-0.438-0.798-0.657-1.458-0.657c-0.78,0-1.645,0.54-2.592,1.62v6.516h-0.792v-5.436
	c0-0.924-0.156-1.605-0.468-2.043c-0.313-0.438-0.804-0.657-1.476-0.657c-0.78,0-1.644,0.54-2.592,1.62v6.516h-0.792V38.452z"/>
<path fill="#FFFFFF" d="M397.139,47.308c-0.552,0-1.071-0.102-1.557-0.306c-0.486-0.204-0.909-0.501-1.269-0.891
	c-0.36-0.39-0.645-0.864-0.855-1.422c-0.21-0.558-0.315-1.191-0.315-1.899s0.105-1.344,0.315-1.908s0.492-1.041,0.846-1.431
	c0.354-0.39,0.756-0.69,1.206-0.9c0.45-0.21,0.915-0.315,1.395-0.315c1.032,0,1.842,0.348,2.43,1.044
	c0.588,0.696,0.882,1.68,0.882,2.952c0,0.108,0,0.216,0,0.324s-0.012,0.216-0.036,0.324h-6.228c0.012,0.54,0.096,1.041,0.252,1.503
	c0.156,0.462,0.375,0.858,0.657,1.188c0.282,0.33,0.621,0.588,1.017,0.774s0.84,0.279,1.332,0.279c0.468,0,0.891-0.069,1.269-0.207
	c0.378-0.138,0.729-0.327,1.053-0.567l0.324,0.612c-0.348,0.204-0.729,0.396-1.143,0.576
	C398.299,47.218,397.774,47.308,397.139,47.308z M399.46,42.232c0-1.116-0.228-1.947-0.684-2.493
	c-0.456-0.546-1.074-0.819-1.854-0.819c-0.372,0-0.726,0.075-1.062,0.225s-0.639,0.369-0.909,0.657s-0.492,0.636-0.666,1.044
	c-0.174,0.408-0.285,0.87-0.333,1.386H399.46z"/>
<path fill="#FFFFFF" d="M402.556,38.452h0.684l0.072,1.332h0.054c0.444-0.444,0.9-0.813,1.368-1.107
	c0.468-0.294,1.002-0.441,1.602-0.441c0.9,0,1.56,0.27,1.98,0.81c0.42,0.54,0.63,1.374,0.63,2.502v5.544h-0.792v-5.436
	c0-0.924-0.153-1.605-0.459-2.043s-0.813-0.657-1.521-0.657c-0.516,0-0.984,0.135-1.404,0.405c-0.42,0.27-0.894,0.675-1.422,1.215
	v6.516h-0.792V38.452z"/>
<path fill="#FFFFFF" d="M414.995,47.308c-1.092,0-1.962-0.387-2.61-1.161c-0.648-0.774-0.972-1.893-0.972-3.357
	c0-0.696,0.102-1.326,0.306-1.89c0.204-0.564,0.483-1.044,0.837-1.44c0.354-0.396,0.762-0.699,1.224-0.909
	c0.461-0.21,0.951-0.315,1.467-0.315c0.528,0,0.987,0.093,1.377,0.279c0.39,0.187,0.801,0.447,1.233,0.783l-0.036-1.584V34.15h0.792
	v12.942h-0.684l-0.072-1.116h-0.054c-0.348,0.349-0.759,0.657-1.233,0.927S415.571,47.308,414.995,47.308z M415.103,46.606
	c0.48,0,0.939-0.123,1.377-0.369c0.438-0.246,0.885-0.597,1.341-1.053v-5.13c-0.457-0.408-0.885-0.696-1.287-0.864
	c-0.402-0.168-0.813-0.252-1.233-0.252c-0.432,0-0.834,0.099-1.206,0.297c-0.372,0.198-0.693,0.468-0.963,0.81
	c-0.27,0.342-0.483,0.75-0.639,1.224c-0.156,0.475-0.234,0.981-0.234,1.521c0,0.576,0.063,1.098,0.189,1.566
	c0.126,0.468,0.309,0.867,0.549,1.197c0.24,0.33,0.537,0.588,0.891,0.774C414.241,46.514,414.646,46.606,415.103,46.606z"/>
<path fill="#FFFFFF" d="M425.201,47.308c-0.552,0-1.071-0.102-1.557-0.306c-0.486-0.204-0.909-0.501-1.269-0.891
	c-0.36-0.39-0.645-0.864-0.855-1.422c-0.21-0.558-0.315-1.191-0.315-1.899s0.105-1.344,0.315-1.908s0.492-1.041,0.846-1.431
	c0.354-0.39,0.756-0.69,1.206-0.9c0.45-0.21,0.915-0.315,1.395-0.315c1.032,0,1.842,0.348,2.43,1.044
	c0.588,0.696,0.882,1.68,0.882,2.952c0,0.108,0,0.216,0,0.324s-0.012,0.216-0.036,0.324h-6.228c0.012,0.54,0.096,1.041,0.252,1.503
	c0.156,0.462,0.375,0.858,0.657,1.188c0.282,0.33,0.621,0.588,1.017,0.774s0.84,0.279,1.332,0.279c0.468,0,0.891-0.069,1.269-0.207
	c0.378-0.138,0.729-0.327,1.053-0.567l0.324,0.612c-0.348,0.204-0.729,0.396-1.143,0.576
	C426.361,47.218,425.836,47.308,425.201,47.308z M427.522,42.232c0-1.116-0.228-1.947-0.684-2.493
	c-0.456-0.546-1.074-0.819-1.854-0.819c-0.372,0-0.726,0.075-1.062,0.225s-0.639,0.369-0.909,0.657s-0.492,0.636-0.666,1.044
	c-0.174,0.408-0.285,0.87-0.333,1.386H427.522z"/>
<path fill="#FFFFFF" d="M433.48,47.308c-1.092,0-1.962-0.387-2.61-1.161c-0.648-0.774-0.972-1.893-0.972-3.357
	c0-0.696,0.102-1.326,0.306-1.89c0.204-0.564,0.483-1.044,0.837-1.44c0.354-0.396,0.762-0.699,1.224-0.909
	c0.461-0.21,0.951-0.315,1.467-0.315c0.528,0,0.987,0.093,1.377,0.279c0.39,0.187,0.801,0.447,1.233,0.783l-0.036-1.584V34.15h0.792
	v12.942h-0.684l-0.072-1.116h-0.054c-0.348,0.349-0.759,0.657-1.233,0.927S434.057,47.308,433.48,47.308z M433.588,46.606
	c0.48,0,0.939-0.123,1.377-0.369c0.438-0.246,0.885-0.597,1.341-1.053v-5.13c-0.457-0.408-0.885-0.696-1.287-0.864
	c-0.402-0.168-0.813-0.252-1.233-0.252c-0.432,0-0.834,0.099-1.206,0.297c-0.372,0.198-0.693,0.468-0.963,0.81
	c-0.27,0.342-0.483,0.75-0.639,1.224c-0.156,0.475-0.234,0.981-0.234,1.521c0,0.576,0.063,1.098,0.189,1.566
	c0.126,0.468,0.309,0.867,0.549,1.197c0.24,0.33,0.537,0.588,0.891,0.774C432.727,46.514,433.132,46.606,433.588,46.606z"/>
<path fill="#FFFFFF" d="M447.322,34.87c-0.18-0.096-0.356-0.162-0.53-0.198c-0.175-0.036-0.346-0.054-0.514-0.054
	c-0.456,0-0.795,0.168-1.017,0.504c-0.223,0.336-0.333,0.822-0.333,1.458v1.872h1.998v0.684h-1.998v7.956h-0.792v-7.956h-1.188
	v-0.612l1.188-0.072v-1.926c0-0.864,0.186-1.512,0.558-1.944c0.372-0.432,0.9-0.648,1.584-0.648c0.42,0,0.84,0.096,1.26,0.288
	L447.322,34.87z"/>
<path fill="#FFFFFF" d="M451.715,47.308c-0.517,0-1.009-0.102-1.476-0.306c-0.469-0.204-0.88-0.498-1.233-0.882
	c-0.354-0.384-0.636-0.855-0.847-1.413c-0.209-0.558-0.314-1.197-0.314-1.917c0-0.72,0.105-1.365,0.314-1.935
	c0.211-0.57,0.492-1.047,0.847-1.431c0.354-0.384,0.765-0.678,1.233-0.882c0.467-0.204,0.959-0.306,1.476-0.306
	c0.516,0,1.011,0.102,1.485,0.306c0.474,0.204,0.887,0.498,1.242,0.882c0.354,0.384,0.635,0.861,0.846,1.431
	c0.209,0.57,0.314,1.215,0.314,1.935c0,0.72-0.105,1.359-0.314,1.917c-0.211,0.558-0.492,1.029-0.846,1.413
	c-0.355,0.384-0.769,0.678-1.242,0.882C452.726,47.206,452.23,47.308,451.715,47.308z M451.715,46.606
	c0.432,0,0.837-0.093,1.215-0.279c0.378-0.186,0.702-0.447,0.972-0.783c0.271-0.336,0.482-0.738,0.639-1.206
	c0.156-0.468,0.234-0.984,0.234-1.548c0-0.576-0.078-1.098-0.234-1.566c-0.156-0.468-0.368-0.873-0.639-1.215
	c-0.27-0.342-0.594-0.606-0.972-0.792s-0.783-0.279-1.215-0.279c-0.433,0-0.835,0.093-1.206,0.279
	c-0.372,0.186-0.693,0.45-0.963,0.792s-0.483,0.747-0.639,1.215c-0.156,0.468-0.234,0.99-0.234,1.566
	c0,0.564,0.078,1.08,0.234,1.548c0.155,0.468,0.369,0.87,0.639,1.206s0.591,0.597,0.963,0.783
	C450.88,46.514,451.282,46.606,451.715,46.606z"/>
<path fill="#FFFFFF" d="M458.194,38.452h0.684l0.072,1.602h0.055c0.287-0.54,0.639-0.978,1.053-1.314s0.879-0.504,1.395-0.504
	c0.168,0,0.318,0.012,0.451,0.036c0.131,0.024,0.27,0.072,0.414,0.144l-0.182,0.72c-0.143-0.06-0.27-0.099-0.377-0.117
	c-0.107-0.018-0.246-0.027-0.414-0.027c-0.385,0-0.789,0.165-1.215,0.495s-0.807,0.903-1.143,1.719v5.886h-0.793V38.452z"/>
<path fill="#FFFFFF" d="M467.501,38.452h0.684l0.072,1.08h0.053c0.42-0.336,0.879-0.636,1.377-0.9
	c0.498-0.264,1.018-0.396,1.559-0.396c1.15,0,2.016,0.399,2.592,1.197c0.576,0.798,0.863,1.869,0.863,3.213
	c0,0.732-0.102,1.386-0.307,1.962c-0.203,0.576-0.482,1.065-0.836,1.467c-0.354,0.402-0.762,0.708-1.225,0.918
	c-0.461,0.21-0.945,0.315-1.449,0.315c-0.408,0-0.828-0.093-1.26-0.279s-0.875-0.447-1.332-0.783v4.752h-0.791V38.452z
	 M468.292,45.49c0.504,0.408,0.973,0.696,1.404,0.864s0.816,0.252,1.152,0.252c0.432,0,0.834-0.096,1.205-0.288
	c0.373-0.192,0.691-0.462,0.955-0.81s0.471-0.765,0.621-1.251c0.148-0.486,0.225-1.023,0.225-1.611c0-0.528-0.051-1.02-0.152-1.476
	c-0.104-0.456-0.262-0.849-0.479-1.179c-0.215-0.33-0.498-0.588-0.846-0.774s-0.768-0.279-1.26-0.279
	c-0.432,0-0.879,0.123-1.342,0.369c-0.461,0.246-0.957,0.597-1.484,1.053V45.49z"/>
<path fill="#FFFFFF" d="M477.292,38.452h0.684l0.072,1.602h0.055c0.287-0.54,0.639-0.978,1.053-1.314s0.879-0.504,1.395-0.504
	c0.168,0,0.318,0.012,0.451,0.036c0.131,0.024,0.27,0.072,0.414,0.144l-0.182,0.72c-0.143-0.06-0.27-0.099-0.377-0.117
	c-0.107-0.018-0.246-0.027-0.414-0.027c-0.385,0-0.789,0.165-1.215,0.495s-0.807,0.903-1.143,1.719v5.886h-0.793V38.452z"/>
<path fill="#FFFFFF" d="M485.968,47.308c-0.516,0-1.008-0.102-1.475-0.306c-0.469-0.204-0.879-0.498-1.234-0.882
	c-0.354-0.384-0.635-0.855-0.846-1.413c-0.209-0.558-0.314-1.197-0.314-1.917c0-0.72,0.105-1.365,0.314-1.935
	c0.211-0.57,0.492-1.047,0.846-1.431c0.355-0.384,0.766-0.678,1.234-0.882c0.467-0.204,0.959-0.306,1.475-0.306
	c0.518,0,1.012,0.102,1.486,0.306c0.473,0.204,0.887,0.498,1.242,0.882c0.354,0.384,0.635,0.861,0.846,1.431
	c0.209,0.57,0.314,1.215,0.314,1.935c0,0.72-0.105,1.359-0.314,1.917c-0.211,0.558-0.492,1.029-0.846,1.413
	c-0.355,0.384-0.77,0.678-1.242,0.882C486.979,47.206,486.485,47.308,485.968,47.308z M485.968,46.606
	c0.434,0,0.838-0.093,1.217-0.279c0.377-0.186,0.701-0.447,0.971-0.783s0.482-0.738,0.639-1.206
	c0.156-0.468,0.234-0.984,0.234-1.548c0-0.576-0.078-1.098-0.234-1.566c-0.156-0.468-0.369-0.873-0.639-1.215
	s-0.594-0.606-0.971-0.792c-0.379-0.186-0.783-0.279-1.217-0.279c-0.432,0-0.834,0.093-1.205,0.279
	c-0.373,0.186-0.693,0.45-0.963,0.792s-0.482,0.747-0.639,1.215c-0.156,0.468-0.234,0.99-0.234,1.566
	c0,0.564,0.078,1.08,0.234,1.548c0.156,0.468,0.369,0.87,0.639,1.206s0.59,0.597,0.963,0.783
	C485.134,46.514,485.536,46.606,485.968,46.606z"/>
<path fill="#FFFFFF" d="M495.31,47.308c-1.092,0-1.961-0.387-2.609-1.161c-0.648-0.774-0.973-1.893-0.973-3.357
	c0-0.696,0.104-1.326,0.307-1.89c0.205-0.564,0.482-1.044,0.838-1.44c0.354-0.396,0.762-0.699,1.223-0.909
	c0.463-0.21,0.951-0.315,1.467-0.315c0.529,0,0.988,0.093,1.379,0.279c0.389,0.187,0.801,0.447,1.232,0.783l-0.037-1.584V34.15
	h0.793v12.942h-0.684l-0.072-1.116h-0.055c-0.348,0.349-0.758,0.657-1.232,0.927S495.886,47.308,495.31,47.308z M495.419,46.606
	c0.479,0,0.938-0.123,1.377-0.369c0.438-0.246,0.885-0.597,1.34-1.053v-5.13c-0.455-0.408-0.885-0.696-1.287-0.864
	c-0.4-0.168-0.813-0.252-1.232-0.252c-0.432,0-0.834,0.099-1.205,0.297c-0.373,0.198-0.693,0.468-0.963,0.81
	c-0.271,0.342-0.484,0.75-0.641,1.224c-0.154,0.475-0.232,0.981-0.232,1.521c0,0.576,0.063,1.098,0.188,1.566
	c0.127,0.468,0.311,0.867,0.549,1.197c0.24,0.33,0.537,0.588,0.893,0.774C494.558,46.514,494.962,46.606,495.419,46.606z"/>
<path fill="#FFFFFF" d="M504.724,47.308c-0.898,0-1.559-0.27-1.979-0.81c-0.42-0.54-0.631-1.374-0.631-2.502v-5.544h0.793v5.436
	c0,0.924,0.152,1.605,0.459,2.043c0.305,0.438,0.807,0.657,1.502,0.657c0.516,0,0.984-0.141,1.404-0.423
	c0.42-0.282,0.883-0.729,1.387-1.341v-6.372h0.791v8.64h-0.666l-0.09-1.44h-0.035c-0.42,0.504-0.865,0.906-1.332,1.206
	C505.858,47.158,505.325,47.308,504.724,47.308z"/>
<path fill="#FFFFFF" d="M514.966,47.308c-0.564,0-1.082-0.102-1.557-0.306c-0.475-0.204-0.889-0.498-1.242-0.882
	c-0.354-0.384-0.631-0.855-0.828-1.413c-0.197-0.558-0.297-1.197-0.297-1.917c0-0.72,0.107-1.365,0.324-1.935
	c0.215-0.57,0.504-1.047,0.863-1.431c0.361-0.384,0.777-0.678,1.252-0.882c0.473-0.204,0.975-0.306,1.502-0.306
	c0.6,0,1.098,0.108,1.494,0.324c0.396,0.216,0.744,0.462,1.045,0.738l-0.469,0.558c-0.275-0.264-0.582-0.483-0.918-0.657
	c-0.336-0.174-0.715-0.261-1.133-0.261c-0.445,0-0.855,0.093-1.234,0.279c-0.377,0.186-0.707,0.45-0.99,0.792
	c-0.281,0.342-0.504,0.747-0.666,1.215c-0.162,0.468-0.242,0.99-0.242,1.566c0,0.564,0.074,1.08,0.225,1.548
	c0.15,0.468,0.359,0.87,0.631,1.206c0.27,0.336,0.6,0.597,0.99,0.783c0.389,0.187,0.818,0.279,1.287,0.279
	c0.455,0,0.879-0.096,1.268-0.288c0.391-0.192,0.736-0.426,1.035-0.702l0.414,0.558c-0.371,0.324-0.785,0.594-1.242,0.81
	C516.022,47.2,515.519,47.308,514.966,47.308z"/>
<path fill="#FFFFFF" d="M522.021,47.308c-0.42,0-0.768-0.063-1.043-0.189c-0.277-0.126-0.498-0.303-0.666-0.531
	s-0.285-0.504-0.352-0.828c-0.066-0.324-0.1-0.678-0.1-1.062v-5.562h-1.35v-0.612l1.369-0.072l0.107-2.502h0.684v2.502h2.502v0.684
	h-2.502v5.634c0,0.276,0.021,0.525,0.063,0.747c0.043,0.222,0.117,0.414,0.227,0.576c0.107,0.162,0.254,0.288,0.439,0.378
	c0.188,0.09,0.43,0.135,0.73,0.135c0.168,0,0.35-0.027,0.549-0.081c0.197-0.054,0.375-0.117,0.531-0.189l0.215,0.648
	c-0.252,0.096-0.504,0.174-0.756,0.234S522.202,47.308,522.021,47.308z"/>
<path fill="#FFFFFF" d="M525.694,36.364c-0.205,0-0.377-0.066-0.514-0.198c-0.139-0.132-0.207-0.3-0.207-0.504
	c0-0.228,0.068-0.405,0.207-0.531c0.137-0.126,0.309-0.189,0.514-0.189c0.203,0,0.375,0.063,0.512,0.189
	c0.139,0.126,0.207,0.303,0.207,0.531c0,0.205-0.068,0.372-0.207,0.504C526.069,36.298,525.897,36.364,525.694,36.364z
	 M525.28,38.452h0.791v8.64h-0.791V38.452z"/>
<path fill="#FFFFFF" d="M532.552,47.308c-0.516,0-1.008-0.102-1.477-0.306c-0.467-0.204-0.879-0.498-1.232-0.882
	c-0.354-0.384-0.637-0.855-0.846-1.413c-0.211-0.558-0.316-1.197-0.316-1.917c0-0.72,0.105-1.365,0.316-1.935
	c0.209-0.57,0.492-1.047,0.846-1.431c0.354-0.384,0.766-0.678,1.232-0.882c0.469-0.204,0.961-0.306,1.477-0.306
	s1.01,0.102,1.484,0.306s0.889,0.498,1.242,0.882c0.354,0.384,0.637,0.861,0.846,1.431c0.211,0.57,0.316,1.215,0.316,1.935
	c0,0.72-0.105,1.359-0.316,1.917c-0.209,0.558-0.492,1.029-0.846,1.413c-0.354,0.384-0.768,0.678-1.242,0.882
	C533.562,47.206,533.067,47.308,532.552,47.308z M532.552,46.606c0.432,0,0.836-0.093,1.215-0.279
	c0.379-0.186,0.701-0.447,0.973-0.783c0.27-0.336,0.482-0.738,0.639-1.206c0.156-0.468,0.234-0.984,0.234-1.548
	c0-0.576-0.078-1.098-0.234-1.566c-0.156-0.468-0.369-0.873-0.639-1.215c-0.271-0.342-0.594-0.606-0.973-0.792
	s-0.783-0.279-1.215-0.279s-0.834,0.093-1.207,0.279c-0.371,0.186-0.691,0.45-0.963,0.792c-0.27,0.342-0.482,0.747-0.639,1.215
	c-0.156,0.468-0.234,0.99-0.234,1.566c0,0.564,0.078,1.08,0.234,1.548c0.156,0.468,0.369,0.87,0.639,1.206
	c0.271,0.336,0.592,0.597,0.963,0.783C531.718,46.514,532.12,46.606,532.552,46.606z"/>
<path fill="#FFFFFF" d="M539.032,38.452h0.684l0.072,1.332h0.053c0.445-0.444,0.9-0.813,1.369-1.107
	c0.467-0.294,1.002-0.441,1.602-0.441c0.9,0,1.561,0.27,1.98,0.81s0.629,1.374,0.629,2.502v5.544h-0.791v-5.436
	c0-0.924-0.154-1.605-0.459-2.043c-0.307-0.438-0.814-0.657-1.521-0.657c-0.516,0-0.984,0.135-1.404,0.405s-0.895,0.675-1.422,1.215
	v6.516h-0.791V38.452z"/>
<path fill="#FFFFFF" d="M554.69,47.308c-0.898,0-1.559-0.27-1.979-0.81c-0.42-0.54-0.631-1.374-0.631-2.502v-5.544h0.793v5.436
	c0,0.924,0.152,1.605,0.459,2.043c0.305,0.438,0.807,0.657,1.502,0.657c0.516,0,0.984-0.141,1.404-0.423
	c0.42-0.282,0.883-0.729,1.387-1.341v-6.372h0.791v8.64h-0.666l-0.09-1.44h-0.035c-0.42,0.504-0.865,0.906-1.332,1.206
	C555.825,47.158,555.292,47.308,554.69,47.308z"/>
<path fill="#FFFFFF" d="M563.817,47.308c-0.648,0-1.242-0.117-1.783-0.351c-0.539-0.234-1.002-0.513-1.385-0.837l0.467-0.594
	c0.373,0.312,0.768,0.573,1.189,0.783c0.42,0.21,0.941,0.315,1.564,0.315c0.686,0,1.197-0.171,1.539-0.513
	c0.342-0.342,0.514-0.741,0.514-1.197c0-0.264-0.063-0.498-0.189-0.702c-0.125-0.204-0.291-0.378-0.494-0.522
	c-0.205-0.144-0.43-0.27-0.676-0.378c-0.246-0.108-0.494-0.21-0.746-0.306c-0.324-0.12-0.652-0.246-0.982-0.378
	s-0.627-0.291-0.891-0.477s-0.477-0.408-0.639-0.666c-0.162-0.258-0.242-0.573-0.242-0.945c0-0.312,0.059-0.609,0.18-0.891
	c0.119-0.282,0.299-0.528,0.539-0.738c0.24-0.209,0.531-0.375,0.873-0.495s0.742-0.18,1.197-0.18c0.457,0,0.902,0.084,1.342,0.252
	c0.438,0.168,0.813,0.384,1.125,0.648l-0.432,0.558c-0.289-0.216-0.596-0.399-0.918-0.549c-0.324-0.15-0.709-0.225-1.152-0.225
	c-0.336,0-0.625,0.045-0.865,0.135c-0.24,0.09-0.439,0.207-0.602,0.351s-0.283,0.312-0.361,0.504
	c-0.078,0.192-0.117,0.384-0.117,0.576c0,0.252,0.057,0.465,0.172,0.639c0.113,0.174,0.268,0.327,0.459,0.459
	c0.191,0.132,0.41,0.249,0.656,0.351c0.246,0.103,0.496,0.201,0.748,0.297c0.336,0.132,0.672,0.264,1.008,0.396
	s0.639,0.294,0.908,0.486c0.271,0.192,0.49,0.429,0.658,0.711c0.168,0.282,0.252,0.633,0.252,1.053c0,0.324-0.064,0.633-0.189,0.927
	c-0.127,0.294-0.314,0.552-0.566,0.774c-0.252,0.222-0.559,0.399-0.918,0.531C564.698,47.242,564.284,47.308,563.817,47.308z"/>
<path fill="#FFFFFF" d="M572.294,47.308c-0.551,0-1.07-0.102-1.557-0.306c-0.486-0.204-0.908-0.501-1.268-0.891
	c-0.361-0.39-0.646-0.864-0.855-1.422c-0.211-0.558-0.316-1.191-0.316-1.899s0.105-1.344,0.316-1.908
	c0.209-0.564,0.492-1.041,0.846-1.431c0.354-0.39,0.756-0.69,1.205-0.9c0.451-0.21,0.916-0.315,1.396-0.315
	c1.031,0,1.842,0.348,2.43,1.044c0.588,0.696,0.881,1.68,0.881,2.952c0,0.108,0,0.216,0,0.324s-0.012,0.216-0.035,0.324h-6.229
	c0.012,0.54,0.096,1.041,0.252,1.503s0.375,0.858,0.658,1.188c0.281,0.33,0.621,0.588,1.016,0.774
	c0.396,0.186,0.84,0.279,1.332,0.279c0.469,0,0.891-0.069,1.27-0.207c0.379-0.138,0.729-0.327,1.053-0.567l0.324,0.612
	c-0.348,0.204-0.729,0.396-1.143,0.576C573.456,47.218,572.931,47.308,572.294,47.308z M574.616,42.232
	c0-1.116-0.227-1.947-0.684-2.493c-0.455-0.546-1.074-0.819-1.854-0.819c-0.373,0-0.727,0.075-1.063,0.225s-0.639,0.369-0.908,0.657
	c-0.271,0.288-0.492,0.636-0.666,1.044c-0.174,0.408-0.285,0.87-0.334,1.386H574.616z"/>
<path fill="#FFFFFF" d="M578.396,47.308c-0.203,0-0.383-0.072-0.539-0.216s-0.234-0.342-0.234-0.594
	c0-0.264,0.078-0.468,0.234-0.612s0.336-0.216,0.539-0.216c0.205,0,0.381,0.072,0.531,0.216s0.225,0.348,0.225,0.612
	c0,0.252-0.074,0.45-0.225,0.594S578.601,47.308,578.396,47.308z M577.981,36.31v-1.278h0.828l-0.018,1.278l-0.107,7.56h-0.594
	L577.981,36.31z"/>
<path fill="#FFFFFF" d="M64.077,46.095L64.077,46.095L44.204,11.672c-0.312-0.54-0.887-0.872-1.511-0.872
	c-0.623,0-1.199,0.333-1.51,0.872L21.308,46.095c-0.311,0.54-0.311,1.204,0,1.745c0.312,0.539,0.887,0.871,1.511,0.871h39.749
	c0.623,0,1.199-0.332,1.51-0.871C64.389,47.299,64.389,46.635,64.077,46.095z M27.047,44.526l15.646-27.1l15.646,27.1H27.047z"/>
<path id="path2235_1_" fill="#FFFFFF" d="M41.124,34.602c0.085,0.817,0.228,1.426,0.428,1.826c0.2,0.4,0.556,0.6,1.07,0.6h0.144
	c0.513,0,0.87-0.199,1.069-0.6c0.2-0.4,0.343-1.008,0.428-1.826l0.457-6.313c0.086-1.23,0.129-2.113,0.129-2.649
	c0-0.729-0.207-1.298-0.621-1.706c-0.393-0.389-0.952-0.611-1.534-0.611c-0.582,0-1.141,0.223-1.534,0.611
	c-0.414,0.408-0.62,0.977-0.62,1.706c0,0.537,0.042,1.419,0.128,2.649L41.124,34.602z"/>
<circle id="circle2237_1_" fill="#FFFFFF" cx="42.693" cy="40.821" r="2.187"/>
</svg>
