<?xml version="1.0" encoding="UTF-8" standalone="no"?>
<svg width="911px" height="161px" viewBox="0 0 911 161" version="1.1" xmlns="http://www.w3.org/2000/svg" xmlns:xlink="http://www.w3.org/1999/xlink">
    <!-- Generator: Sketch 3.7.2 (28276) - http://www.bohemiancoding.com/sketch -->
    <title>logo-ONLY-PATHS</title>
    <desc>Created with Sketch.</desc>
    <defs></defs>
    <g id="Page-1" stroke="none" stroke-width="1" fill="none" fill-rule="evenodd">
        <g id="logo-ONLY-PATHS">
            <rect id="Rectangle-1" fill="#1E9DCC" x="0" y="0" width="911" height="161"></rect>
            <path d="M789.64,109.76 L791.28,109.76 L791.28,113.64 L791.24,115.4 C791.680002,115.013331 792.159997,114.690001 792.68,114.43 C793.200003,114.169999 793.733331,114.04 794.28,114.04 C794.90667,114.04 795.459998,114.156666 795.94,114.39 C796.420002,114.623334 796.823332,114.956665 797.15,115.39 C797.476668,115.823335 797.723332,116.34333 797.89,116.95 C798.056668,117.55667 798.14,118.23333 798.14,118.98 C798.14,119.806671 798.026668,120.546663 797.8,121.2 C797.573332,121.853337 797.266669,122.406664 796.88,122.86 C796.493331,123.313336 796.046669,123.656666 795.54,123.89 C795.033331,124.123334 794.500003,124.24 793.94,124.24 C793.486664,124.24 793.016669,124.136668 792.53,123.93 C792.043331,123.723332 791.586669,123.426669 791.16,123.04 L791.1,123.04 L790.96,124 L789.64,124 L789.64,109.76 Z M791.28,121.84 C791.706669,122.213335 792.129998,122.476666 792.55,122.63 C792.970002,122.783334 793.339998,122.86 793.66,122.86 C794.060002,122.86 794.429998,122.770001 794.77,122.59 C795.110002,122.409999 795.403332,122.156668 795.65,121.83 C795.896668,121.503332 796.089999,121.100002 796.23,120.62 C796.370001,120.139998 796.44,119.600003 796.44,119 C796.44,118.466664 796.393334,117.980002 796.3,117.54 C796.206666,117.099998 796.056668,116.723335 795.85,116.41 C795.643332,116.096665 795.376668,115.853334 795.05,115.68 C794.723332,115.506666 794.333336,115.42 793.88,115.42 C793.093329,115.42 792.226671,115.859996 791.28,116.74 L791.28,121.84 Z M800,126.68 C800.106667,126.706667 800.226666,126.736666 800.36,126.77 C800.493334,126.803334 800.619999,126.82 800.74,126.82 C801.300003,126.82 801.756665,126.623335 802.11,126.23 C802.463335,125.836665 802.739999,125.340003 802.94,124.74 L803.16,124.02 L799.26,114.28 L800.96,114.28 L802.94,119.66 C803.086667,120.086669 803.243332,120.536664 803.41,121.01 C803.576667,121.483336 803.733333,121.946664 803.88,122.4 L803.96,122.4 C804.106667,121.959998 804.246666,121.500002 804.38,121.02 C804.513334,120.539998 804.646666,120.086669 804.78,119.66 L806.52,114.28 L808.12,114.28 L804.46,124.8 C804.286666,125.280002 804.093334,125.726665 803.88,126.14 C803.666666,126.553335 803.413335,126.909999 803.12,127.21 C802.826665,127.510002 802.493335,127.746666 802.12,127.92 C801.746665,128.093334 801.313336,128.18 800.82,128.18 C800.593332,128.18 800.386668,128.163333 800.2,128.13 C800.013332,128.096666 799.840001,128.046667 799.68,127.98 L800,126.68 Z M813.32,119.16 C813.32,118.346663 813.446665,117.623336 813.7,116.99 C813.953335,116.356663 814.293331,115.820002 814.72,115.38 C815.146669,114.939998 815.643331,114.606668 816.21,114.38 C816.77667,114.153332 817.37333,114.04 818,114.04 C818.640003,114.04 819.189998,114.156666 819.65,114.39 C820.110002,114.623334 820.506665,114.893332 820.84,115.2 L820.02,116.26 C819.726665,116.006665 819.423335,115.800001 819.11,115.64 C818.796665,115.479999 818.446669,115.4 818.06,115.4 C817.619998,115.4 817.213335,115.489999 816.84,115.67 C816.466665,115.850001 816.146668,116.106665 815.88,116.44 C815.613332,116.773335 815.403334,117.169998 815.25,117.63 C815.096666,118.090002 815.02,118.599997 815.02,119.16 C815.02,119.720003 815.093333,120.226664 815.24,120.68 C815.386667,121.133336 815.589999,121.523332 815.85,121.85 C816.110001,122.176668 816.426665,122.429999 816.8,122.61 C817.173335,122.790001 817.579998,122.88 818.02,122.88 C818.486669,122.88 818.909998,122.783334 819.29,122.59 C819.670002,122.396666 820.006665,122.166668 820.3,121.9 L821.04,122.98 C820.599998,123.366669 820.110003,123.673332 819.57,123.9 C819.029997,124.126668 818.46667,124.24 817.88,124.24 C817.239997,124.24 816.640003,124.126668 816.08,123.9 C815.519997,123.673332 815.036669,123.343335 814.63,122.91 C814.223331,122.476664 813.903335,121.943337 813.67,121.31 C813.436666,120.676664 813.32,119.960004 813.32,119.16 L813.32,119.16 Z M822.02,119.16 C822.02,118.346663 822.143332,117.623336 822.39,116.99 C822.636668,116.356663 822.966665,115.820002 823.38,115.38 C823.793335,114.939998 824.269997,114.606668 824.81,114.38 C825.350003,114.153332 825.919997,114.04 826.52,114.04 C827.120003,114.04 827.689997,114.153332 828.23,114.38 C828.770003,114.606668 829.246665,114.939998 829.66,115.38 C830.073335,115.820002 830.403332,116.356663 830.65,116.99 C830.896668,117.623336 831.02,118.346663 831.02,119.16 C831.02,119.960004 830.896668,120.676664 830.65,121.31 C830.403332,121.943337 830.073335,122.476664 829.66,122.91 C829.246665,123.343335 828.770003,123.673332 828.23,123.9 C827.689997,124.126668 827.120003,124.24 826.52,124.24 C825.919997,124.24 825.350003,124.126668 824.81,123.9 C824.269997,123.673332 823.793335,123.343335 823.38,122.91 C822.966665,122.476664 822.636668,121.943337 822.39,121.31 C822.143332,120.676664 822.02,119.960004 822.02,119.16 L822.02,119.16 Z M823.72,119.16 C823.72,119.720003 823.786666,120.226664 823.92,120.68 C824.053334,121.133336 824.243332,121.523332 824.49,121.85 C824.736668,122.176668 825.033332,122.429999 825.38,122.61 C825.726668,122.790001 826.106665,122.88 826.52,122.88 C826.933335,122.88 827.313332,122.790001 827.66,122.61 C828.006668,122.429999 828.303332,122.176668 828.55,121.85 C828.796668,121.523332 828.986666,121.133336 829.12,120.68 C829.253334,120.226664 829.32,119.720003 829.32,119.16 C829.32,118.599997 829.253334,118.090002 829.12,117.63 C828.986666,117.169998 828.796668,116.773335 828.55,116.44 C828.303332,116.106665 828.006668,115.850001 827.66,115.67 C827.313332,115.489999 826.933335,115.4 826.52,115.4 C826.106665,115.4 825.726668,115.489999 825.38,115.67 C825.033332,115.850001 824.736668,116.106665 824.49,116.44 C824.243332,116.773335 824.053334,117.169998 823.92,117.63 C823.786666,118.090002 823.72,118.599997 823.72,119.16 L823.72,119.16 Z M833.58,114.28 L834.94,114.28 L835.08,115.68 L835.14,115.68 C835.566669,115.213331 836.029998,114.823335 836.53,114.51 C837.030003,114.196665 837.57333,114.04 838.16,114.04 C838.90667,114.04 839.489998,114.203332 839.91,114.53 C840.330002,114.856668 840.639999,115.31333 840.84,115.9 C841.346669,115.339997 841.856664,114.890002 842.37,114.55 C842.883336,114.209998 843.439997,114.04 844.04,114.04 C845.040005,114.04 845.783331,114.359997 846.27,115 C846.756669,115.640003 847,116.58666 847,117.84 L847,124 L845.36,124 L845.36,118.06 C845.36,117.139995 845.213335,116.476669 844.92,116.07 C844.626665,115.663331 844.173336,115.46 843.56,115.46 C842.826663,115.46 842.013338,115.959995 841.12,116.96 L841.12,124 L839.48,124 L839.48,118.06 C839.48,117.139995 839.333335,116.476669 839.04,116.07 C838.746665,115.663331 838.28667,115.46 837.66,115.46 C836.926663,115.46 836.113338,115.959995 835.22,116.96 L835.22,124 L833.58,124 L833.58,114.28 Z M850.36,121.14 C850.826669,121.633336 851.376663,122.029999 852.01,122.33 C852.643337,122.630001 853.299997,122.78 853.98,122.78 C854.846671,122.78 855.519998,122.583335 856,122.19 C856.480002,121.796665 856.72,121.280003 856.72,120.64 C856.72,120.306665 856.663334,120.023335 856.55,119.79 C856.436666,119.556665 856.283334,119.356668 856.09,119.19 C855.896666,119.023332 855.666668,118.873334 855.4,118.74 C855.133332,118.606666 854.846668,118.466667 854.54,118.32 L852.66,117.5 C852.353332,117.366666 852.040002,117.206668 851.72,117.02 C851.399998,116.833332 851.113335,116.606668 850.86,116.34 C850.606665,116.073332 850.400001,115.756669 850.24,115.39 C850.079999,115.023331 850,114.600002 850,114.12 C850,113.626664 850.103332,113.166669 850.31,112.74 C850.516668,112.313331 850.803332,111.943335 851.17,111.63 C851.536669,111.316665 851.969997,111.073334 852.47,110.9 C852.970002,110.726666 853.519997,110.64 854.12,110.64 C854.906671,110.64 855.63333,110.789998 856.3,111.09 C856.96667,111.390001 857.533331,111.779998 858,112.26 L857.1,113.34 C856.699998,112.953331 856.256669,112.650001 855.77,112.43 C855.283331,112.209999 854.733336,112.1 854.12,112.1 C853.386663,112.1 852.796669,112.269998 852.35,112.61 C851.903331,112.950002 851.68,113.419997 851.68,114.02 C851.68,114.340002 851.743333,114.609999 851.87,114.83 C851.996667,115.050001 852.166666,115.243333 852.38,115.41 C852.593334,115.576667 852.826665,115.723333 853.08,115.85 C853.333335,115.976667 853.593332,116.093333 853.86,116.2 L855.72,117 C856.093335,117.160001 856.446665,117.343332 856.78,117.55 C857.113335,117.756668 857.399999,117.996665 857.64,118.27 C857.880001,118.543335 858.069999,118.863332 858.21,119.23 C858.350001,119.596669 858.42,120.019998 858.42,120.5 C858.42,121.020003 858.316668,121.506664 858.11,121.96 C857.903332,122.413336 857.606669,122.809998 857.22,123.15 C856.833331,123.490002 856.366669,123.756666 855.82,123.95 C855.273331,124.143334 854.653337,124.24 853.96,124.24 C853.039995,124.24 852.186671,124.066668 851.4,123.72 C850.613329,123.373332 849.933336,122.900003 849.36,122.3 L850.36,121.14 Z M860.18,126.68 C860.286667,126.706667 860.406666,126.736666 860.54,126.77 C860.673334,126.803334 860.799999,126.82 860.92,126.82 C861.480003,126.82 861.936665,126.623335 862.29,126.23 C862.643335,125.836665 862.919999,125.340003 863.12,124.74 L863.34,124.02 L859.44,114.28 L861.14,114.28 L863.12,119.66 C863.266667,120.086669 863.423333,120.536664 863.59,121.01 C863.756668,121.483336 863.913333,121.946664 864.06,122.4 L864.14,122.4 C864.286667,121.959998 864.426666,121.500002 864.56,121.02 C864.693334,120.539998 864.826666,120.086669 864.96,119.66 L866.7,114.28 L868.3,114.28 L864.64,124.8 C864.466666,125.280002 864.273334,125.726665 864.06,126.14 C863.846666,126.553335 863.593335,126.909999 863.3,127.21 C863.006665,127.510002 862.673335,127.746666 862.3,127.92 C861.926665,128.093334 861.493336,128.18 861,128.18 C860.773332,128.18 860.566668,128.163333 860.38,128.13 C860.193332,128.096666 860.020001,128.046667 859.86,127.98 L860.18,126.68 Z M869.92,121.8 C870.346669,122.146668 870.783331,122.426666 871.23,122.64 C871.676669,122.853334 872.19333,122.96 872.78,122.96 C873.420003,122.96 873.899998,122.813335 874.22,122.52 C874.540002,122.226665 874.7,121.866669 874.7,121.44 C874.7,121.186665 874.633334,120.966668 874.5,120.78 C874.366666,120.593332 874.196668,120.430001 873.99,120.29 C873.783332,120.149999 873.546668,120.026667 873.28,119.92 C873.013332,119.813333 872.746668,119.706667 872.48,119.6 C872.133332,119.479999 871.786668,119.343334 871.44,119.19 C871.093332,119.036666 870.783335,118.850001 870.51,118.63 C870.236665,118.409999 870.013334,118.153335 869.84,117.86 C869.666666,117.566665 869.58,117.213335 869.58,116.8 C869.58,116.413331 869.656666,116.050002 869.81,115.71 C869.963334,115.369998 870.183332,115.076668 870.47,114.83 C870.756668,114.583332 871.106665,114.390001 871.52,114.25 C871.933335,114.109999 872.399997,114.04 872.92,114.04 C873.533336,114.04 874.096664,114.146666 874.61,114.36 C875.123336,114.573334 875.566665,114.833332 875.94,115.14 L875.16,116.18 C874.826665,115.926665 874.480002,115.720001 874.12,115.56 C873.759998,115.399999 873.366669,115.32 872.94,115.32 C872.326664,115.32 871.876668,115.459999 871.59,115.74 C871.303332,116.020001 871.16,116.346665 871.16,116.72 C871.16,116.946668 871.219999,117.143332 871.34,117.31 C871.460001,117.476667 871.619999,117.623333 871.82,117.75 C872.020001,117.876667 872.249999,117.989999 872.51,118.09 C872.770001,118.19 873.039999,118.293333 873.32,118.4 C873.666668,118.533334 874.016665,118.673333 874.37,118.82 C874.723335,118.966667 875.039999,119.149999 875.32,119.37 C875.600001,119.590001 875.829999,119.859998 876.01,120.18 C876.190001,120.500002 876.28,120.886664 876.28,121.34 C876.28,121.740002 876.203334,122.113332 876.05,122.46 C875.896666,122.806668 875.670002,123.113332 875.37,123.38 C875.069998,123.646668 874.696669,123.856666 874.25,124.01 C873.803331,124.163334 873.293336,124.24 872.72,124.24 C872.026663,124.24 871.36667,124.113335 870.74,123.86 C870.11333,123.606665 869.566669,123.286669 869.1,122.9 L869.92,121.8 Z M878.84,115.62 L877.4,115.62 L877.4,114.38 L878.92,114.28 L879.12,111.56 L880.5,111.56 L880.5,114.28 L883.12,114.28 L883.12,115.62 L880.5,115.62 L880.5,121.02 C880.5,121.620003 880.609999,122.083332 880.83,122.41 C881.050001,122.736668 881.439997,122.9 882,122.9 C882.173334,122.9 882.359999,122.873334 882.56,122.82 C882.760001,122.766666 882.939999,122.706667 883.1,122.64 L883.42,123.88 C883.153332,123.973334 882.863335,124.056666 882.55,124.13 C882.236665,124.203334 881.926668,124.24 881.62,124.24 C881.099997,124.24 880.663335,124.160001 880.31,124 C879.956665,123.839999 879.670001,123.620001 879.45,123.34 C879.229999,123.059999 879.073334,122.720002 878.98,122.32 C878.886666,121.919998 878.84,121.480002 878.84,121 L878.84,115.62 Z M884.4,119.16 C884.4,118.346663 884.523332,117.623336 884.77,116.99 C885.016668,116.356663 885.346665,115.820002 885.76,115.38 C886.173335,114.939998 886.649997,114.606668 887.19,114.38 C887.730003,114.153332 888.299997,114.04 888.9,114.04 C889.500003,114.04 890.069997,114.153332 890.61,114.38 C891.150003,114.606668 891.626665,114.939998 892.04,115.38 C892.453335,115.820002 892.783332,116.356663 893.03,116.99 C893.276668,117.623336 893.4,118.346663 893.4,119.16 C893.4,119.960004 893.276668,120.676664 893.03,121.31 C892.783332,121.943337 892.453335,122.476664 892.04,122.91 C891.626665,123.343335 891.150003,123.673332 890.61,123.9 C890.069997,124.126668 889.500003,124.24 888.9,124.24 C888.299997,124.24 887.730003,124.126668 887.19,123.9 C886.649997,123.673332 886.173335,123.343335 885.76,122.91 C885.346665,122.476664 885.016668,121.943337 884.77,121.31 C884.523332,120.676664 884.4,119.960004 884.4,119.16 L884.4,119.16 Z M886.1,119.16 C886.1,119.720003 886.166666,120.226664 886.3,120.68 C886.433334,121.133336 886.623332,121.523332 886.87,121.85 C887.116668,122.176668 887.413332,122.429999 887.76,122.61 C888.106668,122.790001 888.486665,122.88 888.9,122.88 C889.313335,122.88 889.693332,122.790001 890.04,122.61 C890.386668,122.429999 890.683332,122.176668 890.93,121.85 C891.176668,121.523332 891.366666,121.133336 891.5,120.68 C891.633334,120.226664 891.7,119.720003 891.7,119.16 C891.7,118.599997 891.633334,118.090002 891.5,117.63 C891.366666,117.169998 891.176668,116.773335 890.93,116.44 C890.683332,116.106665 890.386668,115.850001 890.04,115.67 C889.693332,115.489999 889.313335,115.4 888.9,115.4 C888.486665,115.4 888.106668,115.489999 887.76,115.67 C887.413332,115.850001 887.116668,116.106665 886.87,116.44 C886.623332,116.773335 886.433334,117.169998 886.3,117.63 C886.166666,118.090002 886.1,118.599997 886.1,119.16 L886.1,119.16 Z" id="by-comSysto" fill="#FFFFFF"></path>
            <path d="M64.515625,65.78125 C63.2499937,67.187507 61.3984497,68.3203082 58.9609375,69.1796875 C56.5234253,70.0390668 53.851577,70.46875 50.9453125,70.46875 C46.4765402,70.46875 42.9062634,69.1015762 40.234375,66.3671875 C37.5624866,63.6327988 36.1328134,59.8281494 35.9453125,54.953125 L35.921875,52 C35.921875,48.6406082 36.5156191,45.7070438 37.703125,43.1992188 C38.8906309,40.6913937 40.5898327,38.7617255 42.8007812,37.4101562 C45.0117298,36.058587 47.570298,35.3828125 50.4765625,35.3828125 C54.7265838,35.3828125 58.027332,36.355459 60.3789062,38.3007812 C62.7304805,40.2461035 64.1015605,43.1484182 64.4921875,47.0078125 L56.5703125,47.0078125 C56.2890611,45.101553 55.6796922,43.7421916 54.7421875,42.9296875 C53.8046828,42.1171834 52.4765711,41.7109375 50.7578125,41.7109375 C48.6953022,41.7109375 47.1015681,42.5859288 45.9765625,44.3359375 C44.8515569,46.0859462 44.2812501,48.5859212 44.265625,51.8359375 L44.265625,53.8984375 C44.265625,57.3047045 44.8476504,59.8632727 46.0117188,61.5742188 C47.1757871,63.2851648 49.0078,64.140625 51.5078125,64.140625 C53.6484482,64.140625 55.2421823,63.6640673 56.2890625,62.7109375 L56.2890625,57.4140625 L50.5703125,57.4140625 L50.5703125,51.765625 L64.515625,51.765625 L64.515625,65.78125 Z M78.8625,70 L70.659375,70 L70.659375,35.875 L78.8625,35.875 L78.8625,70 Z M111.490625,42.2265625 L101.248438,42.2265625 L101.248438,70 L93.021875,70 L93.021875,42.2265625 L82.9671875,42.2265625 L82.9671875,35.875 L111.490625,35.875 L111.490625,42.2265625 Z M144.282813,70 L136.103125,70 L136.103125,55.75 L123.985938,55.75 L123.985938,70 L115.759375,70 L115.759375,35.875 L123.985938,35.875 L123.985938,49.421875 L136.103125,49.421875 L136.103125,35.875 L144.282813,35.875 L144.282813,70 Z M177.051563,35.875 L177.051563,58.2109375 C177.051563,60.7422002 176.512505,62.9335845 175.434375,64.7851562 C174.356245,66.636728 172.809385,68.0468702 170.79375,69.015625 C168.778115,69.9843798 166.395326,70.46875 163.645313,70.46875 C159.489042,70.46875 156.215637,69.3906358 153.825,67.234375 C151.434363,65.0781142 150.215625,62.1250187 150.16875,58.375 L150.16875,35.875 L158.442188,35.875 L158.442188,58.5390625 C158.535938,62.2734562 160.270296,64.140625 163.645313,64.140625 C165.348446,64.140625 166.637496,63.6718797 167.5125,62.734375 C168.387504,61.7968703 168.825,60.273448 168.825,58.1640625 L168.825,35.875 L177.051563,35.875 Z M182.984375,70 L182.984375,35.875 L195.242188,35.875 C199.632835,35.875 202.972645,36.6796795 205.261719,38.2890625 C207.550793,39.8984455 208.695313,42.2343597 208.695313,45.296875 C208.695313,47.0625088 208.289067,48.5703063 207.476563,49.8203125 C206.664058,51.0703187 205.468758,51.9921845 203.890625,52.5859375 C205.671884,53.0546898 207.039058,53.9296811 207.992188,55.2109375 C208.945317,56.4921939 209.421875,58.0546783 209.421875,59.8984375 C209.421875,63.2422042 208.363292,65.7538979 206.246094,67.4335938 C204.128896,69.1132896 200.992208,69.9687498 196.835938,70 L182.984375,70 Z M191.210938,55.4921875 L191.210938,63.671875 L196.601563,63.671875 C198.085945,63.671875 199.226559,63.3320346 200.023438,62.6523438 C200.820317,61.9726529 201.21875,61.0156312 201.21875,59.78125 C201.21875,56.9374858 199.804702,55.5078126 196.976563,55.4921875 L191.210938,55.4921875 Z M191.210938,50.1015625 L195.5,50.1015625 C197.296884,50.0859374 198.578121,49.7578157 199.34375,49.1171875 C200.109379,48.4765593 200.492188,47.5312562 200.492188,46.28125 C200.492188,44.8437428 200.078129,43.8085969 199.25,43.1757812 C198.421871,42.5429656 197.085947,42.2265625 195.242188,42.2265625 L191.210938,42.2265625 L191.210938,50.1015625 Z M235.725,58.421875 L235.725,70 L227.498438,70 L227.498438,35.875 L241.115625,35.875 C243.725013,35.875 246.033584,36.3554639 248.041406,37.3164062 C250.049229,38.2773486 251.603901,39.6445224 252.705469,41.4179688 C253.807037,43.1914151 254.357813,45.2031137 254.357813,47.453125 C254.357813,50.7812666 253.166418,53.4413963 250.783594,55.4335938 C248.400769,57.4257912 245.131271,58.421875 240.975,58.421875 L235.725,58.421875 Z M235.725,52.0703125 L241.115625,52.0703125 C242.709383,52.0703125 243.924215,51.671879 244.760156,50.875 C245.596098,50.078121 246.014063,48.9531323 246.014063,47.5 C246.014063,45.906242 245.584379,44.6328173 244.725,43.6796875 C243.865621,42.7265577 242.693758,42.2421876 241.209375,42.2265625 L235.725,42.2265625 L235.725,52.0703125 Z M274.751563,63.625 L263.478125,63.625 L261.509375,70 L252.720313,70 L265.235938,35.875 L272.970313,35.875 L285.579688,70 L276.74375,70 L274.751563,63.625 Z M265.446875,57.2734375 L272.782813,57.2734375 L269.103125,45.4375 L265.446875,57.2734375 Z M316.309375,65.78125 C315.043744,67.187507 313.1922,68.3203082 310.754688,69.1796875 C308.317175,70.0390668 305.645327,70.46875 302.739063,70.46875 C298.27029,70.46875 294.700013,69.1015762 292.028125,66.3671875 C289.356237,63.6327988 287.926564,59.8281494 287.739063,54.953125 L287.715625,52 C287.715625,48.6406082 288.309369,45.7070438 289.496875,43.1992188 C290.684381,40.6913937 292.383583,38.7617255 294.594531,37.4101562 C296.80548,36.058587 299.364048,35.3828125 302.270313,35.3828125 C306.520334,35.3828125 309.821082,36.355459 312.172656,38.3007812 C314.524231,40.2461035 315.895311,43.1484182 316.285938,47.0078125 L308.364063,47.0078125 C308.082811,45.101553 307.473442,43.7421916 306.535938,42.9296875 C305.598433,42.1171834 304.270321,41.7109375 302.551563,41.7109375 C300.489052,41.7109375 298.895318,42.5859288 297.770313,44.3359375 C296.645307,46.0859462 296.075,48.5859212 296.059375,51.8359375 L296.059375,53.8984375 C296.059375,57.3047045 296.641401,59.8632727 297.805469,61.5742188 C298.969537,63.2851648 300.80155,64.140625 303.301563,64.140625 C305.442198,64.140625 307.035932,63.6640673 308.082813,62.7109375 L308.082813,57.4140625 L302.364063,57.4140625 L302.364063,51.765625 L316.309375,51.765625 L316.309375,65.78125 Z M343.054688,55.5390625 L330.117188,55.5390625 L330.117188,63.671875 L345.398438,63.671875 L345.398438,70 L321.890625,70 L321.890625,35.875 L345.445313,35.875 L345.445313,42.2265625 L330.117188,42.2265625 L330.117188,49.421875 L343.054688,49.421875 L343.054688,55.5390625 Z M367.151563,60.9296875 C367.151563,59.7265565 366.725786,58.7890659 365.874219,58.1171875 C365.022652,57.4453091 363.526573,56.7500036 361.385938,56.03125 C359.245302,55.3124964 357.495319,54.6171909 356.135938,53.9453125 C351.714041,51.7734266 349.503125,48.7890815 349.503125,44.9921875 C349.503125,43.101553 350.053901,41.433601 351.155469,39.9882812 C352.257037,38.5429615 353.815615,37.4179728 355.83125,36.6132812 C357.846885,35.8085897 360.112488,35.40625 362.628125,35.40625 C365.081262,35.40625 367.280459,35.8437456 369.225781,36.71875 C371.171104,37.5937544 372.682807,38.8398357 373.760938,40.4570312 C374.839068,42.0742268 375.378125,43.9218646 375.378125,46 L367.175,46 C367.175,44.609368 366.749223,43.5312538 365.897656,42.765625 C365.04609,41.9999962 363.893757,41.6171875 362.440625,41.6171875 C360.971868,41.6171875 359.811723,41.941403 358.960156,42.5898438 C358.10859,43.2382845 357.682813,44.062495 357.682813,45.0625 C357.682813,45.9375044 358.151558,46.7304652 359.089063,47.4414062 C360.026567,48.1523473 361.674988,48.886715 364.034375,49.6445312 C366.393762,50.4023475 368.331243,51.2187456 369.846875,52.09375 C373.534394,54.2187606 375.378125,57.1484188 375.378125,60.8828125 C375.378125,63.8672024 374.253136,66.210929 372.003125,67.9140625 C369.753114,69.617196 366.667207,70.46875 362.745313,70.46875 C359.979674,70.46875 357.475793,69.9726612 355.233594,68.9804688 C352.991395,67.9882763 351.303912,66.6289149 350.171094,64.9023438 C349.038276,63.1757726 348.471875,61.1875113 348.471875,58.9375 L356.721875,58.9375 C356.721875,60.7656341 357.194527,62.1132769 358.139844,62.9804688 C359.085161,63.8476606 360.620302,64.28125 362.745313,64.28125 C364.104694,64.28125 365.178902,63.9882842 365.967969,63.4023438 C366.757035,62.8164033 367.151563,61.9921928 367.151563,60.9296875 L367.151563,60.9296875 Z M55.9609375,120.625 L44.6875,120.625 L42.71875,127 L33.9296875,127 L46.4453125,92.875 L54.1796875,92.875 L66.7890625,127 L57.953125,127 L55.9609375,120.625 Z M46.65625,114.273438 L53.9921875,114.273438 L50.3125,102.4375 L46.65625,114.273438 Z M96.440625,92.875 L96.440625,115.210938 C96.440625,117.7422 95.9015679,119.933584 94.8234375,121.785156 C93.7453071,123.636728 92.1984476,125.04687 90.1828125,126.015625 C88.1671774,126.98438 85.7843888,127.46875 83.034375,127.46875 C78.8781042,127.46875 75.6046995,126.390636 73.2140625,124.234375 C70.8234256,122.078114 69.6046877,119.125019 69.5578125,115.375 L69.5578125,92.875 L77.83125,92.875 L77.83125,115.539062 C77.9250005,119.273456 79.6593581,121.140625 83.034375,121.140625 C84.7375085,121.140625 86.0265581,120.67188 86.9015625,119.734375 C87.7765669,118.79687 88.2140625,117.273448 88.2140625,115.164062 L88.2140625,92.875 L96.440625,92.875 Z M129.1625,99.2265625 L118.920313,99.2265625 L118.920313,127 L110.69375,127 L110.69375,99.2265625 L100.639063,99.2265625 L100.639063,92.875 L129.1625,92.875 L129.1625,99.2265625 Z M161.954688,127 L153.775,127 L153.775,112.75 L141.657813,112.75 L141.657813,127 L133.43125,127 L133.43125,92.875 L141.657813,92.875 L141.657813,106.421875 L153.775,106.421875 L153.775,92.875 L161.954688,92.875 L161.954688,127 Z M180.710938,127 L180.710938,92.875 L192.96875,92.875 C197.359397,92.875 200.699207,93.6796795 202.988281,95.2890625 C205.277355,96.8984455 206.421875,99.2343597 206.421875,102.296875 C206.421875,104.062509 206.015629,105.570306 205.203125,106.820312 C204.390621,108.070319 203.19532,108.992185 201.617188,109.585938 C203.398446,110.05469 204.76562,110.929681 205.71875,112.210938 C206.67188,113.492194 207.148438,115.054678 207.148438,116.898438 C207.148438,120.242204 206.089854,122.753898 203.972656,124.433594 C201.855458,126.11329 198.718771,126.96875 194.5625,127 L180.710938,127 Z M188.9375,112.492188 L188.9375,120.671875 L194.328125,120.671875 C195.812507,120.671875 196.953121,120.332035 197.75,119.652344 C198.546879,118.972653 198.945313,118.015631 198.945313,116.78125 C198.945313,113.937486 197.531264,112.507813 194.703125,112.492188 L188.9375,112.492188 Z M188.9375,107.101562 L193.226563,107.101562 C195.023447,107.085937 196.304684,106.757816 197.070313,106.117188 C197.835941,105.476559 198.21875,104.531256 198.21875,103.28125 C198.21875,101.843743 197.804692,100.808597 196.976563,100.175781 C196.148433,99.5429656 194.812509,99.2265625 192.96875,99.2265625 L188.9375,99.2265625 L188.9375,107.101562 Z M231.854688,120.625 L220.58125,120.625 L218.6125,127 L209.823438,127 L222.339063,92.875 L230.073438,92.875 L242.682813,127 L233.846875,127 L231.854688,120.625 Z M222.55,114.273438 L229.885938,114.273438 L226.20625,102.4375 L222.55,114.273438 Z M263.56875,117.929688 C263.56875,116.726556 263.142973,115.789066 262.291406,115.117188 C261.43984,114.445309 259.943761,113.750004 257.803125,113.03125 C255.662489,112.312496 253.912507,111.617191 252.553125,110.945312 C248.131228,108.773427 245.920313,105.789081 245.920313,101.992188 C245.920313,100.101553 246.471088,98.433601 247.572656,96.9882812 C248.674224,95.5429615 250.232803,94.4179728 252.248438,93.6132812 C254.264073,92.8085897 256.529675,92.40625 259.045313,92.40625 C261.49845,92.40625 263.697647,92.8437456 265.642969,93.71875 C267.588291,94.5937544 269.099995,95.8398357 270.178125,97.4570312 C271.256255,99.0742268 271.795313,100.921865 271.795313,103 L263.592188,103 C263.592188,101.609368 263.166411,100.531254 262.314844,99.765625 C261.463277,98.9999962 260.310945,98.6171875 258.857813,98.6171875 C257.389055,98.6171875 256.228911,98.941403 255.377344,99.5898438 C254.525777,100.238284 254.1,101.062495 254.1,102.0625 C254.1,102.937504 254.568745,103.730465 255.50625,104.441406 C256.443755,105.152347 258.092176,105.886715 260.451563,106.644531 C262.810949,107.402348 264.74843,108.218746 266.264063,109.09375 C269.951581,111.218761 271.795313,114.148419 271.795313,117.882812 C271.795313,120.867202 270.670324,123.210929 268.420313,124.914062 C266.170301,126.617196 263.084395,127.46875 259.1625,127.46875 C256.396861,127.46875 253.89298,126.972661 251.650781,125.980469 C249.408583,124.988276 247.721099,123.628915 246.588281,121.902344 C245.455463,120.175773 244.889063,118.187511 244.889063,115.9375 L253.139063,115.9375 C253.139063,117.765634 253.611714,119.113277 254.557031,119.980469 C255.502349,120.847661 257.037489,121.28125 259.1625,121.28125 C260.521882,121.28125 261.59609,120.988284 262.385156,120.402344 C263.174223,119.816403 263.56875,118.992193 263.56875,117.929688 L263.56875,117.929688 Z M285.579688,127 L277.376563,127 L277.376563,92.875 L285.579688,92.875 L285.579688,127 Z M319.707813,115.445312 C319.598437,117.820324 318.957818,119.91796 317.785938,121.738281 C316.614057,123.558603 314.969542,124.968745 312.852344,125.96875 C310.735146,126.968755 308.317201,127.46875 305.598438,127.46875 C301.11404,127.46875 297.582825,126.007827 295.004688,123.085938 C292.42655,120.164048 291.1375,116.039089 291.1375,110.710938 L291.1375,109.023438 C291.1375,105.679671 291.719526,102.753919 292.883594,100.246094 C294.047662,97.7382687 295.723427,95.8007881 297.910938,94.4335938 C300.098449,93.0663994 302.629673,92.3828125 305.504688,92.3828125 C309.645333,92.3828125 312.973425,93.4726454 315.489063,95.6523438 C318.0047,97.8320421 319.434373,100.835918 319.778125,104.664062 L311.575,104.664062 C311.5125,102.585927 310.989068,101.093755 310.004688,100.1875 C309.020308,99.2812455 307.520323,98.828125 305.504688,98.828125 C303.457802,98.828125 301.957817,99.5937423 301.004688,101.125 C300.051558,102.656258 299.551563,105.101546 299.504688,108.460938 L299.504688,110.875 C299.504688,114.515643 299.961714,117.11718 300.875781,118.679688 C301.789848,120.242195 303.364051,121.023438 305.598438,121.023438 C307.489072,121.023438 308.93437,120.578129 309.934375,119.6875 C310.93438,118.796871 311.465625,117.382822 311.528125,115.445312 L319.707813,115.445312 Z M345.378125,115.421875 L345.378125,127 L337.151563,127 L337.151563,92.875 L350.76875,92.875 C353.378138,92.875 355.686709,93.3554639 357.694531,94.3164062 C359.702354,95.2773486 361.257026,96.6445224 362.358594,98.4179688 C363.460162,100.191415 364.010938,102.203114 364.010938,104.453125 C364.010938,107.781267 362.819543,110.441396 360.436719,112.433594 C358.053894,114.425791 354.784396,115.421875 350.628125,115.421875 L345.378125,115.421875 Z M345.378125,109.070312 L350.76875,109.070312 C352.362508,109.070312 353.57734,108.671879 354.413281,107.875 C355.249223,107.078121 355.667188,105.953132 355.667188,104.5 C355.667188,102.906242 355.237504,101.632817 354.378125,100.679688 C353.518746,99.7265577 352.346883,99.2421876 350.8625,99.2265625 L345.378125,99.2265625 L345.378125,109.070312 Z M381.873438,114.953125 L377.420313,114.953125 L377.420313,127 L369.19375,127 L369.19375,92.875 L382.623438,92.875 C386.670333,92.875 389.834364,93.7734285 392.115625,95.5703125 C394.396887,97.3671965 395.5375,99.9062336 395.5375,103.1875 C395.5375,105.562512 395.057036,107.531242 394.096094,109.09375 C393.135152,110.656258 391.63126,111.92187 389.584375,112.890625 L396.709375,126.648438 L396.709375,127 L387.896875,127 L381.873438,114.953125 Z M377.420313,108.601562 L382.623438,108.601562 C384.185945,108.601562 385.361715,108.19141 386.150781,107.371094 C386.939848,106.550777 387.334375,105.406257 387.334375,103.9375 C387.334375,102.468743 386.935942,101.31641 386.139063,100.480469 C385.342184,99.6445271 384.17032,99.2265625 382.623438,99.2265625 L377.420313,99.2265625 L377.420313,108.601562 Z M430.204688,110.640625 C430.204688,113.968767 429.587506,116.91405 428.353125,119.476562 C427.118744,122.039075 425.364855,124.011712 423.091406,125.394531 C420.817958,126.777351 418.22814,127.46875 415.321875,127.46875 C412.415611,127.46875 409.837511,126.800788 407.5875,125.464844 C405.337489,124.1289 403.5836,122.218762 402.325781,119.734375 C401.067963,117.249988 400.407813,114.398454 400.345313,111.179688 L400.345313,109.257812 C400.345313,105.914046 400.958588,102.964857 402.185156,100.410156 C403.411725,97.855456 405.16952,95.8828195 407.458594,94.4921875 C409.747668,93.1015555 412.353111,92.40625 415.275,92.40625 C418.16564,92.40625 420.743739,93.0937431 423.009375,94.46875 C425.275011,95.8437569 427.036713,97.8007686 428.294531,100.339844 C429.55235,102.878919 430.189063,105.789046 430.204688,109.070312 L430.204688,110.640625 Z M421.8375,109.210938 C421.8375,105.820296 421.2711,103.246103 420.138281,101.488281 C419.005463,99.73046 417.384386,98.8515625 415.275,98.8515625 C411.14998,98.8515625 408.970314,101.945282 408.735938,108.132812 L408.7125,110.640625 C408.7125,113.984392 409.267182,116.554679 410.376563,118.351562 C411.485943,120.148446 413.134364,121.046875 415.321875,121.046875 C417.400011,121.046875 419.001557,120.164071 420.126563,118.398438 C421.251568,116.632804 421.821875,114.093767 421.8375,110.78125 L421.8375,109.210938 Z M447.457813,104.21875 L453.035938,92.875 L462.434375,92.875 L452.895313,109.796875 L462.692188,127 L453.2,127 L447.457813,115.445312 L441.715625,127 L432.246875,127 L442.020313,109.796875 L432.504688,92.875 L441.879688,92.875 L447.457813,104.21875 Z M478.65625,107.6875 L484.9375,92.875 L493.820313,92.875 L482.828125,114.742188 L482.828125,127 L474.484375,127 L474.484375,114.742188 L463.515625,92.875 L472.351563,92.875 L478.65625,107.6875 Z" id="GITHUB-PAGES" fill="#FFFFFF"></path>
            <path d="M491.5,54.5 L530.5,21.5" id="Line" stroke="#FFFFFF" stroke-width="5" stroke-linecap="square"></path>
            <path id="Line-decoration-1" d="M530.5,21.5 L520.317601,26.1860174 L524.193255,30.7663351 L530.5,21.5 Z" stroke="#FFFFFF" stroke-width="5" stroke-linecap="square"></path>
            <path d="M491.5,54.5 L574.5,39.5" id="Line-Copy" stroke="#FFFFFF" stroke-width="5" stroke-linecap="square"></path>
            <path id="Line-Copy-decoration-1" d="M574.5,39.5 L563.338636,38.4685164 L564.405688,44.3728707 L574.5,39.5 Z" stroke="#FFFFFF" stroke-width="5" stroke-linecap="square"></path>
            <path d="M491.5,54.5 L584.5,83.5" id="Line-Copy-2" stroke="#FFFFFF" stroke-width="5" stroke-linecap="square"></path>
            <path id="Line-Copy-2-decoration-1" d="M584.5,83.5 L575.082717,77.4209559 L573.296574,83.1489306 L584.5,83.5 Z" stroke="#FFFFFF" stroke-width="5" stroke-linecap="square"></path>
            <path d="M491.5,54.5 L578.5,128.5" id="Line-Copy-3" stroke="#FFFFFF" stroke-width="5" stroke-linecap="square"></path>
            <path id="Line-Copy-3-decoration-1" d="M578.5,128.5 L572.217097,119.217483 L568.329681,123.787822 L578.5,128.5 Z" stroke="#FFFFFF" stroke-width="5" stroke-linecap="square"></path>
            <g id="Group" transform="translate(390.000000, 37.000000)">
                <g id="Shape">
                    <g>
                        <g>
                            <path d="M96.5873786,0 L4.41262136,0 C1.97979612,0 0,1.98983471 0,4.43499564 L0,4.48033115 L0,24.1194774 L0,24.1648129 C0,26.6099738 1.97979612,28.5998085 4.41262136,28.5998085 L4.79700971,28.5998085 L4.79700971,34.9546645 L4.79700971,35 L27.3935534,35 L27.3935534,34.9546645 L27.3935534,28.5998085 L73.462301,28.5998085 L73.462301,35 L75.0047573,35 L75.0057379,35 L89.046699,35 L94.5879709,35 L96.0578641,35 L96.0578641,34.9546645 L96.0578641,28.5998085 L96.5873786,28.5998085 C99.0192233,28.5998085 101,26.6099738 101,24.1648129 L101,24.1194774 L101,4.48033115 L101,4.43499564 C101,1.98884915 99.0192233,0 96.5873786,0 L96.5873786,0 Z" stroke="#FFFFFF" stroke-width="3" fill="#1E9DCC"></path>
                            <path d="M4.41262136,25.5978093 L6.59343689,25.5978093 L7.73875728,25.5978093 L24.4527864,25.5978093 L26.248233,25.5978093 L74.9341553,25.5978093 L76.4050291,25.5978093 L93.1180777,25.5978093 L94.5889515,25.5978093 L96.5873786,25.5978093 C97.3983204,25.5978093 98.0582524,24.934531 98.0582524,24.1194774 L98.0582524,4.43499564 C98.0582524,3.61994199 97.3983204,2.95666376 96.5873786,2.95666376 L4.41262136,2.95666376 C3.60167961,2.95666376 2.94174757,3.61994199 2.94174757,4.43499564 L2.94174757,24.1204629 C2.94174757,24.934531 3.60167961,25.5978093 4.41262136,25.5978093 L4.41262136,25.5978093 Z M88.4563883,11.0786191 C90.2145728,11.0786191 91.6403398,12.5106299 91.6403398,14.2777293 C91.6403398,16.0448287 90.2145728,17.4788106 88.4563883,17.4788106 C86.6982039,17.4788106 85.2724369,16.0448287 85.2724369,14.2777293 C85.2724369,12.5106299 86.6982039,11.0786191 88.4563883,11.0786191 L88.4563883,11.0786191 Z M75.4381748,11.0786191 C77.1963592,11.0786191 78.6231068,12.5106299 78.6231068,14.2777293 C78.6231068,16.0448287 77.1963592,17.4788106 75.4381748,17.4788106 C73.6799903,17.4788106 72.2552039,16.0448287 72.2552039,14.2777293 C72.2552039,12.5106299 73.6799903,11.0786191 75.4381748,11.0786191 L75.4381748,11.0786191 Z M62.4199612,11.0786191 C64.1781456,11.0786191 65.602932,12.5106299 65.602932,14.2777293 C65.602932,16.0448287 64.1781456,17.4788106 62.4199612,17.4788106 C60.6617767,17.4788106 59.2360097,16.0448287 59.2360097,14.2777293 C59.2369903,12.5106299 60.6617767,11.0786191 62.4199612,11.0786191 L62.4199612,11.0786191 Z M49.4027282,11.0786191 C51.1609126,11.0786191 52.5866796,12.5106299 52.5866796,14.2777293 C52.5866796,16.0448287 51.1609126,17.4788106 49.4027282,17.4788106 C47.6445437,17.4788106 46.2187767,16.0448287 46.2187767,14.2777293 C46.2187767,12.5106299 47.6445437,11.0786191 49.4027282,11.0786191 L49.4027282,11.0786191 Z M27.6132039,8.22642413 L30.5549515,8.22642413 L30.5549515,20.3290344 L27.6132039,20.3290344 L27.6132039,8.22642413 L27.6132039,8.22642413 Z M21.2815825,8.22642413 L24.2233301,8.22642413 L24.2233301,20.3290344 L21.2815825,20.3290344 L21.2815825,8.22642413 L21.2815825,8.22642413 Z M14.9489806,8.22642413 L17.8907282,8.22642413 L17.8907282,20.3290344 L14.9489806,20.3290344 L14.9489806,8.22642413 L14.9489806,8.22642413 Z M8.61735922,8.22642413 L11.5591068,8.22642413 L11.5591068,20.3290344 L8.61735922,20.3290344 L8.61735922,8.22642413 L8.61735922,8.22642413 Z" stroke-opacity="0" stroke="#000000" stroke-width="1.00687999" fill="#FFFFFF" opacity="0.93"></path>
                            <path d="M7.73875728,28.554473 L24.4527864,28.554473 L24.4527864,28.554473 L24.4527864,31.9980007 L24.4527864,31.9980007 L7.73875728,31.9980007 L7.73875728,31.9980007 L7.73875728,28.554473 L7.73875728,28.554473 L7.73875728,28.554473 Z" stroke-opacity="0" stroke="#000000" stroke-width="1.00687999" fill="#FFFFFF" opacity="0.7"></path>
                            <path d="M76.4050291,28.554473 L93.1180777,28.554473 L93.1180777,28.554473 L93.1180777,31.9980007 L93.1180777,31.9980007 L76.4050291,31.9980007 L76.4050291,31.9980007 L76.4050291,28.554473 L76.4050291,28.554473 L76.4050291,28.554473 Z" stroke-opacity="0" stroke="#000000" stroke-width="1.00687999" fill="#FFFFFF" opacity="0.7"></path>
                            <path d="M78.6221262,14.2787148 C78.6221262,12.5116632 77.1971077,11.079061 75.4389707,11.0786192 C73.6808338,11.0781774 72.2551028,12.5100634 72.2542237,14.2771148 C72.2533446,16.0441662 73.6776503,17.4774844 75.4357868,17.4788097 C77.1939233,17.480135 78.6203665,16.0489657 78.6221246,14.2819149 L78.6221262,14.2787148 Z" stroke-opacity="0" stroke="#000000" stroke-width="1.00687999" fill="#FFFFFF" opacity="0.5"></path>
                            <path d="M65.6039126,14.2787148 C65.6039126,12.5116632 64.1788941,11.079061 62.4207572,11.0786192 C60.6626202,11.0781774 59.2368892,12.5100634 59.2360101,14.2771148 C59.235131,16.0441662 60.6594367,17.4774844 62.4175732,17.4788097 C64.1757097,17.480135 65.6021529,16.0489657 65.603911,14.2819149 L65.6039126,14.2787148 Z" stroke-opacity="0" stroke="#000000" stroke-width="1.00687999" fill="#FFFFFF" opacity="0.5"></path>
                            <path d="M52.5866796,14.2787148 C52.5866796,12.5116632 51.1616611,11.079061 49.4035241,11.0786192 C47.6453872,11.0781774 46.2196562,12.5100634 46.2187771,14.2771148 C46.217898,16.0441662 47.6422037,17.4774844 49.4003402,17.4788097 C51.1584767,17.480135 52.5849199,16.0489657 52.586678,14.2819149 L52.5866796,14.2787148 Z" stroke-opacity="0" stroke="#000000" stroke-width="1.00687999" fill="#FFFFFF" opacity="0.5"></path>
                        </g>
                    </g>
                </g>
            </g>
        </g>
    </g>
</svg>