<?xml version="1.0" encoding="utf-8"?>
<!-- Generator: Adobe Illustrator 15.0.0, SVG Export Plug-In  -->
<!DOCTYPE svg PUBLIC "-//W3C//DTD SVG 1.1//EN" "http://www.w3.org/Graphics/SVG/1.1/DTD/svg11.dtd" [
	<!ENTITY ns_flows "http://ns.adobe.com/Flows/1.0/">
]>
<svg version="1.1"
	 xmlns="http://www.w3.org/2000/svg" xmlns:xlink="http://www.w3.org/1999/xlink" xmlns:a="http://ns.adobe.com/AdobeSVGViewerExtensions/3.0/"
	 x="0px" y="0px" width="30px" height="25px" viewBox="-1 -1 61 51" enable-background="new -1 -1 61 51" xml:space="preserve">
<defs>
</defs>
<circle fill="#1D9CCB" cx="25.087" cy="25.087" r="25.087"/>
<text transform="matrix(1 0 0 1 15.5347 35.79)" display="none" fill="#FFFFFF" font-family="'SourceSansPro-Bold'" font-size="36">1</text>
<path fill="#FFFFFF" d="M16.867,32.766c1.463-1.368,2.802-2.646,4.014-3.834c1.211-1.188,2.255-2.304,3.132-3.348
	c0.876-1.044,1.56-2.016,2.052-2.916c0.492-0.9,0.738-1.758,0.738-2.574c0-1.128-0.288-1.986-0.864-2.574
	c-0.576-0.588-1.368-0.882-2.376-0.882c-0.84,0-1.584,0.234-2.232,0.702c-0.648,0.468-1.26,1.014-1.836,1.638l-2.88-2.844
	c1.128-1.2,2.28-2.106,3.456-2.718c1.175-0.612,2.58-0.918,4.212-0.918c1.128,0,2.154,0.174,3.078,0.522
	c0.923,0.348,1.722,0.84,2.394,1.476c0.671,0.636,1.188,1.398,1.548,2.286c0.36,0.888,0.54,1.884,0.54,2.988
	c0,0.96-0.204,1.938-0.612,2.934c-0.408,0.996-0.954,1.992-1.638,2.988c-0.684,0.996-1.464,1.993-2.34,2.988
	c-0.876,0.996-1.782,1.974-2.718,2.934c0.576-0.072,1.218-0.138,1.926-0.198c0.708-0.06,1.338-0.09,1.89-0.09h4.608v4.464H16.867
	V32.766z"/>
<path display="none" fill="#FFFFFF" d="M24.283,36.222c-1.872,0-3.456-0.294-4.752-0.882c-1.296-0.587-2.364-1.374-3.204-2.358
	l2.448-3.348c0.696,0.672,1.458,1.224,2.286,1.656c0.828,0.432,1.734,0.648,2.718,0.648c1.127,0,2.028-0.234,2.7-0.702
	c0.672-0.468,1.008-1.134,1.008-1.998c0-0.504-0.09-0.96-0.27-1.368c-0.18-0.408-0.499-0.75-0.954-1.026
	c-0.456-0.276-1.08-0.492-1.872-0.648c-0.792-0.156-1.813-0.234-3.06-0.234v-3.744c1.032,0,1.89-0.072,2.574-0.216
	s1.236-0.354,1.656-0.63c0.42-0.276,0.72-0.6,0.9-0.972c0.18-0.372,0.27-0.786,0.27-1.242c0-0.792-0.24-1.41-0.72-1.854
	c-0.48-0.444-1.176-0.666-2.088-0.666c-0.816,0-1.554,0.18-2.214,0.54c-0.66,0.36-1.35,0.852-2.07,1.476l-2.664-3.24
	c1.056-0.912,2.166-1.625,3.33-2.142c1.164-0.516,2.454-0.774,3.87-0.774c1.175,0,2.25,0.138,3.222,0.414
	c0.972,0.276,1.8,0.684,2.484,1.224c0.684,0.54,1.218,1.194,1.602,1.962c0.383,0.768,0.576,1.656,0.576,2.664
	c0,1.2-0.33,2.214-0.99,3.042c-0.661,0.828-1.602,1.506-2.826,2.034v0.144c1.32,0.384,2.406,1.039,3.258,1.962
	c0.852,0.924,1.278,2.13,1.278,3.618c0,1.057-0.229,1.998-0.684,2.826c-0.456,0.828-1.068,1.524-1.836,2.088
	c-0.769,0.564-1.668,0.996-2.7,1.296C26.526,36.072,25.435,36.222,24.283,36.222z"/>
<path display="none" fill="#FFFFFF" d="M33.679,30.318h-2.628v5.472h-4.932v-5.472h-9.9v-3.636l8.352-13.752h6.48v13.356h2.628
	V30.318z M26.119,26.286v-3.708c0-0.744,0.023-1.602,0.072-2.574c0.048-0.972,0.096-1.818,0.144-2.538H26.19
	c-0.288,0.625-0.588,1.26-0.9,1.908c-0.312,0.648-0.636,1.296-0.972,1.944l-3.024,4.968H26.119z"/>
<path display="none" fill="#FFFFFF" d="M24.427,36.222c-1.872,0-3.456-0.306-4.752-0.918c-1.296-0.612-2.4-1.374-3.312-2.286
	l2.376-3.348c0.696,0.625,1.445,1.158,2.25,1.602c0.804,0.444,1.698,0.666,2.682,0.666c1.175,0,2.111-0.3,2.808-0.9
	c0.696-0.6,1.044-1.488,1.044-2.664c0-1.152-0.33-2.028-0.99-2.628c-0.661-0.6-1.53-0.9-2.61-0.9c-0.336,0-0.636,0.018-0.9,0.054
	c-0.264,0.036-0.522,0.103-0.774,0.198c-0.252,0.096-0.516,0.216-0.792,0.36s-0.582,0.324-0.918,0.54l-2.376-1.512l0.648-11.556
	h12.96v4.464h-8.388l-0.396,4.284c0.432-0.192,0.846-0.33,1.242-0.414c0.396-0.084,0.834-0.126,1.314-0.126
	c0.984,0,1.914,0.144,2.79,0.432c0.876,0.288,1.65,0.72,2.322,1.296c0.671,0.576,1.2,1.308,1.584,2.196
	c0.383,0.888,0.576,1.944,0.576,3.168c0,1.272-0.228,2.4-0.684,3.384c-0.457,0.984-1.068,1.818-1.836,2.502
	c-0.768,0.684-1.662,1.206-2.682,1.566C26.592,36.042,25.53,36.222,24.427,36.222z"/>
<text transform="matrix(1 0 0 1 15.5347 35.79)" display="none" fill="#FFFFFF" font-family="'SourceSansPro-Bold'" font-size="36">1</text>
</svg>
