<?xml version="1.0" encoding="utf-8"?>
<!-- Generator: Adobe Illustrator 15.0.0, SVG Export Plug-In  -->
<!DOCTYPE svg PUBLIC "-//W3C//DTD SVG 1.1//EN" "http://www.w3.org/Graphics/SVG/1.1/DTD/svg11.dtd" [
	<!ENTITY ns_flows "http://ns.adobe.com/Flows/1.0/">
]>
<svg version="1.1"
	 xmlns="http://www.w3.org/2000/svg" xmlns:xlink="http://www.w3.org/1999/xlink" xmlns:a="http://ns.adobe.com/AdobeSVGViewerExtensions/3.0/"
	 x="0px" y="0px" width="907px" height="119px" viewBox="-10.465 -14.907 907 119" enable-background="new -10.465 -14.907 907 119"
	 xml:space="preserve">
<defs>
</defs>
<rect x="30.232" y="60.093" display="none" fill="#1D9CCB" width="152.326" height="31.977"/>
<text transform="matrix(1 0 0 1 0 14.7437)" display="none"><tspan x="0" y="0" display="inline" font-family="'Consolas'" font-size="18">https://</tspan><tspan x="79.172" y="0" display="inline" fill="#1D9CCB" font-family="'Consolas'" font-size="18">comsysto</tspan><tspan x="158.344" y="0" display="inline" font-family="'Consolas'" font-size="18">.github.io/</tspan><tspan x="267.205" y="0" display="inline" fill="#E77806" font-family="'Consolas'" font-size="18">github-pages-basic-auth-proxy</tspan><tspan x="554.203" y="0" display="inline" font-family="'Consolas'" font-size="18">/</tspan><tspan x="564.099" y="0" display="inline" fill="#99C21F" font-family="'Consolas'" font-size="18">086e41eb6ff...0abdc71981e6fe88e3</tspan><tspan x="880.787" y="0" display="inline" font-family="'Consolas'" font-size="18">/</tspan></text>
<text transform="matrix(1 0 0 1 41.6978 81.4419)" display="none" fill="#FFFFFF" font-family="'SourceSansPro-Light'" font-size="18">Repository-Owner</text>
<line display="none" fill="none" stroke="#1D9CCB" stroke-width="3" stroke-miterlimit="10" x1="92.465" y1="68.232" x2="120.372" y2="21.721"/>
<line display="none" fill="none" stroke="#1D9CCB" stroke-width="3" stroke-miterlimit="10" x1="77.163" y1="21.721" x2="160.302" y2="21.721"/>
<rect x="252.884" y="60.092" display="none" fill="#E77806" width="152.326" height="31.977"/>
<text transform="matrix(1 0 0 1 264.3491 81.4419)" display="none" fill="#FFFFFF" font-family="'SourceSansPro-Light'" font-size="18">Repository-Name</text>
<line display="none" fill="none" stroke="#E77806" stroke-width="3" stroke-miterlimit="10" x1="315.116" y1="68.233" x2="343.023" y2="21.721"/>
<line display="none" fill="none" stroke="#E77806" stroke-width="3" stroke-miterlimit="10" x1="264.349" y1="21.721" x2="553.489" y2="21.721"/>
<rect x="542.836" y="60.092" display="none" fill="#99C21F" width="108.326" height="31.977"/>
<text transform="matrix(1 0 0 1 557.3022 81.4419)" display="none" fill="#FFFFFF" font-family="'SourceSansPro-Light'" font-size="18">Obfuscator</text>
<line display="none" fill="none" stroke="#99C21F" stroke-width="3" stroke-miterlimit="10" x1="605.069" y1="68.233" x2="632.976" y2="21.721"/>
<line display="none" fill="none" stroke="#99C21F" stroke-width="3" stroke-miterlimit="10" x1="564.535" y1="21.721" x2="880.233" y2="21.721"/>
<rect x="30.232" y="60.093" fill="#1D9CCB" width="152.326" height="31.977"/>
<path d="M8.499,14.744H6.97V9.11c0-0.68-0.127-1.188-0.382-1.525S5.968,7.08,5.493,7.08c-0.205,0-0.397,0.028-0.576,0.083
	s-0.365,0.152-0.558,0.29S3.955,7.777,3.727,8.011S3.234,8.539,2.936,8.89v5.854H1.406V2.325h1.529v3.595L2.883,7.308
	c0.24-0.287,0.476-0.529,0.708-0.725s0.463-0.356,0.694-0.479S4.752,5.893,4.992,5.84s0.489-0.079,0.747-0.079
	c0.879,0,1.559,0.268,2.039,0.804s0.721,1.343,0.721,2.421V14.744z"/>
<path d="M18.413,14.621c-0.346,0.088-0.703,0.151-1.072,0.189s-0.744,0.057-1.125,0.057c-1.107,0-1.934-0.25-2.479-0.751
	s-0.817-1.27-0.817-2.307V7.203h-2.47V5.919h2.47V3.494l1.529-0.396v2.821h3.964v1.283h-3.964v4.482
	c0,0.633,0.168,1.106,0.505,1.419s0.833,0.47,1.49,0.47c0.281,0,0.589-0.022,0.923-0.066s0.683-0.113,1.046-0.207V14.621z"/>
<path d="M28.31,14.621c-0.346,0.088-0.703,0.151-1.072,0.189s-0.744,0.057-1.125,0.057c-1.107,0-1.934-0.25-2.479-0.751
	s-0.817-1.27-0.817-2.307V7.203h-2.47V5.919h2.47V3.494l1.529-0.396v2.821h3.964v1.283h-3.964v4.482
	c0,0.633,0.168,1.106,0.505,1.419s0.833,0.47,1.49,0.47c0.281,0,0.589-0.022,0.923-0.066s0.683-0.113,1.046-0.207V14.621z"/>
<path d="M38.637,10.173c0,0.785-0.11,1.471-0.33,2.057s-0.523,1.072-0.91,1.459s-0.844,0.677-1.371,0.87s-1.099,0.29-1.714,0.29
	c-0.281,0-0.561-0.015-0.839-0.044s-0.561-0.079-0.848-0.149v3.691h-1.529V5.919h1.362l0.097,1.477
	c0.439-0.604,0.908-1.027,1.406-1.27s1.037-0.365,1.617-0.365c0.504,0,0.946,0.105,1.327,0.316s0.7,0.508,0.958,0.892
	s0.451,0.847,0.58,1.389S38.637,9.505,38.637,10.173z M37.072,10.244c0-0.463-0.034-0.888-0.101-1.274s-0.174-0.718-0.321-0.993
	s-0.334-0.491-0.563-0.646s-0.501-0.233-0.817-0.233c-0.193,0-0.39,0.031-0.589,0.092s-0.406,0.164-0.62,0.308
	s-0.439,0.334-0.677,0.571s-0.491,0.532-0.76,0.883v4.28c0.281,0.117,0.577,0.209,0.888,0.277s0.615,0.101,0.914,0.101
	c0.826,0,1.474-0.28,1.942-0.839S37.072,11.369,37.072,10.244z"/>
<path d="M47.979,12.335c0,0.311-0.053,0.589-0.158,0.835s-0.249,0.464-0.431,0.655s-0.393,0.353-0.633,0.488
	s-0.497,0.246-0.769,0.334s-0.552,0.152-0.839,0.193s-0.568,0.062-0.844,0.062c-0.598,0-1.147-0.026-1.648-0.079
	s-0.992-0.138-1.472-0.255v-1.406c0.516,0.146,1.028,0.258,1.538,0.334s1.017,0.114,1.521,0.114c0.732,0,1.274-0.1,1.626-0.299
	s0.527-0.483,0.527-0.853c0-0.158-0.028-0.3-0.083-0.426s-0.157-0.246-0.303-0.36s-0.374-0.233-0.681-0.356
	s-0.728-0.264-1.261-0.422c-0.398-0.117-0.766-0.25-1.103-0.4s-0.628-0.327-0.875-0.532s-0.439-0.445-0.58-0.721
	S41.3,8.641,41.3,8.266c0-0.246,0.057-0.516,0.171-0.809s0.309-0.565,0.584-0.817s0.647-0.461,1.116-0.628s1.055-0.25,1.758-0.25
	c0.346,0,0.729,0.019,1.151,0.057s0.861,0.104,1.318,0.198v1.362c-0.48-0.117-0.936-0.204-1.367-0.259s-0.804-0.083-1.121-0.083
	c-0.381,0-0.702,0.029-0.962,0.088s-0.472,0.139-0.633,0.242s-0.277,0.223-0.347,0.36s-0.105,0.286-0.105,0.444
	s0.031,0.302,0.092,0.431s0.176,0.253,0.343,0.374s0.4,0.24,0.699,0.36s0.688,0.25,1.169,0.391c0.521,0.152,0.961,0.312,1.318,0.479
	s0.647,0.353,0.87,0.558s0.382,0.437,0.479,0.694S47.979,12.007,47.979,12.335z"/>
<path d="M54.431,5.761c0.182,0,0.354,0.037,0.519,0.11s0.308,0.171,0.431,0.294s0.221,0.267,0.294,0.431s0.11,0.337,0.11,0.519
	c0,0.188-0.037,0.362-0.11,0.523s-0.171,0.303-0.294,0.426s-0.267,0.22-0.431,0.29s-0.337,0.105-0.519,0.105
	c-0.188,0-0.362-0.035-0.523-0.105s-0.303-0.167-0.426-0.29s-0.22-0.265-0.29-0.426s-0.105-0.335-0.105-0.523
	c0-0.182,0.035-0.354,0.105-0.519s0.167-0.308,0.29-0.431s0.265-0.221,0.426-0.294S54.243,5.761,54.431,5.761z M54.431,12.204
	c0.182,0,0.354,0.037,0.519,0.11s0.308,0.171,0.431,0.294s0.221,0.267,0.294,0.431s0.11,0.337,0.11,0.519
	c0,0.188-0.037,0.362-0.11,0.523s-0.171,0.303-0.294,0.426s-0.267,0.22-0.431,0.29s-0.337,0.105-0.519,0.105
	c-0.188,0-0.362-0.035-0.523-0.105s-0.303-0.167-0.426-0.29s-0.22-0.265-0.29-0.426s-0.105-0.335-0.105-0.523
	c0-0.182,0.035-0.354,0.105-0.519s0.167-0.308,0.29-0.431s0.265-0.221,0.426-0.294S54.243,12.204,54.431,12.204z"/>
<path d="M67.878,2.325l-6.029,14.309H60.39l6.029-14.309H67.878z"/>
<path d="M77.774,2.325l-6.029,14.309h-1.459l6.029-14.309H77.774z"/>
<path fill="#1D9CCB" d="M87.434,14.418c-0.398,0.152-0.807,0.265-1.226,0.338s-0.851,0.11-1.296,0.11
	c-1.395,0-2.468-0.378-3.221-1.134s-1.129-1.86-1.129-3.313c0-0.697,0.108-1.33,0.325-1.898s0.521-1.055,0.914-1.459
	s0.861-0.716,1.406-0.936s1.146-0.33,1.802-0.33c0.457,0,0.885,0.032,1.283,0.097s0.779,0.17,1.143,0.316v1.459
	c-0.381-0.199-0.769-0.344-1.165-0.435s-0.804-0.136-1.226-0.136c-0.393,0-0.763,0.075-1.112,0.224s-0.655,0.365-0.918,0.646
	s-0.472,0.624-0.624,1.028s-0.229,0.861-0.229,1.371c0,1.066,0.259,1.865,0.778,2.395s1.238,0.795,2.158,0.795
	c0.416,0,0.819-0.047,1.208-0.141s0.766-0.234,1.129-0.422V14.418z"/>
<path fill="#1D9CCB" d="M98.156,10.261c0,0.686-0.097,1.314-0.29,1.885s-0.472,1.061-0.835,1.468s-0.806,0.724-1.327,0.949
	s-1.113,0.338-1.775,0.338c-0.633,0-1.2-0.098-1.701-0.294s-0.926-0.485-1.274-0.866s-0.615-0.853-0.8-1.415
	s-0.277-1.21-0.277-1.942c0-0.686,0.097-1.311,0.29-1.876s0.472-1.052,0.835-1.459s0.806-0.724,1.327-0.949s1.113-0.338,1.775-0.338
	c0.633,0,1.2,0.098,1.701,0.294s0.926,0.483,1.274,0.861s0.615,0.848,0.8,1.411S98.156,9.535,98.156,10.261z M96.592,10.332
	c0-0.545-0.06-1.021-0.18-1.428s-0.292-0.747-0.514-1.02s-0.494-0.478-0.813-0.615s-0.675-0.207-1.068-0.207
	c-0.457,0-0.848,0.089-1.173,0.268s-0.592,0.417-0.8,0.716s-0.36,0.646-0.457,1.042s-0.145,0.81-0.145,1.244
	c0,0.545,0.06,1.022,0.18,1.433s0.292,0.751,0.514,1.024s0.492,0.478,0.809,0.615s0.674,0.207,1.072,0.207
	c0.457,0,0.848-0.089,1.173-0.268s0.592-0.417,0.8-0.716s0.36-0.646,0.457-1.042S96.592,10.771,96.592,10.332z"/>
<path fill="#1D9CCB" d="M106.664,14.744V8.407c0-0.275-0.01-0.501-0.031-0.677s-0.053-0.315-0.097-0.417s-0.1-0.174-0.167-0.215
	s-0.151-0.062-0.25-0.062c-0.117,0-0.226,0.035-0.325,0.105s-0.207,0.185-0.321,0.343s-0.24,0.368-0.378,0.628
	s-0.3,0.582-0.488,0.962v5.669h-1.397v-6.17c0-0.322-0.01-0.583-0.031-0.782s-0.053-0.354-0.097-0.466s-0.101-0.188-0.171-0.229
	s-0.155-0.062-0.255-0.062c-0.105,0-0.205,0.029-0.299,0.088s-0.198,0.164-0.312,0.316s-0.242,0.36-0.382,0.624
	s-0.308,0.601-0.501,1.011v5.669h-1.406V5.919h1.169l0.07,1.679c0.152-0.334,0.3-0.618,0.444-0.853s0.292-0.423,0.444-0.567
	s0.315-0.249,0.488-0.316s0.365-0.101,0.576-0.101c0.475,0,0.835,0.155,1.081,0.466s0.369,0.791,0.369,1.441
	c0.141-0.305,0.278-0.576,0.413-0.813s0.28-0.437,0.435-0.598s0.327-0.284,0.514-0.369s0.404-0.127,0.65-0.127
	c1.107,0,1.661,0.853,1.661,2.558v6.425H106.664z"/>
<path fill="#1D9CCB" d="M117.255,12.335c0,0.311-0.053,0.589-0.158,0.835s-0.249,0.464-0.431,0.655s-0.393,0.353-0.633,0.488
	s-0.497,0.246-0.769,0.334s-0.552,0.152-0.839,0.193s-0.568,0.062-0.844,0.062c-0.598,0-1.147-0.026-1.648-0.079
	s-0.992-0.138-1.472-0.255v-1.406c0.516,0.146,1.028,0.258,1.538,0.334s1.017,0.114,1.521,0.114c0.732,0,1.274-0.1,1.626-0.299
	s0.527-0.483,0.527-0.853c0-0.158-0.028-0.3-0.083-0.426s-0.157-0.246-0.303-0.36s-0.374-0.233-0.681-0.356
	s-0.728-0.264-1.261-0.422c-0.398-0.117-0.766-0.25-1.103-0.4s-0.628-0.327-0.875-0.532s-0.439-0.445-0.58-0.721
	s-0.211-0.601-0.211-0.976c0-0.246,0.057-0.516,0.171-0.809s0.309-0.565,0.584-0.817s0.647-0.461,1.116-0.628s1.055-0.25,1.758-0.25
	c0.346,0,0.729,0.019,1.151,0.057s0.861,0.104,1.318,0.198v1.362c-0.48-0.117-0.936-0.204-1.367-0.259s-0.804-0.083-1.121-0.083
	c-0.381,0-0.702,0.029-0.962,0.088s-0.472,0.139-0.633,0.242s-0.277,0.223-0.347,0.36s-0.105,0.286-0.105,0.444
	s0.031,0.302,0.092,0.431s0.176,0.253,0.343,0.374s0.4,0.24,0.699,0.36s0.688,0.25,1.169,0.391c0.521,0.152,0.961,0.312,1.318,0.479
	s0.647,0.353,0.87,0.558s0.382,0.437,0.479,0.694S117.255,12.007,117.255,12.335z"/>
<path fill="#1D9CCB" d="M128.013,5.919l-3.006,7.893c-0.311,0.803-0.631,1.494-0.962,2.074s-0.693,1.056-1.085,1.428
	s-0.823,0.646-1.292,0.822s-0.993,0.264-1.573,0.264c-0.152,0-0.29-0.003-0.413-0.009s-0.258-0.015-0.404-0.026v-1.389
	c0.129,0.018,0.27,0.034,0.422,0.048s0.313,0.022,0.483,0.022c0.281,0,0.543-0.041,0.787-0.123s0.473-0.215,0.69-0.4
	s0.425-0.423,0.624-0.716s0.393-0.647,0.58-1.063l-3.524-8.824h1.74l2.232,5.836l0.448,1.371l0.51-1.406l2.065-5.801H128.013z"/>
<path fill="#1D9CCB" d="M137.048,12.335c0,0.311-0.053,0.589-0.158,0.835s-0.249,0.464-0.431,0.655s-0.393,0.353-0.633,0.488
	s-0.497,0.246-0.769,0.334s-0.552,0.152-0.839,0.193s-0.568,0.062-0.844,0.062c-0.598,0-1.147-0.026-1.648-0.079
	s-0.992-0.138-1.472-0.255v-1.406c0.516,0.146,1.028,0.258,1.538,0.334s1.017,0.114,1.521,0.114c0.732,0,1.274-0.1,1.626-0.299
	s0.527-0.483,0.527-0.853c0-0.158-0.028-0.3-0.083-0.426s-0.157-0.246-0.303-0.36s-0.374-0.233-0.681-0.356
	s-0.728-0.264-1.261-0.422c-0.398-0.117-0.766-0.25-1.103-0.4s-0.628-0.327-0.875-0.532s-0.439-0.445-0.58-0.721
	s-0.211-0.601-0.211-0.976c0-0.246,0.057-0.516,0.171-0.809s0.309-0.565,0.584-0.817s0.647-0.461,1.116-0.628s1.055-0.25,1.758-0.25
	c0.346,0,0.729,0.019,1.151,0.057s0.861,0.104,1.318,0.198v1.362c-0.48-0.117-0.936-0.204-1.367-0.259s-0.804-0.083-1.121-0.083
	c-0.381,0-0.702,0.029-0.962,0.088s-0.472,0.139-0.633,0.242s-0.277,0.223-0.347,0.36s-0.105,0.286-0.105,0.444
	s0.031,0.302,0.092,0.431s0.176,0.253,0.343,0.374s0.4,0.24,0.699,0.36s0.688,0.25,1.169,0.391c0.521,0.152,0.961,0.312,1.318,0.479
	s0.647,0.353,0.87,0.558s0.382,0.437,0.479,0.694S137.048,12.007,137.048,12.335z"/>
<path fill="#1D9CCB" d="M147.067,14.621c-0.346,0.088-0.703,0.151-1.072,0.189s-0.744,0.057-1.125,0.057
	c-1.107,0-1.934-0.25-2.479-0.751s-0.817-1.27-0.817-2.307V7.203h-2.47V5.919h2.47V3.494l1.529-0.396v2.821h3.964v1.283h-3.964
	v4.482c0,0.633,0.168,1.106,0.505,1.419s0.833,0.47,1.49,0.47c0.281,0,0.589-0.022,0.923-0.066s0.683-0.113,1.046-0.207V14.621z"/>
<path fill="#1D9CCB" d="M157.535,10.261c0,0.686-0.097,1.314-0.29,1.885s-0.472,1.061-0.835,1.468s-0.806,0.724-1.327,0.949
	s-1.113,0.338-1.775,0.338c-0.633,0-1.2-0.098-1.701-0.294s-0.926-0.485-1.274-0.866s-0.615-0.853-0.8-1.415
	s-0.277-1.21-0.277-1.942c0-0.686,0.097-1.311,0.29-1.876s0.472-1.052,0.835-1.459s0.806-0.724,1.327-0.949s1.113-0.338,1.775-0.338
	c0.633,0,1.2,0.098,1.701,0.294s0.926,0.483,1.274,0.861s0.615,0.848,0.8,1.411S157.535,9.535,157.535,10.261z M155.971,10.332
	c0-0.545-0.06-1.021-0.18-1.428s-0.292-0.747-0.514-1.02s-0.494-0.478-0.813-0.615s-0.675-0.207-1.068-0.207
	c-0.457,0-0.848,0.089-1.173,0.268s-0.592,0.417-0.8,0.716s-0.36,0.646-0.457,1.042s-0.145,0.81-0.145,1.244
	c0,0.545,0.06,1.022,0.18,1.433s0.292,0.751,0.514,1.024s0.492,0.478,0.809,0.615s0.674,0.207,1.072,0.207
	c0.457,0,0.848-0.089,1.173-0.268s0.592-0.417,0.8-0.716s0.36-0.646,0.457-1.042S155.971,10.771,155.971,10.332z"/>
<path d="M163.222,11.975c0.199,0,0.388,0.038,0.567,0.114s0.334,0.182,0.466,0.316s0.236,0.292,0.312,0.47s0.114,0.371,0.114,0.576
	c0,0.199-0.038,0.387-0.114,0.563s-0.18,0.33-0.312,0.461s-0.287,0.236-0.466,0.312s-0.368,0.114-0.567,0.114
	c-0.205,0-0.396-0.038-0.571-0.114s-0.33-0.18-0.461-0.312s-0.236-0.286-0.312-0.461s-0.114-0.363-0.114-0.563
	c0-0.205,0.038-0.397,0.114-0.576s0.18-0.335,0.312-0.47s0.286-0.24,0.461-0.316S163.017,11.975,163.222,11.975z"/>
<path d="M176.001,7.167c0.164,0.205,0.292,0.444,0.382,0.716s0.136,0.567,0.136,0.883c0,0.457-0.083,0.875-0.25,1.252
	s-0.403,0.702-0.708,0.971s-0.669,0.479-1.094,0.628s-0.892,0.224-1.402,0.224c-0.369,0-0.715-0.04-1.037-0.119
	s-0.577-0.177-0.765-0.294c-0.111,0.164-0.205,0.319-0.281,0.466s-0.114,0.311-0.114,0.492c0,0.223,0.107,0.407,0.321,0.554
	s0.497,0.226,0.848,0.237l2.32,0.088c0.439,0.012,0.845,0.067,1.217,0.167s0.691,0.243,0.958,0.431s0.475,0.419,0.624,0.694
	s0.224,0.595,0.224,0.958c0,0.393-0.085,0.765-0.255,1.116s-0.432,0.661-0.787,0.927s-0.804,0.479-1.349,0.637
	s-1.192,0.237-1.942,0.237c-0.715,0-1.323-0.057-1.824-0.171s-0.913-0.272-1.235-0.475s-0.557-0.442-0.703-0.721
	s-0.22-0.584-0.22-0.918c0-0.428,0.1-0.803,0.299-1.125s0.507-0.633,0.923-0.932c-0.152-0.07-0.284-0.158-0.396-0.264
	s-0.202-0.221-0.272-0.347s-0.123-0.259-0.158-0.4s-0.053-0.278-0.053-0.413c0-0.381,0.089-0.729,0.268-1.046
	s0.391-0.615,0.637-0.896c-0.111-0.135-0.209-0.267-0.294-0.396s-0.158-0.268-0.22-0.417s-0.108-0.311-0.141-0.483
	s-0.048-0.371-0.048-0.593c0-0.457,0.083-0.875,0.25-1.252s0.401-0.702,0.703-0.971s0.665-0.479,1.09-0.628s0.895-0.224,1.411-0.224
	c0.217,0,0.425,0.015,0.624,0.044s0.375,0.067,0.527,0.114h3.199v1.248H176.001z M170.692,16.018c0,0.416,0.217,0.719,0.65,0.91
	s1.037,0.286,1.811,0.286c0.486,0,0.895-0.044,1.226-0.132s0.598-0.204,0.8-0.347s0.347-0.308,0.435-0.492s0.132-0.374,0.132-0.567
	c0-0.357-0.146-0.621-0.439-0.791s-0.741-0.27-1.345-0.299l-2.303-0.079c-0.193,0.129-0.353,0.255-0.479,0.378
	s-0.224,0.248-0.294,0.374s-0.12,0.252-0.149,0.378S170.692,15.889,170.692,16.018z M171.158,8.802c0,0.281,0.047,0.539,0.141,0.773
	s0.226,0.434,0.396,0.598s0.371,0.292,0.602,0.382s0.488,0.136,0.769,0.136c0.305,0,0.576-0.051,0.813-0.154
	s0.437-0.242,0.598-0.417s0.284-0.378,0.369-0.606s0.127-0.466,0.127-0.712c0-0.281-0.047-0.539-0.141-0.773
	s-0.226-0.434-0.396-0.598s-0.371-0.292-0.602-0.382s-0.488-0.136-0.769-0.136c-0.305,0-0.576,0.053-0.813,0.158
	s-0.437,0.245-0.598,0.417s-0.284,0.374-0.369,0.602S171.158,8.556,171.158,8.802z"/>
<path d="M182.549,7.185h-2.61V5.919h4.157v7.55h2.628v1.274h-7.075v-1.274h2.9V7.185z M183.085,2.219
	c0.17,0,0.328,0.031,0.475,0.092s0.274,0.148,0.382,0.259s0.193,0.239,0.255,0.382s0.092,0.3,0.092,0.47
	c0,0.164-0.031,0.319-0.092,0.466s-0.146,0.275-0.255,0.387s-0.236,0.198-0.382,0.259s-0.305,0.092-0.475,0.092
	s-0.328-0.031-0.475-0.092s-0.274-0.148-0.382-0.259s-0.193-0.24-0.255-0.387s-0.092-0.302-0.092-0.466
	c0-0.17,0.031-0.327,0.092-0.47s0.146-0.271,0.255-0.382s0.236-0.198,0.382-0.259S182.915,2.219,183.085,2.219z"/>
<path d="M196.55,14.621c-0.346,0.088-0.703,0.151-1.072,0.189s-0.744,0.057-1.125,0.057c-1.107,0-1.934-0.25-2.479-0.751
	s-0.817-1.27-0.817-2.307V7.203h-2.47V5.919h2.47V3.494l1.529-0.396v2.821h3.964v1.283h-3.964v4.482
	c0,0.633,0.168,1.106,0.505,1.419s0.833,0.47,1.49,0.47c0.281,0,0.589-0.022,0.923-0.066s0.683-0.113,1.046-0.207V14.621z"/>
<path d="M206.429,14.744h-1.529V9.11c0-0.68-0.127-1.188-0.382-1.525s-0.62-0.505-1.094-0.505c-0.205,0-0.397,0.028-0.576,0.083
	s-0.365,0.152-0.558,0.29s-0.404,0.324-0.633,0.558s-0.492,0.527-0.791,0.879v5.854h-1.529V2.325h1.529v3.595l-0.053,1.389
	c0.24-0.287,0.476-0.529,0.708-0.725s0.463-0.356,0.694-0.479s0.467-0.211,0.708-0.264s0.489-0.079,0.747-0.079
	c0.879,0,1.559,0.268,2.039,0.804s0.721,1.343,0.721,2.421V14.744z"/>
<path d="M216.325,14.744h-1.371l-0.053-1.424c-0.264,0.305-0.514,0.558-0.751,0.76s-0.473,0.365-0.708,0.488
	s-0.47,0.209-0.708,0.259s-0.488,0.075-0.751,0.075c-0.908,0-1.594-0.267-2.057-0.8s-0.694-1.339-0.694-2.417V5.919h1.529v5.643
	c0,1.354,0.51,2.03,1.529,2.03c0.188,0,0.371-0.028,0.549-0.083s0.366-0.152,0.563-0.29s0.407-0.324,0.633-0.558
	s0.479-0.53,0.76-0.888V5.919h1.529V14.744z"/>
<path d="M226.67,10.173c0,0.732-0.101,1.387-0.303,1.964s-0.489,1.066-0.861,1.468s-0.825,0.709-1.358,0.923
	s-1.134,0.321-1.802,0.321c-0.521,0-1.055-0.05-1.6-0.149s-1.084-0.258-1.617-0.475v-11.9h1.529v3.419l-0.07,1.635
	c0.439-0.592,0.91-1.009,1.411-1.252s1.039-0.365,1.613-0.365c0.504,0,0.946,0.105,1.327,0.316s0.7,0.508,0.958,0.892
	s0.451,0.847,0.58,1.389S226.67,9.505,226.67,10.173z M225.105,10.244c0-0.463-0.034-0.888-0.101-1.274s-0.174-0.718-0.321-0.993
	s-0.334-0.491-0.563-0.646s-0.501-0.233-0.817-0.233c-0.193,0-0.39,0.031-0.589,0.092s-0.406,0.164-0.62,0.308
	s-0.439,0.334-0.677,0.571s-0.491,0.532-0.76,0.883v4.28c0.299,0.117,0.604,0.209,0.914,0.277s0.606,0.101,0.888,0.101
	c0.352,0,0.687-0.056,1.006-0.167s0.601-0.297,0.844-0.558s0.437-0.606,0.58-1.037S225.105,10.882,225.105,10.244z"/>
<path d="M232.497,11.975c0.199,0,0.388,0.038,0.567,0.114s0.334,0.182,0.466,0.316s0.236,0.292,0.312,0.47s0.114,0.371,0.114,0.576
	c0,0.199-0.038,0.387-0.114,0.563s-0.18,0.33-0.312,0.461s-0.287,0.236-0.466,0.312s-0.368,0.114-0.567,0.114
	c-0.205,0-0.396-0.038-0.571-0.114s-0.33-0.18-0.461-0.312s-0.236-0.286-0.312-0.461s-0.114-0.363-0.114-0.563
	c0-0.205,0.038-0.397,0.114-0.576s0.18-0.335,0.312-0.47s0.286-0.24,0.461-0.316S232.292,11.975,232.497,11.975z"/>
<path d="M241.928,7.185h-2.61V5.919h4.157v7.55h2.628v1.274h-7.075v-1.274h2.9V7.185z M242.464,2.219
	c0.17,0,0.328,0.031,0.475,0.092s0.274,0.148,0.382,0.259s0.193,0.239,0.255,0.382s0.092,0.3,0.092,0.47
	c0,0.164-0.031,0.319-0.092,0.466s-0.146,0.275-0.255,0.387s-0.236,0.198-0.382,0.259s-0.305,0.092-0.475,0.092
	s-0.328-0.031-0.475-0.092s-0.274-0.148-0.382-0.259s-0.193-0.24-0.255-0.387s-0.092-0.302-0.092-0.466
	c0-0.17,0.031-0.327,0.092-0.47s0.146-0.271,0.255-0.382s0.236-0.198,0.382-0.259S242.294,2.219,242.464,2.219z"/>
<path d="M256.5,10.261c0,0.686-0.097,1.314-0.29,1.885s-0.472,1.061-0.835,1.468s-0.806,0.724-1.327,0.949s-1.113,0.338-1.775,0.338
	c-0.633,0-1.2-0.098-1.701-0.294s-0.926-0.485-1.274-0.866s-0.615-0.853-0.8-1.415s-0.277-1.21-0.277-1.942
	c0-0.686,0.097-1.311,0.29-1.876s0.472-1.052,0.835-1.459s0.806-0.724,1.327-0.949s1.113-0.338,1.775-0.338
	c0.633,0,1.2,0.098,1.701,0.294s0.926,0.483,1.274,0.861s0.615,0.848,0.8,1.411S256.5,9.535,256.5,10.261z M254.936,10.332
	c0-0.545-0.06-1.021-0.18-1.428s-0.292-0.747-0.514-1.02s-0.494-0.478-0.813-0.615s-0.675-0.207-1.068-0.207
	c-0.457,0-0.848,0.089-1.173,0.268s-0.592,0.417-0.8,0.716s-0.36,0.646-0.457,1.042s-0.145,0.81-0.145,1.244
	c0,0.545,0.06,1.022,0.18,1.433s0.292,0.751,0.514,1.024s0.492,0.478,0.809,0.615s0.674,0.207,1.072,0.207
	c0.457,0,0.848-0.089,1.173-0.268s0.592-0.417,0.8-0.716s0.36-0.646,0.457-1.042S254.936,10.771,254.936,10.332z"/>
<path d="M265.808,2.325l-6.029,14.309h-1.459l6.029-14.309H265.808z"/>
<path fill="#E77806" d="M274.966,7.167c0.164,0.205,0.292,0.444,0.382,0.716s0.136,0.567,0.136,0.883
	c0,0.457-0.083,0.875-0.25,1.252s-0.403,0.702-0.708,0.971s-0.669,0.479-1.094,0.628s-0.892,0.224-1.402,0.224
	c-0.369,0-0.715-0.04-1.037-0.119s-0.577-0.177-0.765-0.294c-0.111,0.164-0.205,0.319-0.281,0.466s-0.114,0.311-0.114,0.492
	c0,0.223,0.107,0.407,0.321,0.554s0.497,0.226,0.848,0.237l2.32,0.088c0.439,0.012,0.845,0.067,1.217,0.167s0.691,0.243,0.958,0.431
	s0.475,0.419,0.624,0.694s0.224,0.595,0.224,0.958c0,0.393-0.085,0.765-0.255,1.116s-0.432,0.661-0.787,0.927
	s-0.804,0.479-1.349,0.637s-1.192,0.237-1.942,0.237c-0.715,0-1.323-0.057-1.824-0.171s-0.913-0.272-1.235-0.475
	s-0.557-0.442-0.703-0.721s-0.22-0.584-0.22-0.918c0-0.428,0.1-0.803,0.299-1.125s0.507-0.633,0.923-0.932
	c-0.152-0.07-0.284-0.158-0.396-0.264s-0.202-0.221-0.272-0.347s-0.123-0.259-0.158-0.4s-0.053-0.278-0.053-0.413
	c0-0.381,0.089-0.729,0.268-1.046s0.391-0.615,0.637-0.896c-0.111-0.135-0.209-0.267-0.294-0.396s-0.158-0.268-0.22-0.417
	s-0.108-0.311-0.141-0.483s-0.048-0.371-0.048-0.593c0-0.457,0.083-0.875,0.25-1.252s0.401-0.702,0.703-0.971
	s0.665-0.479,1.09-0.628s0.895-0.224,1.411-0.224c0.217,0,0.425,0.015,0.624,0.044s0.375,0.067,0.527,0.114h3.199v1.248H274.966z
	 M269.657,16.018c0,0.416,0.217,0.719,0.65,0.91s1.037,0.286,1.811,0.286c0.486,0,0.895-0.044,1.226-0.132s0.598-0.204,0.8-0.347
	s0.347-0.308,0.435-0.492s0.132-0.374,0.132-0.567c0-0.357-0.146-0.621-0.439-0.791s-0.741-0.27-1.345-0.299l-2.303-0.079
	c-0.193,0.129-0.353,0.255-0.479,0.378s-0.224,0.248-0.294,0.374s-0.12,0.252-0.149,0.378S269.657,15.889,269.657,16.018z
	 M270.123,8.802c0,0.281,0.047,0.539,0.141,0.773s0.226,0.434,0.396,0.598s0.371,0.292,0.602,0.382s0.488,0.136,0.769,0.136
	c0.305,0,0.576-0.051,0.813-0.154s0.437-0.242,0.598-0.417s0.284-0.378,0.369-0.606s0.127-0.466,0.127-0.712
	c0-0.281-0.047-0.539-0.141-0.773s-0.226-0.434-0.396-0.598s-0.371-0.292-0.602-0.382s-0.488-0.136-0.769-0.136
	c-0.305,0-0.576,0.053-0.813,0.158s-0.437,0.245-0.598,0.417s-0.284,0.374-0.369,0.602S270.123,8.556,270.123,8.802z"/>
<path fill="#E77806" d="M281.514,7.185h-2.61V5.919h4.157v7.55h2.628v1.274h-7.075v-1.274h2.9V7.185z M282.05,2.219
	c0.17,0,0.328,0.031,0.475,0.092s0.274,0.148,0.382,0.259s0.193,0.239,0.255,0.382s0.092,0.3,0.092,0.47
	c0,0.164-0.031,0.319-0.092,0.466s-0.146,0.275-0.255,0.387s-0.236,0.198-0.382,0.259s-0.305,0.092-0.475,0.092
	s-0.328-0.031-0.475-0.092s-0.274-0.148-0.382-0.259s-0.193-0.24-0.255-0.387s-0.092-0.302-0.092-0.466
	c0-0.17,0.031-0.327,0.092-0.47s0.146-0.271,0.255-0.382s0.236-0.198,0.382-0.259S281.88,2.219,282.05,2.219z"/>
<path fill="#E77806" d="M295.515,14.621c-0.346,0.088-0.703,0.151-1.072,0.189s-0.744,0.057-1.125,0.057
	c-1.107,0-1.934-0.25-2.479-0.751s-0.817-1.27-0.817-2.307V7.203h-2.47V5.919h2.47V3.494l1.529-0.396v2.821h3.964v1.283h-3.964
	v4.482c0,0.633,0.168,1.106,0.505,1.419s0.833,0.47,1.49,0.47c0.281,0,0.589-0.022,0.923-0.066s0.683-0.113,1.046-0.207V14.621z"/>
<path fill="#E77806" d="M305.394,14.744h-1.529V9.11c0-0.68-0.127-1.188-0.382-1.525s-0.62-0.505-1.094-0.505
	c-0.205,0-0.397,0.028-0.576,0.083s-0.365,0.152-0.558,0.29s-0.404,0.324-0.633,0.558s-0.492,0.527-0.791,0.879v5.854h-1.529V2.325
	h1.529v3.595l-0.053,1.389c0.24-0.287,0.476-0.529,0.708-0.725s0.463-0.356,0.694-0.479s0.467-0.211,0.708-0.264
	s0.489-0.079,0.747-0.079c0.879,0,1.559,0.268,2.039,0.804s0.721,1.343,0.721,2.421V14.744z"/>
<path fill="#E77806" d="M315.29,14.744h-1.371l-0.053-1.424c-0.264,0.305-0.514,0.558-0.751,0.76s-0.473,0.365-0.708,0.488
	s-0.47,0.209-0.708,0.259s-0.488,0.075-0.751,0.075c-0.908,0-1.594-0.267-2.057-0.8s-0.694-1.339-0.694-2.417V5.919h1.529v5.643
	c0,1.354,0.51,2.03,1.529,2.03c0.188,0,0.371-0.028,0.549-0.083s0.366-0.152,0.563-0.29s0.407-0.324,0.633-0.558
	s0.479-0.53,0.76-0.888V5.919h1.529V14.744z"/>
<path fill="#E77806" d="M325.635,10.173c0,0.732-0.101,1.387-0.303,1.964s-0.489,1.066-0.861,1.468s-0.825,0.709-1.358,0.923
	s-1.134,0.321-1.802,0.321c-0.521,0-1.055-0.05-1.6-0.149s-1.084-0.258-1.617-0.475v-11.9h1.529v3.419l-0.07,1.635
	c0.439-0.592,0.91-1.009,1.411-1.252s1.039-0.365,1.613-0.365c0.504,0,0.946,0.105,1.327,0.316s0.7,0.508,0.958,0.892
	s0.451,0.847,0.58,1.389S325.635,9.505,325.635,10.173z M324.07,10.244c0-0.463-0.034-0.888-0.101-1.274s-0.174-0.718-0.321-0.993
	s-0.334-0.491-0.563-0.646s-0.501-0.233-0.817-0.233c-0.193,0-0.39,0.031-0.589,0.092s-0.406,0.164-0.62,0.308
	s-0.439,0.334-0.677,0.571s-0.491,0.532-0.76,0.883v4.28c0.299,0.117,0.604,0.209,0.914,0.277s0.606,0.101,0.888,0.101
	c0.352,0,0.687-0.056,1.006-0.167s0.601-0.297,0.844-0.558s0.437-0.606,0.58-1.037S324.07,10.882,324.07,10.244z"/>
<path fill="#E77806" d="M334.16,10.674h-5.256V9.233h5.256V10.674z"/>
<path fill="#E77806" d="M345.428,10.173c0,0.785-0.11,1.471-0.33,2.057s-0.523,1.072-0.91,1.459s-0.844,0.677-1.371,0.87
	s-1.099,0.29-1.714,0.29c-0.281,0-0.561-0.015-0.839-0.044s-0.561-0.079-0.848-0.149v3.691h-1.529V5.919h1.362l0.097,1.477
	c0.439-0.604,0.908-1.027,1.406-1.27s1.037-0.365,1.617-0.365c0.504,0,0.946,0.105,1.327,0.316s0.7,0.508,0.958,0.892
	s0.451,0.847,0.58,1.389S345.428,9.505,345.428,10.173z M343.863,10.244c0-0.463-0.034-0.888-0.101-1.274s-0.174-0.718-0.321-0.993
	s-0.334-0.491-0.563-0.646s-0.501-0.233-0.817-0.233c-0.193,0-0.39,0.031-0.589,0.092s-0.406,0.164-0.62,0.308
	s-0.439,0.334-0.677,0.571s-0.491,0.532-0.76,0.883v4.28c0.281,0.117,0.577,0.209,0.888,0.277s0.615,0.101,0.914,0.101
	c0.826,0,1.474-0.28,1.942-0.839S343.863,11.369,343.863,10.244z"/>
<path fill="#E77806" d="M353.452,14.744l-0.035-1.187c-0.48,0.475-0.968,0.817-1.463,1.028s-1.015,0.316-1.56,0.316
	c-0.504,0-0.935-0.064-1.292-0.193s-0.652-0.306-0.883-0.532s-0.401-0.491-0.51-0.795s-0.163-0.636-0.163-0.993
	c0-0.885,0.33-1.578,0.989-2.079s1.633-0.751,2.922-0.751h1.828V8.785c0-0.521-0.167-0.939-0.501-1.252s-0.844-0.47-1.529-0.47
	c-0.498,0-0.989,0.056-1.472,0.167s-0.983,0.27-1.499,0.475v-1.38c0.193-0.07,0.409-0.139,0.646-0.207s0.488-0.127,0.751-0.18
	s0.539-0.095,0.826-0.127s0.577-0.048,0.87-0.048c0.533,0,1.014,0.059,1.441,0.176s0.79,0.296,1.085,0.536s0.523,0.542,0.681,0.905
	s0.237,0.791,0.237,1.283v6.082H353.452z M353.285,10.727h-1.942c-0.381,0-0.709,0.038-0.984,0.114s-0.501,0.185-0.677,0.325
	s-0.306,0.309-0.391,0.505s-0.127,0.417-0.127,0.664c0,0.17,0.026,0.333,0.079,0.488s0.138,0.293,0.255,0.413
	s0.27,0.215,0.457,0.286s0.416,0.105,0.686,0.105c0.352,0,0.754-0.107,1.208-0.321s0.933-0.552,1.437-1.015V10.727z"/>
<path fill="#E77806" d="M364.034,7.167c0.164,0.205,0.292,0.444,0.382,0.716s0.136,0.567,0.136,0.883
	c0,0.457-0.083,0.875-0.25,1.252s-0.403,0.702-0.708,0.971s-0.669,0.479-1.094,0.628s-0.892,0.224-1.402,0.224
	c-0.369,0-0.715-0.04-1.037-0.119s-0.577-0.177-0.765-0.294c-0.111,0.164-0.205,0.319-0.281,0.466s-0.114,0.311-0.114,0.492
	c0,0.223,0.107,0.407,0.321,0.554s0.497,0.226,0.848,0.237l2.32,0.088c0.439,0.012,0.845,0.067,1.217,0.167s0.691,0.243,0.958,0.431
	s0.475,0.419,0.624,0.694s0.224,0.595,0.224,0.958c0,0.393-0.085,0.765-0.255,1.116s-0.432,0.661-0.787,0.927
	s-0.804,0.479-1.349,0.637s-1.192,0.237-1.942,0.237c-0.715,0-1.323-0.057-1.824-0.171s-0.913-0.272-1.235-0.475
	s-0.557-0.442-0.703-0.721s-0.22-0.584-0.22-0.918c0-0.428,0.1-0.803,0.299-1.125s0.507-0.633,0.923-0.932
	c-0.152-0.07-0.284-0.158-0.396-0.264s-0.202-0.221-0.272-0.347s-0.123-0.259-0.158-0.4s-0.053-0.278-0.053-0.413
	c0-0.381,0.089-0.729,0.268-1.046s0.391-0.615,0.637-0.896c-0.111-0.135-0.209-0.267-0.294-0.396s-0.158-0.268-0.22-0.417
	s-0.108-0.311-0.141-0.483s-0.048-0.371-0.048-0.593c0-0.457,0.083-0.875,0.25-1.252s0.401-0.702,0.703-0.971
	s0.665-0.479,1.09-0.628s0.895-0.224,1.411-0.224c0.217,0,0.425,0.015,0.624,0.044s0.375,0.067,0.527,0.114h3.199v1.248H364.034z
	 M358.726,16.018c0,0.416,0.217,0.719,0.65,0.91s1.037,0.286,1.811,0.286c0.486,0,0.895-0.044,1.226-0.132s0.598-0.204,0.8-0.347
	s0.347-0.308,0.435-0.492s0.132-0.374,0.132-0.567c0-0.357-0.146-0.621-0.439-0.791s-0.741-0.27-1.345-0.299l-2.303-0.079
	c-0.193,0.129-0.353,0.255-0.479,0.378s-0.224,0.248-0.294,0.374s-0.12,0.252-0.149,0.378S358.726,15.889,358.726,16.018z
	 M359.191,8.802c0,0.281,0.047,0.539,0.141,0.773s0.226,0.434,0.396,0.598s0.371,0.292,0.602,0.382s0.488,0.136,0.769,0.136
	c0.305,0,0.576-0.051,0.813-0.154s0.437-0.242,0.598-0.417s0.284-0.378,0.369-0.606s0.127-0.466,0.127-0.712
	c0-0.281-0.047-0.539-0.141-0.773s-0.226-0.434-0.396-0.598s-0.371-0.292-0.602-0.382s-0.488-0.136-0.769-0.136
	c-0.305,0-0.576,0.053-0.813,0.158s-0.437,0.245-0.598,0.417s-0.284,0.374-0.369,0.602S359.191,8.556,359.191,8.802z"/>
<path fill="#E77806" d="M375.029,9.866c0,0.217-0.003,0.398-0.009,0.545s-0.015,0.284-0.026,0.413h-6.196
	c0,0.902,0.252,1.595,0.756,2.079s1.23,0.725,2.18,0.725c0.258,0,0.516-0.01,0.773-0.031s0.507-0.048,0.747-0.083
	s0.47-0.075,0.69-0.119s0.423-0.092,0.611-0.145v1.257c-0.416,0.117-0.886,0.212-1.411,0.286s-1.068,0.11-1.63,0.11
	c-0.756,0-1.406-0.103-1.951-0.308s-0.992-0.502-1.34-0.892s-0.606-0.867-0.773-1.433s-0.25-1.206-0.25-1.92
	c0-0.621,0.089-1.208,0.268-1.762s0.439-1.04,0.782-1.459s0.763-0.751,1.261-0.998s1.063-0.369,1.696-0.369
	c0.615,0,1.16,0.097,1.635,0.29s0.875,0.467,1.2,0.822s0.571,0.785,0.738,1.292S375.029,9.239,375.029,9.866z M373.438,9.646
	c0.018-0.393-0.021-0.751-0.114-1.077s-0.239-0.605-0.435-0.839s-0.441-0.417-0.734-0.549s-0.633-0.198-1.02-0.198
	c-0.334,0-0.639,0.064-0.914,0.193s-0.513,0.311-0.712,0.545s-0.36,0.516-0.483,0.844s-0.199,0.688-0.229,1.081H373.438z"/>
<path fill="#E77806" d="M384.46,12.335c0,0.311-0.053,0.589-0.158,0.835s-0.249,0.464-0.431,0.655s-0.393,0.353-0.633,0.488
	s-0.497,0.246-0.769,0.334s-0.552,0.152-0.839,0.193s-0.568,0.062-0.844,0.062c-0.598,0-1.147-0.026-1.648-0.079
	s-0.992-0.138-1.472-0.255v-1.406c0.516,0.146,1.028,0.258,1.538,0.334s1.017,0.114,1.521,0.114c0.732,0,1.274-0.1,1.626-0.299
	s0.527-0.483,0.527-0.853c0-0.158-0.028-0.3-0.083-0.426s-0.157-0.246-0.303-0.36s-0.374-0.233-0.681-0.356
	s-0.728-0.264-1.261-0.422c-0.398-0.117-0.766-0.25-1.103-0.4s-0.628-0.327-0.875-0.532s-0.439-0.445-0.58-0.721
	s-0.211-0.601-0.211-0.976c0-0.246,0.057-0.516,0.171-0.809s0.309-0.565,0.584-0.817s0.647-0.461,1.116-0.628s1.055-0.25,1.758-0.25
	c0.346,0,0.729,0.019,1.151,0.057s0.861,0.104,1.318,0.198v1.362c-0.48-0.117-0.936-0.204-1.367-0.259s-0.804-0.083-1.121-0.083
	c-0.381,0-0.702,0.029-0.962,0.088s-0.472,0.139-0.633,0.242s-0.277,0.223-0.347,0.36s-0.105,0.286-0.105,0.444
	s0.031,0.302,0.092,0.431s0.176,0.253,0.343,0.374s0.4,0.24,0.699,0.36s0.688,0.25,1.169,0.391c0.521,0.152,0.961,0.312,1.318,0.479
	s0.647,0.353,0.87,0.558s0.382,0.437,0.479,0.694S384.46,12.007,384.46,12.335z"/>
<path fill="#E77806" d="M393.539,10.674h-5.256V9.233h5.256V10.674z"/>
<path fill="#E77806" d="M404.807,10.173c0,0.732-0.101,1.387-0.303,1.964s-0.489,1.066-0.861,1.468s-0.825,0.709-1.358,0.923
	s-1.134,0.321-1.802,0.321c-0.521,0-1.055-0.05-1.6-0.149s-1.084-0.258-1.617-0.475v-11.9h1.529v3.419l-0.07,1.635
	c0.439-0.592,0.91-1.009,1.411-1.252s1.039-0.365,1.613-0.365c0.504,0,0.946,0.105,1.327,0.316s0.7,0.508,0.958,0.892
	s0.451,0.847,0.58,1.389S404.807,9.505,404.807,10.173z M403.242,10.244c0-0.463-0.034-0.888-0.101-1.274s-0.174-0.718-0.321-0.993
	s-0.334-0.491-0.563-0.646s-0.501-0.233-0.817-0.233c-0.193,0-0.39,0.031-0.589,0.092s-0.406,0.164-0.62,0.308
	s-0.439,0.334-0.677,0.571s-0.491,0.532-0.76,0.883v4.28c0.299,0.117,0.604,0.209,0.914,0.277s0.606,0.101,0.888,0.101
	c0.352,0,0.687-0.056,1.006-0.167s0.601-0.297,0.844-0.558s0.437-0.606,0.58-1.037S403.242,10.882,403.242,10.244z"/>
<path fill="#E77806" d="M412.831,14.744l-0.035-1.187c-0.48,0.475-0.968,0.817-1.463,1.028s-1.015,0.316-1.56,0.316
	c-0.504,0-0.935-0.064-1.292-0.193s-0.652-0.306-0.883-0.532s-0.401-0.491-0.51-0.795s-0.163-0.636-0.163-0.993
	c0-0.885,0.33-1.578,0.989-2.079s1.633-0.751,2.922-0.751h1.828V8.785c0-0.521-0.167-0.939-0.501-1.252s-0.844-0.47-1.529-0.47
	c-0.498,0-0.989,0.056-1.472,0.167s-0.983,0.27-1.499,0.475v-1.38c0.193-0.07,0.409-0.139,0.646-0.207s0.488-0.127,0.751-0.18
	s0.539-0.095,0.826-0.127s0.577-0.048,0.87-0.048c0.533,0,1.014,0.059,1.441,0.176s0.79,0.296,1.085,0.536s0.523,0.542,0.681,0.905
	s0.237,0.791,0.237,1.283v6.082H412.831z M412.664,10.727h-1.942c-0.381,0-0.709,0.038-0.984,0.114s-0.501,0.185-0.677,0.325
	s-0.306,0.309-0.391,0.505s-0.127,0.417-0.127,0.664c0,0.17,0.026,0.333,0.079,0.488s0.138,0.293,0.255,0.413
	s0.27,0.215,0.457,0.286s0.416,0.105,0.686,0.105c0.352,0,0.754-0.107,1.208-0.321s0.933-0.552,1.437-1.015V10.727z"/>
<path fill="#E77806" d="M424.046,12.335c0,0.311-0.053,0.589-0.158,0.835s-0.249,0.464-0.431,0.655s-0.393,0.353-0.633,0.488
	s-0.497,0.246-0.769,0.334s-0.552,0.152-0.839,0.193s-0.568,0.062-0.844,0.062c-0.598,0-1.147-0.026-1.648-0.079
	s-0.992-0.138-1.472-0.255v-1.406c0.516,0.146,1.028,0.258,1.538,0.334s1.017,0.114,1.521,0.114c0.732,0,1.274-0.1,1.626-0.299
	s0.527-0.483,0.527-0.853c0-0.158-0.028-0.3-0.083-0.426s-0.157-0.246-0.303-0.36s-0.374-0.233-0.681-0.356
	s-0.728-0.264-1.261-0.422c-0.398-0.117-0.766-0.25-1.103-0.4s-0.628-0.327-0.875-0.532s-0.439-0.445-0.58-0.721
	s-0.211-0.601-0.211-0.976c0-0.246,0.057-0.516,0.171-0.809s0.309-0.565,0.584-0.817s0.647-0.461,1.116-0.628s1.055-0.25,1.758-0.25
	c0.346,0,0.729,0.019,1.151,0.057s0.861,0.104,1.318,0.198v1.362c-0.48-0.117-0.936-0.204-1.367-0.259s-0.804-0.083-1.121-0.083
	c-0.381,0-0.702,0.029-0.962,0.088s-0.472,0.139-0.633,0.242s-0.277,0.223-0.347,0.36s-0.105,0.286-0.105,0.444
	s0.031,0.302,0.092,0.431s0.176,0.253,0.343,0.374s0.4,0.24,0.699,0.36s0.688,0.25,1.169,0.391c0.521,0.152,0.961,0.312,1.318,0.479
	s0.647,0.353,0.87,0.558s0.382,0.437,0.479,0.694S424.046,12.007,424.046,12.335z"/>
<path fill="#E77806" d="M429.961,7.185h-2.61V5.919h4.157v7.55h2.628v1.274h-7.075v-1.274h2.9V7.185z M430.497,2.219
	c0.17,0,0.328,0.031,0.475,0.092s0.274,0.148,0.382,0.259s0.193,0.239,0.255,0.382s0.092,0.3,0.092,0.47
	c0,0.164-0.031,0.319-0.092,0.466s-0.146,0.275-0.255,0.387s-0.236,0.198-0.382,0.259s-0.305,0.092-0.475,0.092
	s-0.328-0.031-0.475-0.092s-0.274-0.148-0.382-0.259s-0.193-0.24-0.255-0.387s-0.092-0.302-0.092-0.466
	c0-0.17,0.031-0.327,0.092-0.47s0.146-0.271,0.255-0.382s0.236-0.198,0.382-0.259S430.327,2.219,430.497,2.219z"/>
<path fill="#E77806" d="M443.707,14.418c-0.398,0.152-0.807,0.265-1.226,0.338s-0.851,0.11-1.296,0.11
	c-1.395,0-2.468-0.378-3.221-1.134s-1.129-1.86-1.129-3.313c0-0.697,0.108-1.33,0.325-1.898s0.521-1.055,0.914-1.459
	s0.861-0.716,1.406-0.936s1.146-0.33,1.802-0.33c0.457,0,0.885,0.032,1.283,0.097s0.779,0.17,1.143,0.316v1.459
	c-0.381-0.199-0.769-0.344-1.165-0.435s-0.804-0.136-1.226-0.136c-0.393,0-0.763,0.075-1.112,0.224s-0.655,0.365-0.918,0.646
	s-0.472,0.624-0.624,1.028s-0.229,0.861-0.229,1.371c0,1.066,0.259,1.865,0.778,2.395s1.238,0.795,2.158,0.795
	c0.416,0,0.819-0.047,1.208-0.141s0.766-0.234,1.129-0.422V14.418z"/>
<path fill="#E77806" d="M452.918,10.674h-5.256V9.233h5.256V10.674z"/>
<path fill="#E77806" d="M462.314,14.744l-0.035-1.187c-0.481,0.475-0.969,0.817-1.464,1.028s-1.016,0.316-1.561,0.316
	c-0.504,0-0.934-0.064-1.291-0.193s-0.652-0.306-0.884-0.532s-0.401-0.491-0.51-0.795s-0.163-0.636-0.163-0.993
	c0-0.885,0.33-1.578,0.989-2.079s1.634-0.751,2.923-0.751h1.827V8.785c0-0.521-0.166-0.939-0.501-1.252
	c-0.334-0.313-0.844-0.47-1.529-0.47c-0.498,0-0.988,0.056-1.472,0.167s-0.983,0.27-1.499,0.475v-1.38
	c0.193-0.07,0.409-0.139,0.646-0.207s0.488-0.127,0.752-0.18s0.539-0.095,0.826-0.127s0.576-0.048,0.869-0.048
	c0.533,0,1.014,0.059,1.441,0.176s0.79,0.296,1.086,0.536s0.522,0.542,0.681,0.905s0.238,0.791,0.238,1.283v6.082H462.314z
	 M462.146,10.727h-1.942c-0.381,0-0.709,0.038-0.984,0.114s-0.5,0.185-0.676,0.325s-0.307,0.309-0.392,0.505
	s-0.128,0.417-0.128,0.664c0,0.17,0.027,0.333,0.08,0.488s0.137,0.293,0.254,0.413s0.27,0.215,0.457,0.286s0.416,0.105,0.686,0.105
	c0.352,0,0.755-0.107,1.209-0.321s0.934-0.552,1.437-1.015V10.727z"/>
<path fill="#E77806" d="M473.633,14.744h-1.371l-0.053-1.424c-0.264,0.305-0.515,0.558-0.751,0.76
	c-0.238,0.202-0.474,0.365-0.708,0.488s-0.47,0.209-0.708,0.259c-0.236,0.05-0.487,0.075-0.751,0.075
	c-0.908,0-1.594-0.267-2.057-0.8s-0.694-1.339-0.694-2.417V5.919h1.529v5.643c0,1.354,0.51,2.03,1.529,2.03
	c0.188,0,0.37-0.028,0.549-0.083s0.366-0.152,0.563-0.29s0.407-0.324,0.633-0.558s0.479-0.53,0.761-0.888V5.919h1.529V14.744z"/>
<path fill="#E77806" d="M483.547,14.621c-0.346,0.088-0.703,0.151-1.072,0.189s-0.744,0.057-1.125,0.057
	c-1.107,0-1.934-0.25-2.479-0.751s-0.817-1.27-0.817-2.307V7.203h-2.47V5.919h2.47V3.494l1.529-0.396v2.821h3.964v1.283h-3.964
	v4.482c0,0.633,0.168,1.106,0.506,1.419c0.336,0.313,0.833,0.47,1.489,0.47c0.281,0,0.589-0.022,0.923-0.066
	s0.683-0.113,1.046-0.207V14.621z"/>
<path fill="#E77806" d="M493.426,14.744h-1.529V9.11c0-0.68-0.128-1.188-0.382-1.525c-0.256-0.337-0.62-0.505-1.095-0.505
	c-0.205,0-0.397,0.028-0.575,0.083c-0.18,0.056-0.365,0.152-0.559,0.29s-0.404,0.324-0.633,0.558s-0.492,0.527-0.791,0.879v5.854
	h-1.529V2.325h1.529v3.595l-0.053,1.389c0.24-0.287,0.476-0.529,0.707-0.725s0.463-0.356,0.695-0.479
	c0.23-0.123,0.467-0.211,0.707-0.264s0.489-0.079,0.747-0.079c0.879,0,1.559,0.268,2.039,0.804s0.721,1.343,0.721,2.421V14.744z"/>
<path fill="#E77806" d="M502.4,10.674h-5.256V9.233h5.256V10.674z"/>
<path fill="#E77806" d="M513.667,10.173c0,0.785-0.109,1.471-0.33,2.057c-0.219,0.586-0.522,1.072-0.909,1.459
	s-0.844,0.677-1.371,0.87s-1.099,0.29-1.714,0.29c-0.281,0-0.562-0.015-0.84-0.044s-0.561-0.079-0.848-0.149v3.691h-1.529V5.919
	h1.362l0.097,1.477c0.439-0.604,0.908-1.027,1.406-1.27s1.037-0.365,1.617-0.365c0.504,0,0.946,0.105,1.327,0.316
	s0.7,0.508,0.958,0.892s0.451,0.847,0.58,1.389S513.667,9.505,513.667,10.173z M512.103,10.244c0-0.463-0.034-0.888-0.102-1.274
	s-0.174-0.718-0.32-0.993s-0.334-0.491-0.563-0.646s-0.501-0.233-0.817-0.233c-0.193,0-0.39,0.031-0.589,0.092
	s-0.406,0.164-0.619,0.308c-0.215,0.144-0.439,0.334-0.678,0.571c-0.236,0.237-0.49,0.532-0.76,0.883v4.28
	c0.281,0.117,0.577,0.209,0.888,0.277s0.615,0.101,0.914,0.101c0.826,0,1.474-0.28,1.942-0.839S512.103,11.369,512.103,10.244z"/>
<path fill="#E77806" d="M516.383,5.919h1.397l0.044,1.626c0.521-0.627,1.035-1.081,1.542-1.362s1.019-0.422,1.534-0.422
	c0.914,0,1.606,0.296,2.079,0.888c0.471,0.592,0.689,1.471,0.654,2.637h-1.547c0.018-0.773-0.096-1.334-0.338-1.683
	c-0.244-0.349-0.6-0.523-1.068-0.523c-0.205,0-0.412,0.037-0.619,0.11c-0.209,0.073-0.422,0.19-0.643,0.352
	c-0.219,0.161-0.452,0.368-0.698,0.62s-0.51,0.557-0.791,0.914v5.669h-1.547V5.919z"/>
<path fill="#E77806" d="M533.601,10.261c0,0.686-0.097,1.314-0.29,1.885s-0.472,1.061-0.835,1.468s-0.806,0.724-1.327,0.949
	s-1.113,0.338-1.775,0.338c-0.633,0-1.2-0.098-1.7-0.294c-0.502-0.196-0.927-0.485-1.275-0.866s-0.615-0.853-0.799-1.415
	c-0.186-0.563-0.277-1.21-0.277-1.942c0-0.686,0.097-1.311,0.29-1.876s0.472-1.052,0.835-1.459s0.806-0.724,1.327-0.949
	s1.113-0.338,1.775-0.338c0.633,0,1.2,0.098,1.7,0.294c0.502,0.196,0.926,0.483,1.275,0.861c0.348,0.378,0.615,0.848,0.799,1.411
	C533.509,8.89,533.601,9.535,533.601,10.261z M532.037,10.332c0-0.545-0.061-1.021-0.18-1.428c-0.121-0.407-0.292-0.747-0.515-1.02
	s-0.494-0.478-0.813-0.615s-0.675-0.207-1.067-0.207c-0.457,0-0.849,0.089-1.173,0.268c-0.326,0.179-0.593,0.417-0.801,0.716
	s-0.359,0.646-0.457,1.042c-0.096,0.396-0.145,0.81-0.145,1.244c0,0.545,0.06,1.022,0.18,1.433s0.292,0.751,0.515,1.024
	s0.492,0.478,0.809,0.615s0.674,0.207,1.072,0.207c0.457,0,0.849-0.089,1.173-0.268c0.326-0.179,0.592-0.417,0.801-0.716
	c0.207-0.299,0.359-0.646,0.457-1.042C531.988,11.188,532.037,10.771,532.037,10.332z"/>
<path fill="#E77806" d="M543.77,14.744h-2.03l-2.382-3.366l-2.355,3.366h-1.978l3.419-4.43l-3.261-4.395h1.96l2.32,3.393
	l2.276-3.393h1.89l-3.313,4.43L543.77,14.744z"/>
<path fill="#E77806" d="M553.561,5.919l-3.006,7.893c-0.311,0.803-0.632,1.494-0.962,2.074c-0.332,0.58-0.693,1.056-1.086,1.428
	s-0.823,0.646-1.292,0.822s-0.993,0.264-1.573,0.264c-0.152,0-0.29-0.003-0.413-0.009s-0.258-0.015-0.404-0.026v-1.389
	c0.129,0.018,0.27,0.034,0.422,0.048s0.313,0.022,0.483,0.022c0.281,0,0.543-0.041,0.787-0.123c0.242-0.082,0.473-0.215,0.689-0.4
	s0.425-0.423,0.624-0.716s0.393-0.647,0.58-1.063l-3.524-8.824h1.74l2.232,5.836l0.448,1.371l0.51-1.406l2.065-5.801H553.561z"/>
<path d="M562.702,2.325l-6.029,14.309h-1.459l6.029-14.309H562.702z"/>
<path fill="#99C21F" d="M573.222,9.004c0,0.879-0.088,1.68-0.264,2.404s-0.442,1.345-0.8,1.863s-0.802,0.92-1.331,1.204
	c-0.531,0.284-1.153,0.426-1.868,0.426c-0.615,0-1.175-0.116-1.679-0.347s-0.935-0.587-1.292-1.068s-0.633-1.093-0.826-1.837
	s-0.29-1.626-0.29-2.646c0-0.879,0.089-1.682,0.268-2.408s0.445-1.349,0.801-1.868c0.354-0.519,0.798-0.92,1.331-1.204
	s1.154-0.426,1.863-0.426c0.615,0,1.175,0.116,1.679,0.347s0.935,0.589,1.292,1.072s0.633,1.097,0.826,1.841
	S573.222,7.985,573.222,9.004z M566.419,8.952c0,0.182,0.001,0.363,0.004,0.545s0.014,0.357,0.031,0.527l4.86-3.595
	c-0.088-0.299-0.199-0.571-0.334-0.817s-0.296-0.458-0.483-0.637s-0.401-0.318-0.642-0.417s-0.51-0.149-0.809-0.149
	c-0.398,0-0.761,0.097-1.085,0.29c-0.326,0.193-0.603,0.482-0.831,0.866s-0.404,0.858-0.527,1.424S566.419,8.208,566.419,8.952z
	 M571.675,9.057c0-0.199-0.008-0.397-0.021-0.593c-0.016-0.196-0.031-0.388-0.049-0.576l-4.86,3.612
	c0.088,0.305,0.199,0.586,0.334,0.844s0.297,0.479,0.487,0.664s0.407,0.328,0.65,0.431s0.521,0.154,0.831,0.154
	c0.398,0,0.761-0.097,1.085-0.29c0.326-0.193,0.603-0.48,0.831-0.861s0.404-0.854,0.527-1.419S571.675,9.801,571.675,9.057z"/>
<path fill="#99C21F" d="M582.855,11.861c0,0.486-0.1,0.918-0.299,1.296s-0.478,0.696-0.835,0.954s-0.779,0.454-1.266,0.589
	s-1.014,0.202-1.582,0.202c-0.627,0-1.18-0.07-1.657-0.211s-0.877-0.337-1.199-0.589s-0.565-0.551-0.729-0.896
	s-0.246-0.727-0.246-1.143c0-0.703,0.196-1.31,0.589-1.819s0.999-0.973,1.819-1.389c-0.75-0.381-1.298-0.804-1.644-1.27
	s-0.519-1-0.519-1.604c0-0.369,0.076-0.727,0.229-1.072s0.382-0.653,0.69-0.923c0.307-0.27,0.692-0.485,1.155-0.646
	s1.008-0.242,1.635-0.242c0.592,0,1.112,0.063,1.56,0.189c0.449,0.126,0.825,0.306,1.13,0.541s0.533,0.519,0.686,0.853
	s0.229,0.706,0.229,1.116c0,0.668-0.187,1.236-0.558,1.705c-0.373,0.469-0.901,0.879-1.587,1.23c0.34,0.17,0.656,0.357,0.949,0.563
	s0.548,0.434,0.765,0.686s0.385,0.533,0.506,0.844C582.794,11.134,582.855,11.48,582.855,11.861z M581.194,11.975
	c0-0.217-0.035-0.428-0.105-0.633s-0.196-0.407-0.378-0.606s-0.425-0.398-0.729-0.598s-0.691-0.404-1.16-0.615
	c-0.398,0.193-0.733,0.385-1.007,0.576c-0.271,0.19-0.492,0.384-0.658,0.58c-0.168,0.196-0.286,0.4-0.356,0.611
	s-0.105,0.434-0.105,0.668c0,0.264,0.058,0.497,0.171,0.699c0.115,0.202,0.271,0.374,0.471,0.514s0.437,0.246,0.712,0.316
	s0.574,0.105,0.896,0.105c0.311,0,0.604-0.032,0.879-0.097s0.515-0.163,0.716-0.294c0.203-0.132,0.362-0.299,0.479-0.501
	S581.194,12.256,581.194,11.975z M581.036,5.919c0-0.521-0.184-0.91-0.55-1.165s-0.88-0.382-1.542-0.382
	c-0.656,0-1.168,0.126-1.534,0.378s-0.549,0.63-0.549,1.134c0,0.229,0.044,0.439,0.132,0.633s0.224,0.375,0.409,0.545
	c0.184,0.17,0.414,0.337,0.689,0.501s0.604,0.331,0.984,0.501c0.662-0.311,1.154-0.634,1.477-0.971S581.036,6.365,581.036,5.919z"/>
<path fill="#99C21F" d="M592.892,11.105c0,0.527-0.096,1.022-0.285,1.485c-0.191,0.463-0.462,0.866-0.813,1.208
	s-0.775,0.612-1.271,0.809s-1.044,0.294-1.647,0.294c-0.633,0-1.192-0.101-1.679-0.303s-0.894-0.513-1.222-0.932
	s-0.577-0.948-0.747-1.586s-0.255-1.395-0.255-2.268c0-0.586,0.038-1.154,0.114-1.705s0.202-1.069,0.378-1.556
	s0.41-0.932,0.703-1.336s0.657-0.751,1.095-1.042c0.436-0.29,0.95-0.516,1.542-0.677s1.277-0.242,2.057-0.242h1.134v1.336h-1.23
	c-0.686,0-1.28,0.082-1.784,0.246s-0.926,0.396-1.266,0.694s-0.601,0.659-0.782,1.081s-0.296,0.894-0.343,1.415l-0.035,0.36
	c0.369-0.217,0.796-0.391,1.278-0.523c0.484-0.132,1.007-0.198,1.569-0.198c0.58,0,1.088,0.085,1.524,0.255s0.801,0.406,1.09,0.708
	c0.291,0.302,0.509,0.664,0.655,1.085S592.892,10.601,592.892,11.105z M591.292,11.202c0-0.352-0.043-0.669-0.127-0.954
	c-0.086-0.284-0.219-0.524-0.4-0.721s-0.412-0.349-0.689-0.457c-0.279-0.108-0.611-0.163-0.998-0.163
	c-0.223,0-0.448,0.021-0.677,0.062s-0.452,0.098-0.673,0.171c-0.219,0.073-0.429,0.157-0.628,0.25s-0.381,0.193-0.545,0.299
	c0,0.756,0.053,1.387,0.158,1.894s0.262,0.913,0.47,1.217s0.465,0.521,0.77,0.65s0.656,0.193,1.055,0.193
	c0.334,0,0.64-0.054,0.918-0.163s0.52-0.268,0.721-0.479c0.203-0.211,0.361-0.467,0.475-0.769
	C591.236,11.933,591.292,11.588,591.292,11.202z"/>
<path fill="#99C21F" d="M602.648,9.866c0,0.217-0.003,0.398-0.009,0.545s-0.015,0.284-0.026,0.413h-6.196
	c0,0.902,0.252,1.595,0.756,2.079s1.23,0.725,2.18,0.725c0.258,0,0.516-0.01,0.773-0.031s0.507-0.048,0.747-0.083
	s0.471-0.075,0.689-0.119c0.221-0.044,0.424-0.092,0.611-0.145v1.257c-0.416,0.117-0.887,0.212-1.41,0.286
	c-0.525,0.073-1.068,0.11-1.631,0.11c-0.756,0-1.406-0.103-1.951-0.308s-0.992-0.502-1.34-0.892c-0.35-0.39-0.607-0.867-0.773-1.433
	c-0.168-0.565-0.251-1.206-0.251-1.92c0-0.621,0.089-1.208,0.269-1.762c0.178-0.554,0.439-1.04,0.781-1.459
	c0.344-0.419,0.764-0.751,1.262-0.998s1.063-0.369,1.696-0.369c0.615,0,1.16,0.097,1.635,0.29s0.874,0.467,1.2,0.822
	c0.324,0.354,0.57,0.785,0.738,1.292C602.564,8.672,602.648,9.239,602.648,9.866z M601.057,9.646
	c0.018-0.393-0.021-0.751-0.114-1.077s-0.239-0.605-0.436-0.839s-0.44-0.417-0.733-0.549s-0.633-0.198-1.02-0.198
	c-0.334,0-0.639,0.064-0.914,0.193s-0.513,0.311-0.712,0.545s-0.36,0.516-0.483,0.844s-0.199,0.688-0.229,1.081H601.057z"/>
<path fill="#99C21F" d="M613.116,12.204h-1.96v2.54h-1.564v-2.54h-5.528v-1.345l4.896-7.603h2.197v7.603h1.96V12.204z
	 M609.591,4.733l-3.999,6.126h3.999V4.733z"/>
<path fill="#99C21F" d="M622.344,14.744h-7.216V13.32h2.953V4.935l-2.751,1.494l-0.563-1.301l3.656-1.925h1.354V13.32h2.566V14.744z
	"/>
<path fill="#99C21F" d="M632.337,9.866c0,0.217-0.003,0.398-0.009,0.545s-0.015,0.284-0.026,0.413h-6.196
	c0,0.902,0.252,1.595,0.756,2.079s1.23,0.725,2.18,0.725c0.258,0,0.516-0.01,0.773-0.031s0.507-0.048,0.747-0.083
	s0.471-0.075,0.689-0.119c0.221-0.044,0.424-0.092,0.611-0.145v1.257c-0.416,0.117-0.887,0.212-1.41,0.286
	c-0.525,0.073-1.068,0.11-1.631,0.11c-0.756,0-1.406-0.103-1.951-0.308s-0.992-0.502-1.34-0.892c-0.35-0.39-0.607-0.867-0.773-1.433
	c-0.168-0.565-0.251-1.206-0.251-1.92c0-0.621,0.089-1.208,0.269-1.762c0.178-0.554,0.439-1.04,0.781-1.459
	c0.344-0.419,0.764-0.751,1.262-0.998s1.063-0.369,1.696-0.369c0.615,0,1.16,0.097,1.635,0.29s0.874,0.467,1.2,0.822
	c0.324,0.354,0.57,0.785,0.738,1.292C632.253,8.672,632.337,9.239,632.337,9.866z M630.747,9.646
	c0.018-0.393-0.021-0.751-0.114-1.077s-0.239-0.605-0.436-0.839s-0.44-0.417-0.733-0.549s-0.633-0.198-1.02-0.198
	c-0.334,0-0.639,0.064-0.914,0.193s-0.513,0.311-0.712,0.545s-0.36,0.516-0.483,0.844s-0.199,0.688-0.229,1.081H630.747z"/>
<path fill="#99C21F" d="M642.322,10.173c0,0.732-0.102,1.387-0.303,1.964c-0.203,0.577-0.49,1.066-0.861,1.468
	c-0.373,0.401-0.825,0.709-1.358,0.923s-1.134,0.321-1.802,0.321c-0.521,0-1.055-0.05-1.6-0.149s-1.084-0.258-1.617-0.475v-11.9
	h1.529v3.419l-0.07,1.635c0.439-0.592,0.91-1.009,1.41-1.252c0.502-0.243,1.039-0.365,1.613-0.365c0.504,0,0.946,0.105,1.327,0.316
	s0.7,0.508,0.958,0.892s0.451,0.847,0.58,1.389S642.322,9.505,642.322,10.173z M640.757,10.244c0-0.463-0.034-0.888-0.102-1.274
	s-0.174-0.718-0.32-0.993s-0.334-0.491-0.563-0.646s-0.501-0.233-0.817-0.233c-0.193,0-0.39,0.031-0.589,0.092
	s-0.406,0.164-0.619,0.308c-0.215,0.144-0.439,0.334-0.678,0.571c-0.236,0.237-0.49,0.532-0.76,0.883v4.28
	c0.299,0.117,0.604,0.209,0.914,0.277s0.606,0.101,0.888,0.101c0.352,0,0.687-0.056,1.007-0.167c0.318-0.111,0.6-0.297,0.844-0.558
	c0.242-0.261,0.436-0.606,0.58-1.037C640.685,11.417,640.757,10.882,640.757,10.244z"/>
<path fill="#99C21F" d="M652.271,11.105c0,0.527-0.096,1.022-0.285,1.485c-0.191,0.463-0.462,0.866-0.813,1.208
	s-0.775,0.612-1.271,0.809s-1.044,0.294-1.647,0.294c-0.633,0-1.192-0.101-1.679-0.303s-0.894-0.513-1.222-0.932
	s-0.577-0.948-0.747-1.586s-0.255-1.395-0.255-2.268c0-0.586,0.038-1.154,0.114-1.705s0.202-1.069,0.378-1.556
	s0.41-0.932,0.703-1.336s0.657-0.751,1.095-1.042c0.436-0.29,0.95-0.516,1.542-0.677s1.277-0.242,2.057-0.242h1.134v1.336h-1.23
	c-0.686,0-1.28,0.082-1.784,0.246s-0.926,0.396-1.266,0.694s-0.601,0.659-0.782,1.081s-0.296,0.894-0.343,1.415l-0.035,0.36
	c0.369-0.217,0.796-0.391,1.278-0.523c0.484-0.132,1.007-0.198,1.569-0.198c0.58,0,1.088,0.085,1.524,0.255s0.801,0.406,1.09,0.708
	c0.291,0.302,0.509,0.664,0.655,1.085S652.271,10.601,652.271,11.105z M650.671,11.202c0-0.352-0.043-0.669-0.127-0.954
	c-0.086-0.284-0.219-0.524-0.4-0.721s-0.412-0.349-0.689-0.457c-0.279-0.108-0.611-0.163-0.998-0.163
	c-0.223,0-0.448,0.021-0.677,0.062s-0.452,0.098-0.673,0.171c-0.219,0.073-0.429,0.157-0.628,0.25s-0.381,0.193-0.545,0.299
	c0,0.756,0.053,1.387,0.158,1.894s0.262,0.913,0.47,1.217s0.465,0.521,0.77,0.65s0.656,0.193,1.055,0.193
	c0.334,0,0.64-0.054,0.918-0.163s0.52-0.268,0.721-0.479c0.203-0.211,0.361-0.467,0.475-0.769
	C650.615,11.933,650.671,11.588,650.671,11.202z"/>
<path fill="#99C21F" d="M662.405,3.749c-0.803-0.17-1.494-0.255-2.074-0.255c-1.377,0-2.065,0.721-2.065,2.162v1.547h3.867v1.274
	h-3.867v6.267h-1.556V8.477h-2.839V7.203h2.839V5.744c0-2.35,1.225-3.524,3.674-3.524c0.609,0,1.283,0.07,2.021,0.211V3.749z"/>
<path fill="#99C21F" d="M672.301,3.749c-0.803-0.17-1.494-0.255-2.074-0.255c-1.377,0-2.065,0.721-2.065,2.162v1.547h3.867v1.274
	h-3.867v6.267h-1.556V8.477h-2.839V7.203h2.839V5.744c0-2.35,1.225-3.524,3.674-3.524c0.609,0,1.283,0.07,2.021,0.211V3.749z"/>
<path fill="#99C21F" d="M677.838,11.975c0.199,0,0.388,0.038,0.567,0.114c0.178,0.076,0.334,0.182,0.465,0.316
	c0.133,0.135,0.236,0.292,0.313,0.47s0.114,0.371,0.114,0.576c0,0.199-0.038,0.387-0.114,0.563s-0.18,0.33-0.313,0.461
	c-0.131,0.132-0.287,0.236-0.465,0.312c-0.18,0.076-0.368,0.114-0.567,0.114c-0.205,0-0.396-0.038-0.571-0.114
	s-0.33-0.18-0.461-0.312c-0.133-0.132-0.236-0.286-0.313-0.461s-0.114-0.363-0.114-0.563c0-0.205,0.038-0.397,0.114-0.576
	s0.18-0.335,0.313-0.47c0.131-0.135,0.285-0.24,0.461-0.316S677.633,11.975,677.838,11.975z"/>
<path fill="#99C21F" d="M687.735,11.975c0.199,0,0.388,0.038,0.567,0.114c0.178,0.076,0.334,0.182,0.465,0.316
	c0.133,0.135,0.236,0.292,0.313,0.47s0.114,0.371,0.114,0.576c0,0.199-0.038,0.387-0.114,0.563s-0.18,0.33-0.313,0.461
	c-0.131,0.132-0.287,0.236-0.465,0.312c-0.18,0.076-0.368,0.114-0.567,0.114c-0.205,0-0.396-0.038-0.571-0.114
	s-0.33-0.18-0.461-0.312c-0.133-0.132-0.236-0.286-0.313-0.461s-0.114-0.363-0.114-0.563c0-0.205,0.038-0.397,0.114-0.576
	s0.18-0.335,0.313-0.47c0.131-0.135,0.285-0.24,0.461-0.316S687.53,11.975,687.735,11.975z"/>
<path fill="#99C21F" d="M697.631,11.975c0.199,0,0.388,0.038,0.567,0.114c0.178,0.076,0.334,0.182,0.465,0.316
	c0.133,0.135,0.236,0.292,0.313,0.47s0.114,0.371,0.114,0.576c0,0.199-0.038,0.387-0.114,0.563s-0.18,0.33-0.313,0.461
	c-0.131,0.132-0.287,0.236-0.465,0.312c-0.18,0.076-0.368,0.114-0.567,0.114c-0.205,0-0.396-0.038-0.571-0.114
	s-0.33-0.18-0.461-0.312c-0.133-0.132-0.236-0.286-0.313-0.461s-0.114-0.363-0.114-0.563c0-0.205,0.038-0.397,0.114-0.576
	s0.18-0.335,0.313-0.47c0.131-0.135,0.285-0.24,0.461-0.316S697.426,11.975,697.631,11.975z"/>
<path fill="#99C21F" d="M711.773,9.004c0,0.879-0.088,1.68-0.264,2.404s-0.442,1.345-0.8,1.863s-0.802,0.92-1.331,1.204
	c-0.531,0.284-1.153,0.426-1.868,0.426c-0.615,0-1.175-0.116-1.679-0.347s-0.935-0.587-1.292-1.068s-0.633-1.093-0.826-1.837
	s-0.29-1.626-0.29-2.646c0-0.879,0.089-1.682,0.268-2.408s0.445-1.349,0.801-1.868c0.354-0.519,0.798-0.92,1.331-1.204
	s1.154-0.426,1.863-0.426c0.615,0,1.175,0.116,1.679,0.347s0.935,0.589,1.292,1.072s0.633,1.097,0.826,1.841
	S711.773,7.985,711.773,9.004z M704.97,8.952c0,0.182,0.001,0.363,0.004,0.545s0.014,0.357,0.031,0.527l4.86-3.595
	c-0.088-0.299-0.199-0.571-0.334-0.817s-0.296-0.458-0.483-0.637s-0.401-0.318-0.642-0.417s-0.51-0.149-0.809-0.149
	c-0.398,0-0.761,0.097-1.085,0.29c-0.326,0.193-0.603,0.482-0.831,0.866s-0.404,0.858-0.527,1.424S704.97,8.208,704.97,8.952z
	 M710.226,9.057c0-0.199-0.008-0.397-0.021-0.593c-0.016-0.196-0.031-0.388-0.049-0.576l-4.86,3.612
	c0.088,0.305,0.199,0.586,0.334,0.844s0.297,0.479,0.487,0.664s0.407,0.328,0.65,0.431s0.521,0.154,0.831,0.154
	c0.398,0,0.761-0.097,1.085-0.29c0.326-0.193,0.603-0.48,0.831-0.861s0.404-0.854,0.527-1.419S710.226,9.801,710.226,9.057z"/>
<path fill="#99C21F" d="M719.622,14.744l-0.035-1.187c-0.48,0.475-0.969,0.817-1.464,1.028s-1.015,0.316-1.56,0.316
	c-0.504,0-0.935-0.064-1.292-0.193s-0.652-0.306-0.883-0.532c-0.232-0.226-0.402-0.491-0.51-0.795
	c-0.109-0.305-0.163-0.636-0.163-0.993c0-0.885,0.329-1.578,0.989-2.079c0.658-0.501,1.633-0.751,2.922-0.751h1.828V8.785
	c0-0.521-0.167-0.939-0.501-1.252s-0.844-0.47-1.529-0.47c-0.498,0-0.989,0.056-1.472,0.167c-0.484,0.111-0.983,0.27-1.499,0.475
	v-1.38c0.193-0.07,0.409-0.139,0.646-0.207c0.238-0.067,0.488-0.127,0.752-0.18s0.539-0.095,0.826-0.127s0.577-0.048,0.87-0.048
	c0.533,0,1.014,0.059,1.441,0.176s0.789,0.296,1.085,0.536s0.523,0.542,0.682,0.905s0.237,0.791,0.237,1.283v6.082H719.622z
	 M719.455,10.727h-1.942c-0.381,0-0.709,0.038-0.984,0.114s-0.501,0.185-0.677,0.325s-0.307,0.309-0.391,0.505
	c-0.086,0.196-0.128,0.417-0.128,0.664c0,0.17,0.026,0.333,0.079,0.488s0.138,0.293,0.255,0.413s0.27,0.215,0.457,0.286
	s0.416,0.105,0.686,0.105c0.352,0,0.754-0.107,1.208-0.321s0.934-0.552,1.438-1.015V10.727z"/>
<path fill="#99C21F" d="M731.39,10.173c0,0.732-0.102,1.387-0.303,1.964c-0.203,0.577-0.49,1.066-0.861,1.468
	c-0.373,0.401-0.825,0.709-1.358,0.923s-1.134,0.321-1.802,0.321c-0.521,0-1.055-0.05-1.6-0.149s-1.084-0.258-1.617-0.475v-11.9
	h1.529v3.419l-0.07,1.635c0.439-0.592,0.91-1.009,1.41-1.252c0.502-0.243,1.039-0.365,1.613-0.365c0.504,0,0.946,0.105,1.327,0.316
	s0.7,0.508,0.958,0.892s0.451,0.847,0.58,1.389S731.39,9.505,731.39,10.173z M729.826,10.244c0-0.463-0.034-0.888-0.102-1.274
	s-0.174-0.718-0.32-0.993s-0.334-0.491-0.563-0.646s-0.501-0.233-0.817-0.233c-0.193,0-0.39,0.031-0.589,0.092
	s-0.406,0.164-0.619,0.308c-0.215,0.144-0.439,0.334-0.678,0.571c-0.236,0.237-0.49,0.532-0.76,0.883v4.28
	c0.299,0.117,0.604,0.209,0.914,0.277s0.606,0.101,0.888,0.101c0.352,0,0.687-0.056,1.007-0.167c0.318-0.111,0.6-0.297,0.844-0.558
	c0.242-0.261,0.436-0.606,0.58-1.037C729.753,11.417,729.826,10.882,729.826,10.244z"/>
<path fill="#99C21F" d="M733.297,10.516c0-0.75,0.103-1.417,0.308-2s0.496-1.075,0.875-1.477c0.377-0.401,0.831-0.706,1.361-0.914
	s1.121-0.312,1.771-0.312c0.281,0,0.559,0.018,0.83,0.053c0.273,0.035,0.541,0.091,0.805,0.167V2.325h1.538v12.419h-1.371
	l-0.053-1.67c-0.428,0.621-0.891,1.081-1.389,1.38s-1.037,0.448-1.617,0.448c-0.504,0-0.948-0.105-1.331-0.316
	c-0.385-0.211-0.703-0.508-0.959-0.892c-0.254-0.384-0.446-0.845-0.575-1.384S733.297,11.172,733.297,10.516z M734.862,10.419
	c0,1.066,0.156,1.862,0.47,2.386s0.758,0.787,1.332,0.787c0.387,0,0.795-0.173,1.227-0.519c0.43-0.346,0.883-0.858,1.357-1.538V7.44
	c-0.252-0.117-0.53-0.207-0.835-0.268s-0.606-0.092-0.905-0.092c-0.832,0-1.48,0.27-1.947,0.809
	C735.095,8.427,734.862,9.271,734.862,10.419z"/>
<path fill="#99C21F" d="M750.498,14.418c-0.398,0.152-0.808,0.265-1.227,0.338s-0.851,0.11-1.296,0.11
	c-1.395,0-2.469-0.378-3.222-1.134s-1.129-1.86-1.129-3.313c0-0.697,0.108-1.33,0.325-1.898s0.521-1.055,0.914-1.459
	s0.861-0.716,1.406-0.936s1.146-0.33,1.802-0.33c0.457,0,0.885,0.032,1.283,0.097s0.779,0.17,1.143,0.316v1.459
	c-0.381-0.199-0.77-0.344-1.164-0.435c-0.396-0.091-0.805-0.136-1.227-0.136c-0.393,0-0.764,0.075-1.111,0.224
	c-0.35,0.149-0.655,0.365-0.919,0.646s-0.472,0.624-0.624,1.028s-0.229,0.861-0.229,1.371c0,1.066,0.26,1.865,0.777,2.395
	c0.52,0.53,1.238,0.795,2.158,0.795c0.416,0,0.818-0.047,1.209-0.141c0.389-0.094,0.766-0.234,1.129-0.422V14.418z"/>
<path fill="#99C21F" d="M760.93,4.68l-4.816,10.063h-1.749l5.001-10.063h-6.205V3.256h7.77V4.68z"/>
<path fill="#99C21F" d="M770.792,14.744h-7.216V13.32h2.953V4.935l-2.751,1.494l-0.563-1.301l3.656-1.925h1.354V13.32h2.566V14.744z
	"/>
<path fill="#99C21F" d="M780.723,8.354c0,1.119-0.135,2.082-0.404,2.887s-0.668,1.468-1.195,1.986s-1.181,0.901-1.96,1.147
	s-1.679,0.369-2.698,0.369h-0.958v-1.336h1.063c0.756,0,1.409-0.076,1.96-0.229s1.009-0.376,1.375-0.672s0.646-0.656,0.84-1.081
	s0.313-0.91,0.36-1.455l0.035-0.36c-0.369,0.217-0.794,0.391-1.274,0.523s-1.002,0.198-1.564,0.198c-0.58,0-1.09-0.085-1.529-0.255
	s-0.805-0.407-1.094-0.712c-0.291-0.305-0.509-0.667-0.655-1.085s-0.22-0.875-0.22-1.367c0-0.533,0.097-1.031,0.29-1.494
	s0.464-0.866,0.813-1.208c0.348-0.343,0.766-0.614,1.252-0.813s1.022-0.299,1.608-0.299c0.568,0,1.095,0.094,1.577,0.281
	c0.484,0.188,0.901,0.491,1.253,0.91s0.627,0.962,0.826,1.63S780.723,7.399,780.723,8.354z M776.698,4.355
	c-0.328,0-0.632,0.054-0.909,0.163c-0.279,0.108-0.52,0.267-0.721,0.475c-0.203,0.208-0.362,0.464-0.479,0.769
	s-0.176,0.653-0.176,1.046c0,0.357,0.042,0.677,0.128,0.958c0.084,0.281,0.216,0.52,0.395,0.716s0.409,0.347,0.69,0.453
	s0.615,0.158,1.002,0.158c0.217,0,0.44-0.021,0.673-0.062c0.23-0.041,0.457-0.097,0.676-0.167c0.221-0.07,0.43-0.152,0.629-0.246
	s0.378-0.193,0.536-0.299c0-0.756-0.056-1.387-0.167-1.894s-0.272-0.914-0.483-1.222s-0.468-0.526-0.769-0.655
	C777.419,4.419,777.079,4.355,776.698,4.355z"/>
<path fill="#99C21F" d="M790.681,11.861c0,0.486-0.1,0.918-0.299,1.296s-0.478,0.696-0.835,0.954s-0.779,0.454-1.266,0.589
	s-1.014,0.202-1.582,0.202c-0.627,0-1.18-0.07-1.657-0.211s-0.877-0.337-1.199-0.589s-0.565-0.551-0.729-0.896
	s-0.246-0.727-0.246-1.143c0-0.703,0.196-1.31,0.589-1.819s0.999-0.973,1.819-1.389c-0.75-0.381-1.298-0.804-1.644-1.27
	s-0.519-1-0.519-1.604c0-0.369,0.076-0.727,0.229-1.072s0.382-0.653,0.69-0.923c0.307-0.27,0.692-0.485,1.155-0.646
	s1.008-0.242,1.635-0.242c0.592,0,1.112,0.063,1.56,0.189c0.449,0.126,0.825,0.306,1.13,0.541s0.533,0.519,0.686,0.853
	s0.229,0.706,0.229,1.116c0,0.668-0.187,1.236-0.558,1.705c-0.373,0.469-0.901,0.879-1.587,1.23c0.34,0.17,0.656,0.357,0.949,0.563
	s0.548,0.434,0.765,0.686s0.385,0.533,0.506,0.844C790.621,11.134,790.681,11.48,790.681,11.861z M789.02,11.975
	c0-0.217-0.035-0.428-0.105-0.633s-0.196-0.407-0.378-0.606s-0.425-0.398-0.729-0.598s-0.691-0.404-1.16-0.615
	c-0.398,0.193-0.733,0.385-1.007,0.576c-0.271,0.19-0.492,0.384-0.658,0.58c-0.168,0.196-0.286,0.4-0.356,0.611
	s-0.105,0.434-0.105,0.668c0,0.264,0.058,0.497,0.171,0.699c0.115,0.202,0.271,0.374,0.471,0.514s0.437,0.246,0.712,0.316
	s0.574,0.105,0.896,0.105c0.311,0,0.604-0.032,0.879-0.097s0.515-0.163,0.716-0.294c0.203-0.132,0.362-0.299,0.479-0.501
	S789.02,12.256,789.02,11.975z M788.862,5.919c0-0.521-0.184-0.91-0.55-1.165s-0.88-0.382-1.542-0.382
	c-0.656,0-1.168,0.126-1.534,0.378s-0.549,0.63-0.549,1.134c0,0.229,0.044,0.439,0.132,0.633s0.224,0.375,0.409,0.545
	c0.184,0.17,0.414,0.337,0.689,0.501s0.604,0.331,0.984,0.501c0.662-0.311,1.154-0.634,1.477-0.971S788.862,6.365,788.862,5.919z"/>
<path fill="#99C21F" d="M800.481,14.744h-7.216V13.32h2.953V4.935l-2.751,1.494l-0.563-1.301l3.656-1.925h1.354V13.32h2.566V14.744z
	"/>
<path fill="#99C21F" d="M810.474,9.866c0,0.217-0.003,0.398-0.009,0.545s-0.015,0.284-0.026,0.413h-6.196
	c0,0.902,0.252,1.595,0.756,2.079s1.23,0.725,2.18,0.725c0.258,0,0.516-0.01,0.773-0.031s0.507-0.048,0.747-0.083
	s0.471-0.075,0.689-0.119c0.221-0.044,0.424-0.092,0.611-0.145v1.257c-0.416,0.117-0.887,0.212-1.41,0.286
	c-0.525,0.073-1.068,0.11-1.631,0.11c-0.756,0-1.406-0.103-1.951-0.308s-0.992-0.502-1.34-0.892c-0.35-0.39-0.607-0.867-0.773-1.433
	c-0.168-0.565-0.251-1.206-0.251-1.92c0-0.621,0.089-1.208,0.269-1.762c0.178-0.554,0.439-1.04,0.781-1.459
	c0.344-0.419,0.764-0.751,1.262-0.998s1.063-0.369,1.696-0.369c0.615,0,1.16,0.097,1.635,0.29s0.874,0.467,1.2,0.822
	c0.324,0.354,0.57,0.785,0.738,1.292C810.39,8.672,810.474,9.239,810.474,9.866z M808.883,9.646
	c0.018-0.393-0.021-0.751-0.114-1.077s-0.239-0.605-0.436-0.839s-0.44-0.417-0.733-0.549s-0.633-0.198-1.02-0.198
	c-0.334,0-0.639,0.064-0.914,0.193s-0.513,0.311-0.712,0.545s-0.36,0.516-0.483,0.844s-0.199,0.688-0.229,1.081H808.883z"/>
<path fill="#99C21F" d="M820.511,11.105c0,0.527-0.096,1.022-0.285,1.485c-0.191,0.463-0.462,0.866-0.813,1.208
	s-0.775,0.612-1.271,0.809s-1.044,0.294-1.647,0.294c-0.633,0-1.192-0.101-1.679-0.303s-0.894-0.513-1.222-0.932
	s-0.577-0.948-0.747-1.586s-0.255-1.395-0.255-2.268c0-0.586,0.038-1.154,0.114-1.705s0.202-1.069,0.378-1.556
	s0.41-0.932,0.703-1.336s0.657-0.751,1.095-1.042c0.436-0.29,0.95-0.516,1.542-0.677s1.277-0.242,2.057-0.242h1.134v1.336h-1.23
	c-0.686,0-1.28,0.082-1.784,0.246s-0.926,0.396-1.266,0.694s-0.601,0.659-0.782,1.081s-0.296,0.894-0.343,1.415l-0.035,0.36
	c0.369-0.217,0.796-0.391,1.278-0.523c0.484-0.132,1.007-0.198,1.569-0.198c0.58,0,1.088,0.085,1.524,0.255s0.801,0.406,1.09,0.708
	c0.291,0.302,0.509,0.664,0.655,1.085S820.511,10.601,820.511,11.105z M818.912,11.202c0-0.352-0.043-0.669-0.127-0.954
	c-0.086-0.284-0.219-0.524-0.4-0.721s-0.412-0.349-0.689-0.457c-0.279-0.108-0.611-0.163-0.998-0.163
	c-0.223,0-0.448,0.021-0.677,0.062s-0.452,0.098-0.673,0.171c-0.219,0.073-0.429,0.157-0.628,0.25s-0.381,0.193-0.545,0.299
	c0,0.756,0.053,1.387,0.158,1.894s0.262,0.913,0.47,1.217s0.465,0.521,0.77,0.65s0.656,0.193,1.055,0.193
	c0.334,0,0.64-0.054,0.918-0.163s0.52-0.268,0.721-0.479c0.203-0.211,0.361-0.467,0.475-0.769
	C818.855,11.933,818.912,11.588,818.912,11.202z"/>
<path fill="#99C21F" d="M830.645,3.749c-0.803-0.17-1.494-0.255-2.074-0.255c-1.377,0-2.065,0.721-2.065,2.162v1.547h3.867v1.274
	h-3.867v6.267h-1.556V8.477h-2.839V7.203h2.839V5.744c0-2.35,1.225-3.524,3.674-3.524c0.609,0,1.283,0.07,2.021,0.211V3.749z"/>
<path fill="#99C21F" d="M840.164,9.866c0,0.217-0.003,0.398-0.009,0.545s-0.015,0.284-0.026,0.413h-6.196
	c0,0.902,0.252,1.595,0.756,2.079s1.23,0.725,2.18,0.725c0.258,0,0.516-0.01,0.773-0.031s0.507-0.048,0.747-0.083
	s0.471-0.075,0.689-0.119c0.221-0.044,0.424-0.092,0.611-0.145v1.257c-0.416,0.117-0.887,0.212-1.41,0.286
	c-0.525,0.073-1.068,0.11-1.631,0.11c-0.756,0-1.406-0.103-1.951-0.308s-0.992-0.502-1.34-0.892c-0.35-0.39-0.607-0.867-0.773-1.433
	c-0.168-0.565-0.251-1.206-0.251-1.92c0-0.621,0.089-1.208,0.269-1.762c0.178-0.554,0.439-1.04,0.781-1.459
	c0.344-0.419,0.764-0.751,1.262-0.998s1.063-0.369,1.696-0.369c0.615,0,1.16,0.097,1.635,0.29s0.874,0.467,1.2,0.822
	c0.324,0.354,0.57,0.785,0.738,1.292C840.08,8.672,840.164,9.239,840.164,9.866z M838.573,9.646
	c0.018-0.393-0.021-0.751-0.114-1.077s-0.239-0.605-0.436-0.839s-0.44-0.417-0.733-0.549s-0.633-0.198-1.02-0.198
	c-0.334,0-0.639,0.064-0.914,0.193s-0.513,0.311-0.712,0.545s-0.36,0.516-0.483,0.844s-0.199,0.688-0.229,1.081H838.573z"/>
<path fill="#99C21F" d="M850.06,11.861c0,0.486-0.1,0.918-0.299,1.296s-0.478,0.696-0.835,0.954s-0.779,0.454-1.266,0.589
	s-1.014,0.202-1.582,0.202c-0.627,0-1.18-0.07-1.657-0.211s-0.877-0.337-1.199-0.589s-0.565-0.551-0.729-0.896
	s-0.246-0.727-0.246-1.143c0-0.703,0.196-1.31,0.589-1.819s0.999-0.973,1.819-1.389c-0.75-0.381-1.298-0.804-1.644-1.27
	s-0.519-1-0.519-1.604c0-0.369,0.076-0.727,0.229-1.072s0.382-0.653,0.69-0.923c0.307-0.27,0.692-0.485,1.155-0.646
	s1.008-0.242,1.635-0.242c0.592,0,1.112,0.063,1.56,0.189c0.449,0.126,0.825,0.306,1.13,0.541s0.533,0.519,0.686,0.853
	s0.229,0.706,0.229,1.116c0,0.668-0.187,1.236-0.558,1.705c-0.373,0.469-0.901,0.879-1.587,1.23c0.34,0.17,0.656,0.357,0.949,0.563
	s0.548,0.434,0.765,0.686s0.385,0.533,0.506,0.844C850,11.134,850.06,11.48,850.06,11.861z M848.399,11.975
	c0-0.217-0.035-0.428-0.105-0.633s-0.196-0.407-0.378-0.606s-0.425-0.398-0.729-0.598s-0.691-0.404-1.16-0.615
	c-0.398,0.193-0.733,0.385-1.007,0.576c-0.271,0.19-0.492,0.384-0.658,0.58c-0.168,0.196-0.286,0.4-0.356,0.611
	s-0.105,0.434-0.105,0.668c0,0.264,0.058,0.497,0.171,0.699c0.115,0.202,0.271,0.374,0.471,0.514s0.437,0.246,0.712,0.316
	s0.574,0.105,0.896,0.105c0.311,0,0.604-0.032,0.879-0.097s0.515-0.163,0.716-0.294c0.203-0.132,0.362-0.299,0.479-0.501
	S848.399,12.256,848.399,11.975z M848.241,5.919c0-0.521-0.184-0.91-0.55-1.165s-0.88-0.382-1.542-0.382
	c-0.656,0-1.168,0.126-1.534,0.378s-0.549,0.63-0.549,1.134c0,0.229,0.044,0.439,0.132,0.633s0.224,0.375,0.409,0.545
	c0.184,0.17,0.414,0.337,0.689,0.501s0.604,0.331,0.984,0.501c0.662-0.311,1.154-0.634,1.477-0.971S848.241,6.365,848.241,5.919z"/>
<path fill="#99C21F" d="M859.957,11.861c0,0.486-0.1,0.918-0.299,1.296s-0.478,0.696-0.835,0.954s-0.779,0.454-1.266,0.589
	s-1.014,0.202-1.582,0.202c-0.627,0-1.18-0.07-1.657-0.211s-0.877-0.337-1.199-0.589s-0.565-0.551-0.729-0.896
	s-0.246-0.727-0.246-1.143c0-0.703,0.196-1.31,0.589-1.819s0.999-0.973,1.819-1.389c-0.75-0.381-1.298-0.804-1.644-1.27
	s-0.519-1-0.519-1.604c0-0.369,0.076-0.727,0.229-1.072s0.382-0.653,0.69-0.923c0.307-0.27,0.692-0.485,1.155-0.646
	s1.008-0.242,1.635-0.242c0.592,0,1.112,0.063,1.56,0.189c0.449,0.126,0.825,0.306,1.13,0.541s0.533,0.519,0.686,0.853
	s0.229,0.706,0.229,1.116c0,0.668-0.187,1.236-0.558,1.705c-0.373,0.469-0.901,0.879-1.587,1.23c0.34,0.17,0.656,0.357,0.949,0.563
	s0.548,0.434,0.765,0.686s0.385,0.533,0.506,0.844C859.896,11.134,859.957,11.48,859.957,11.861z M858.295,11.975
	c0-0.217-0.035-0.428-0.105-0.633s-0.196-0.407-0.378-0.606s-0.425-0.398-0.729-0.598s-0.691-0.404-1.16-0.615
	c-0.398,0.193-0.733,0.385-1.007,0.576c-0.271,0.19-0.492,0.384-0.658,0.58c-0.168,0.196-0.286,0.4-0.356,0.611
	s-0.105,0.434-0.105,0.668c0,0.264,0.058,0.497,0.171,0.699c0.115,0.202,0.271,0.374,0.471,0.514s0.437,0.246,0.712,0.316
	s0.574,0.105,0.896,0.105c0.311,0,0.604-0.032,0.879-0.097s0.515-0.163,0.716-0.294c0.203-0.132,0.362-0.299,0.479-0.501
	S858.295,12.256,858.295,11.975z M858.137,5.919c0-0.521-0.184-0.91-0.55-1.165s-0.88-0.382-1.542-0.382
	c-0.656,0-1.168,0.126-1.534,0.378s-0.549,0.63-0.549,1.134c0,0.229,0.044,0.439,0.132,0.633s0.224,0.375,0.409,0.545
	c0.184,0.17,0.414,0.337,0.689,0.501s0.604,0.331,0.984,0.501c0.662-0.311,1.154-0.634,1.477-0.971S858.137,6.365,858.137,5.919z"/>
<path fill="#99C21F" d="M869.853,9.866c0,0.217-0.003,0.398-0.009,0.545s-0.015,0.284-0.026,0.413h-6.196
	c0,0.902,0.252,1.595,0.756,2.079s1.23,0.725,2.18,0.725c0.258,0,0.516-0.01,0.773-0.031s0.507-0.048,0.747-0.083
	s0.471-0.075,0.689-0.119c0.221-0.044,0.424-0.092,0.611-0.145v1.257c-0.416,0.117-0.887,0.212-1.41,0.286
	c-0.525,0.073-1.068,0.11-1.631,0.11c-0.756,0-1.406-0.103-1.951-0.308s-0.992-0.502-1.34-0.892c-0.35-0.39-0.607-0.867-0.773-1.433
	c-0.168-0.565-0.251-1.206-0.251-1.92c0-0.621,0.089-1.208,0.269-1.762c0.178-0.554,0.439-1.04,0.781-1.459
	c0.344-0.419,0.764-0.751,1.262-0.998s1.063-0.369,1.696-0.369c0.615,0,1.16,0.097,1.635,0.29s0.874,0.467,1.2,0.822
	c0.324,0.354,0.57,0.785,0.738,1.292C869.769,8.672,869.853,9.239,869.853,9.866z M868.262,9.646
	c0.018-0.393-0.021-0.751-0.114-1.077s-0.239-0.605-0.436-0.839s-0.44-0.417-0.733-0.549s-0.633-0.198-1.02-0.198
	c-0.334,0-0.639,0.064-0.914,0.193s-0.513,0.311-0.712,0.545s-0.36,0.516-0.483,0.844s-0.199,0.688-0.229,1.081H868.262z"/>
<path fill="#99C21F" d="M879.53,11.254c0,0.504-0.103,0.977-0.308,1.419s-0.513,0.829-0.923,1.16s-0.926,0.592-1.547,0.782
	s-1.345,0.286-2.171,0.286c-0.457,0-0.867-0.015-1.23-0.044s-0.703-0.067-1.02-0.114v-1.371c0.363,0.064,0.747,0.114,1.151,0.149
	s0.817,0.053,1.239,0.053c0.574,0,1.064-0.051,1.473-0.154c0.406-0.103,0.739-0.25,0.997-0.444s0.445-0.428,0.563-0.703
	s0.176-0.586,0.176-0.932c0-0.316-0.07-0.592-0.211-0.826s-0.339-0.431-0.593-0.589c-0.256-0.158-0.561-0.277-0.914-0.356
	c-0.355-0.079-0.743-0.119-1.165-0.119h-1.31V8.196h1.327c0.346,0,0.66-0.045,0.944-0.136s0.527-0.221,0.73-0.391
	c0.201-0.17,0.356-0.379,0.465-0.628s0.163-0.532,0.163-0.848c0-0.615-0.188-1.063-0.563-1.345s-0.926-0.422-1.652-0.422
	c-0.387,0-0.785,0.038-1.195,0.114s-0.85,0.19-1.318,0.343V3.546c0.199-0.07,0.411-0.133,0.638-0.189
	c0.225-0.056,0.45-0.103,0.676-0.141s0.45-0.067,0.673-0.088s0.437-0.031,0.642-0.031c0.609,0,1.146,0.066,1.608,0.198
	s0.85,0.321,1.16,0.567s0.545,0.545,0.703,0.896s0.237,0.747,0.237,1.187c0,0.656-0.169,1.207-0.506,1.652s-0.798,0.8-1.384,1.063
	c0.299,0.047,0.593,0.141,0.884,0.281c0.289,0.141,0.55,0.321,0.781,0.541s0.419,0.479,0.563,0.778S879.53,10.891,879.53,11.254z"/>
<path d="M889.286,2.325l-6.029,14.309h-1.459l6.029-14.309H889.286z"/>
<path fill="#FFFFFF" d="M50.014,81.442l-3.222-5.454h-2.52v5.454h-0.828V69.58h3.402c0.588,0,1.122,0.057,1.602,0.171
	c0.48,0.114,0.888,0.297,1.224,0.549c0.335,0.252,0.597,0.576,0.783,0.972s0.279,0.876,0.279,1.44c0,0.948-0.273,1.692-0.819,2.232
	s-1.287,0.87-2.223,0.99l3.276,5.508H50.014z M46.63,75.304c1.056,0,1.863-0.213,2.421-0.639s0.837-1.077,0.837-1.953
	c0-0.888-0.282-1.515-0.846-1.881c-0.564-0.366-1.368-0.549-2.412-0.549h-2.358v5.022H46.63z"/>
<path fill="#FFFFFF" d="M56.242,81.658c-0.552,0-1.071-0.102-1.557-0.306c-0.486-0.204-0.909-0.501-1.269-0.891
	c-0.36-0.39-0.645-0.864-0.855-1.422c-0.21-0.558-0.315-1.191-0.315-1.899s0.105-1.344,0.315-1.908s0.492-1.041,0.846-1.431
	c0.354-0.39,0.756-0.69,1.206-0.9c0.45-0.21,0.915-0.315,1.395-0.315c1.032,0,1.842,0.348,2.43,1.044
	c0.588,0.696,0.882,1.68,0.882,2.952c0,0.108,0,0.216,0,0.324s-0.012,0.216-0.036,0.324h-6.228c0.012,0.54,0.096,1.041,0.252,1.503
	c0.156,0.462,0.375,0.858,0.657,1.188c0.282,0.33,0.621,0.588,1.017,0.774s0.84,0.279,1.332,0.279c0.468,0,0.891-0.069,1.269-0.207
	c0.378-0.138,0.729-0.327,1.053-0.567l0.324,0.612c-0.348,0.204-0.729,0.396-1.143,0.576C57.402,81.568,56.877,81.658,56.242,81.658
	z M58.563,76.582c0-1.116-0.228-1.947-0.684-2.493c-0.456-0.546-1.074-0.819-1.854-0.819c-0.372,0-0.726,0.075-1.062,0.225
	s-0.639,0.369-0.909,0.657s-0.492,0.636-0.666,1.044c-0.174,0.408-0.285,0.87-0.333,1.386H58.563z"/>
<path fill="#FFFFFF" d="M61.659,72.802h0.684l0.072,1.08h0.054c0.42-0.336,0.879-0.636,1.377-0.9
	c0.498-0.264,1.017-0.396,1.557-0.396c1.152,0,2.016,0.399,2.592,1.197c0.576,0.798,0.864,1.869,0.864,3.213
	c0,0.732-0.102,1.386-0.306,1.962c-0.204,0.576-0.483,1.065-0.837,1.467c-0.354,0.402-0.762,0.708-1.224,0.918
	c-0.462,0.21-0.945,0.315-1.449,0.315c-0.408,0-0.828-0.093-1.26-0.279c-0.432-0.186-0.876-0.447-1.332-0.783v4.752h-0.792V72.802z
	 M62.452,79.84c0.504,0.408,0.972,0.696,1.404,0.864s0.816,0.252,1.152,0.252c0.432,0,0.834-0.096,1.206-0.288
	s0.69-0.462,0.954-0.81c0.264-0.348,0.471-0.765,0.621-1.251c0.15-0.486,0.225-1.023,0.225-1.611c0-0.528-0.051-1.02-0.153-1.476
	s-0.261-0.849-0.477-1.179c-0.216-0.33-0.498-0.588-0.846-0.774c-0.348-0.186-0.768-0.279-1.26-0.279
	c-0.432,0-0.879,0.123-1.341,0.369c-0.462,0.246-0.957,0.597-1.485,1.053V79.84z"/>
<path fill="#FFFFFF" d="M74.602,81.658c-0.516,0-1.008-0.102-1.476-0.306c-0.468-0.204-0.879-0.498-1.233-0.882
	c-0.354-0.384-0.636-0.855-0.846-1.413c-0.21-0.558-0.315-1.197-0.315-1.917c0-0.72,0.105-1.365,0.315-1.935
	s0.492-1.047,0.846-1.431c0.354-0.384,0.765-0.678,1.233-0.882c0.468-0.204,0.96-0.306,1.476-0.306c0.516,0,1.011,0.102,1.485,0.306
	s0.888,0.498,1.242,0.882c0.354,0.384,0.636,0.861,0.846,1.431s0.315,1.215,0.315,1.935c0,0.72-0.105,1.359-0.315,1.917
	c-0.21,0.558-0.492,1.029-0.846,1.413c-0.354,0.384-0.768,0.678-1.242,0.882C75.612,81.556,75.117,81.658,74.602,81.658z
	 M74.602,80.956c0.432,0,0.837-0.093,1.215-0.279c0.378-0.186,0.702-0.447,0.972-0.783s0.483-0.738,0.639-1.206
	c0.156-0.468,0.234-0.984,0.234-1.548c0-0.576-0.079-1.098-0.234-1.566c-0.156-0.468-0.369-0.873-0.639-1.215
	s-0.594-0.606-0.972-0.792s-0.783-0.279-1.215-0.279c-0.432,0-0.834,0.093-1.206,0.279c-0.372,0.186-0.693,0.45-0.963,0.792
	s-0.483,0.747-0.639,1.215c-0.156,0.468-0.234,0.99-0.234,1.566c0,0.564,0.078,1.08,0.234,1.548c0.156,0.468,0.369,0.87,0.639,1.206
	s0.591,0.597,0.963,0.783C73.767,80.863,74.169,80.956,74.602,80.956z"/>
<path fill="#FFFFFF" d="M83.169,81.658c-0.648,0-1.242-0.117-1.782-0.351c-0.54-0.234-1.002-0.513-1.386-0.837l0.468-0.594
	c0.372,0.312,0.768,0.573,1.188,0.783c0.42,0.21,0.942,0.315,1.566,0.315c0.684,0,1.197-0.171,1.539-0.513
	c0.342-0.342,0.513-0.741,0.513-1.197c0-0.264-0.063-0.498-0.189-0.702s-0.291-0.378-0.495-0.522s-0.429-0.27-0.675-0.378
	c-0.246-0.108-0.495-0.21-0.747-0.306c-0.324-0.12-0.651-0.246-0.981-0.378c-0.331-0.132-0.627-0.291-0.891-0.477
	c-0.264-0.186-0.477-0.408-0.639-0.666c-0.162-0.258-0.243-0.573-0.243-0.945c0-0.312,0.06-0.609,0.18-0.891s0.3-0.528,0.54-0.738
	c0.24-0.209,0.531-0.375,0.873-0.495s0.741-0.18,1.197-0.18s0.903,0.084,1.341,0.252c0.438,0.168,0.813,0.384,1.125,0.648
	l-0.432,0.558c-0.288-0.216-0.594-0.399-0.918-0.549s-0.708-0.225-1.152-0.225c-0.336,0-0.624,0.045-0.864,0.135
	c-0.24,0.09-0.441,0.207-0.603,0.351c-0.162,0.144-0.282,0.312-0.36,0.504c-0.078,0.192-0.117,0.384-0.117,0.576
	c0,0.252,0.057,0.465,0.171,0.639c0.114,0.174,0.267,0.327,0.459,0.459c0.191,0.132,0.411,0.249,0.657,0.351
	c0.246,0.103,0.495,0.201,0.747,0.297c0.336,0.132,0.672,0.264,1.008,0.396s0.639,0.294,0.909,0.486s0.489,0.429,0.657,0.711
	c0.167,0.282,0.252,0.633,0.252,1.053c0,0.324-0.063,0.633-0.189,0.927c-0.126,0.294-0.315,0.552-0.567,0.774
	c-0.252,0.222-0.558,0.399-0.918,0.531C84.051,81.592,83.637,81.658,83.169,81.658z"/>
<path fill="#FFFFFF" d="M88.785,70.714c-0.204,0-0.375-0.066-0.513-0.198c-0.138-0.132-0.207-0.3-0.207-0.504
	c0-0.228,0.069-0.405,0.207-0.531c0.138-0.126,0.309-0.189,0.513-0.189s0.375,0.063,0.513,0.189
	c0.138,0.126,0.207,0.303,0.207,0.531c0,0.205-0.069,0.372-0.207,0.504C89.16,70.648,88.989,70.714,88.785,70.714z M88.371,72.802
	h0.792v8.64h-0.792V72.802z"/>
<path fill="#FFFFFF" d="M94.851,81.658c-0.42,0-0.768-0.063-1.044-0.189c-0.276-0.126-0.499-0.303-0.666-0.531
	c-0.168-0.228-0.285-0.504-0.351-0.828c-0.066-0.324-0.099-0.678-0.099-1.062v-5.562h-1.35v-0.612l1.368-0.072l0.108-2.502h0.684
	v2.502h2.502v0.684h-2.502v5.634c0,0.276,0.021,0.525,0.063,0.747c0.042,0.222,0.117,0.414,0.225,0.576s0.255,0.288,0.441,0.378
	c0.186,0.09,0.429,0.135,0.729,0.135c0.168,0,0.351-0.027,0.549-0.081c0.198-0.054,0.375-0.117,0.531-0.189l0.216,0.648
	c-0.252,0.096-0.504,0.174-0.756,0.234S95.031,81.658,94.851,81.658z"/>
<path fill="#FFFFFF" d="M101.061,81.658c-0.516,0-1.008-0.102-1.476-0.306c-0.468-0.204-0.879-0.498-1.233-0.882
	c-0.354-0.384-0.636-0.855-0.846-1.413c-0.21-0.558-0.315-1.197-0.315-1.917c0-0.72,0.105-1.365,0.315-1.935
	s0.492-1.047,0.846-1.431c0.354-0.384,0.765-0.678,1.233-0.882c0.468-0.204,0.96-0.306,1.476-0.306c0.516,0,1.011,0.102,1.485,0.306
	s0.888,0.498,1.242,0.882c0.354,0.384,0.636,0.861,0.846,1.431s0.315,1.215,0.315,1.935c0,0.72-0.105,1.359-0.315,1.917
	c-0.21,0.558-0.492,1.029-0.846,1.413c-0.354,0.384-0.768,0.678-1.242,0.882C102.072,81.556,101.577,81.658,101.061,81.658z
	 M101.061,80.956c0.432,0,0.837-0.093,1.215-0.279c0.378-0.186,0.702-0.447,0.972-0.783s0.483-0.738,0.639-1.206
	c0.156-0.468,0.234-0.984,0.234-1.548c0-0.576-0.079-1.098-0.234-1.566c-0.156-0.468-0.369-0.873-0.639-1.215
	s-0.594-0.606-0.972-0.792s-0.783-0.279-1.215-0.279c-0.432,0-0.834,0.093-1.206,0.279c-0.372,0.186-0.693,0.45-0.963,0.792
	s-0.483,0.747-0.639,1.215c-0.156,0.468-0.234,0.99-0.234,1.566c0,0.564,0.078,1.08,0.234,1.548c0.156,0.468,0.369,0.87,0.639,1.206
	s0.591,0.597,0.963,0.783C100.227,80.863,100.629,80.956,101.061,80.956z"/>
<path fill="#FFFFFF" d="M107.541,72.802h0.684l0.072,1.602h0.054c0.288-0.54,0.639-0.978,1.053-1.314s0.879-0.504,1.395-0.504
	c0.168,0,0.318,0.012,0.45,0.036c0.132,0.024,0.27,0.072,0.414,0.144l-0.18,0.72c-0.144-0.06-0.27-0.099-0.378-0.117
	c-0.108-0.018-0.246-0.027-0.414-0.027c-0.384,0-0.79,0.165-1.215,0.495s-0.807,0.903-1.143,1.719v5.886h-0.792V72.802z"/>
<path fill="#FFFFFF" d="M113.552,85.384c-0.324,0-0.618-0.06-0.882-0.18l0.18-0.702c0.096,0.036,0.204,0.069,0.324,0.099
	c0.12,0.03,0.246,0.045,0.378,0.045c0.54,0,0.99-0.216,1.35-0.648c0.36-0.432,0.648-0.979,0.864-1.638L116,81.604l-3.546-8.802
	h0.864l2.088,5.436c0.132,0.36,0.279,0.756,0.441,1.188s0.327,0.84,0.495,1.224h0.072c0.132-0.384,0.267-0.792,0.405-1.224
	c0.138-0.432,0.267-0.828,0.387-1.188l1.854-5.436h0.81l-3.42,9.72c-0.12,0.36-0.267,0.714-0.441,1.062
	c-0.174,0.348-0.378,0.654-0.612,0.918c-0.234,0.264-0.504,0.477-0.81,0.639C114.281,85.303,113.936,85.384,113.552,85.384z"/>
<path fill="#FFFFFF" d="M120.807,76.6h3.96v0.702h-3.96V76.6z"/>
<path fill="#FFFFFF" d="M131.336,81.658c-0.708,0-1.362-0.147-1.962-0.441s-1.116-0.711-1.548-1.251s-0.768-1.191-1.008-1.953
	c-0.24-0.762-0.36-1.611-0.36-2.547s0.12-1.779,0.36-2.529c0.24-0.75,0.576-1.392,1.008-1.926c0.432-0.534,0.948-0.942,1.548-1.224
	c0.6-0.282,1.254-0.423,1.962-0.423c0.72,0,1.38,0.141,1.98,0.423c0.6,0.282,1.116,0.69,1.548,1.224
	c0.432,0.534,0.768,1.176,1.008,1.926s0.36,1.593,0.36,2.529s-0.12,1.785-0.36,2.547c-0.24,0.762-0.576,1.413-1.008,1.953
	s-0.948,0.957-1.548,1.251C132.716,81.511,132.056,81.658,131.336,81.658z M131.336,80.902c0.6,0,1.146-0.129,1.638-0.387
	c0.492-0.258,0.915-0.624,1.269-1.098s0.627-1.044,0.819-1.71c0.191-0.666,0.288-1.413,0.288-2.241c0-0.816-0.096-1.554-0.288-2.214
	c-0.192-0.66-0.465-1.221-0.819-1.683s-0.777-0.819-1.269-1.071s-1.038-0.378-1.638-0.378c-0.601,0-1.149,0.126-1.647,0.378
	c-0.498,0.252-0.921,0.609-1.269,1.071c-0.348,0.462-0.618,1.023-0.81,1.683c-0.192,0.66-0.288,1.398-0.288,2.214
	c0,0.828,0.096,1.575,0.288,2.241c0.192,0.666,0.462,1.236,0.81,1.71c0.348,0.474,0.771,0.84,1.269,1.098
	C130.187,80.773,130.736,80.902,131.336,80.902z"/>
<path fill="#FFFFFF" d="M137.636,72.802h0.864l1.548,5.598c0.108,0.396,0.209,0.783,0.306,1.161s0.192,0.759,0.288,1.143h0.072
	c0.096-0.384,0.198-0.765,0.306-1.143s0.216-0.765,0.324-1.161l1.566-5.598h0.954l1.566,5.598c0.108,0.396,0.216,0.783,0.324,1.161
	c0.108,0.378,0.216,0.759,0.324,1.143h0.072c0.096-0.384,0.198-0.765,0.306-1.143s0.21-0.765,0.306-1.161l1.53-5.598h0.81
	l-2.484,8.64h-1.044l-1.512-5.364c-0.132-0.42-0.243-0.831-0.333-1.233c-0.09-0.402-0.201-0.813-0.333-1.233h-0.072
	c-0.096,0.42-0.201,0.837-0.315,1.251c-0.114,0.414-0.237,0.831-0.369,1.251l-1.494,5.328h-0.954L137.636,72.802z"/>
<path fill="#FFFFFF" d="M151.19,72.802h0.684l0.072,1.332H152c0.444-0.444,0.9-0.813,1.368-1.107
	c0.468-0.294,1.002-0.441,1.602-0.441c0.9,0,1.56,0.27,1.98,0.81c0.42,0.54,0.63,1.374,0.63,2.502v5.544h-0.792v-5.436
	c0-0.924-0.153-1.605-0.459-2.043s-0.813-0.657-1.521-0.657c-0.516,0-0.984,0.135-1.404,0.405c-0.42,0.27-0.894,0.675-1.422,1.215
	v6.516h-0.792V72.802z"/>
<path fill="#FFFFFF" d="M164.042,81.658c-0.552,0-1.071-0.102-1.557-0.306c-0.486-0.204-0.909-0.501-1.269-0.891
	c-0.36-0.39-0.645-0.864-0.855-1.422c-0.21-0.558-0.315-1.191-0.315-1.899s0.105-1.344,0.315-1.908s0.492-1.041,0.846-1.431
	c0.354-0.39,0.756-0.69,1.206-0.9c0.45-0.21,0.915-0.315,1.395-0.315c1.032,0,1.842,0.348,2.43,1.044
	c0.588,0.696,0.882,1.68,0.882,2.952c0,0.108,0,0.216,0,0.324s-0.012,0.216-0.036,0.324h-6.228c0.012,0.54,0.096,1.041,0.252,1.503
	c0.156,0.462,0.375,0.858,0.657,1.188c0.282,0.33,0.621,0.588,1.017,0.774s0.84,0.279,1.332,0.279c0.468,0,0.891-0.069,1.269-0.207
	c0.378-0.138,0.729-0.327,1.053-0.567l0.324,0.612c-0.348,0.204-0.729,0.396-1.143,0.576
	C165.203,81.568,164.678,81.658,164.042,81.658z M166.364,76.582c0-1.116-0.228-1.947-0.684-2.493
	c-0.456-0.546-1.074-0.819-1.854-0.819c-0.372,0-0.726,0.075-1.062,0.225s-0.639,0.369-0.909,0.657s-0.492,0.636-0.666,1.044
	c-0.174,0.408-0.285,0.87-0.333,1.386H166.364z"/>
<path fill="#FFFFFF" d="M169.459,72.802h0.684l0.072,1.602h0.054c0.288-0.54,0.639-0.978,1.053-1.314s0.879-0.504,1.395-0.504
	c0.168,0,0.318,0.012,0.45,0.036c0.132,0.024,0.27,0.072,0.414,0.144l-0.18,0.72c-0.144-0.06-0.27-0.099-0.378-0.117
	c-0.108-0.018-0.246-0.027-0.414-0.027c-0.384,0-0.79,0.165-1.215,0.495s-0.807,0.903-1.143,1.719v5.886h-0.792V72.802z"/>
<line fill="none" stroke="#1D9CCB" stroke-width="3" stroke-miterlimit="10" x1="92.465" y1="68.232" x2="120.372" y2="21.721"/>
<line fill="none" stroke="#1D9CCB" stroke-width="3" stroke-miterlimit="10" x1="77.163" y1="21.721" x2="160.302" y2="21.721"/>
<rect x="252.884" y="60.092" fill="#E77806" width="152.326" height="31.977"/>
<path fill="#FFFFFF" d="M272.665,81.442l-3.222-5.454h-2.52v5.454h-0.828V69.58h3.402c0.588,0,1.122,0.057,1.602,0.171
	c0.48,0.114,0.888,0.297,1.224,0.549c0.335,0.252,0.597,0.576,0.783,0.972s0.279,0.876,0.279,1.44c0,0.948-0.273,1.692-0.819,2.232
	s-1.287,0.87-2.223,0.99l3.276,5.508H272.665z M269.281,75.304c1.056,0,1.863-0.213,2.421-0.639s0.837-1.077,0.837-1.953
	c0-0.888-0.282-1.515-0.846-1.881c-0.564-0.366-1.368-0.549-2.412-0.549h-2.358v5.022H269.281z"/>
<path fill="#FFFFFF" d="M278.893,81.658c-0.552,0-1.071-0.102-1.557-0.306c-0.486-0.204-0.909-0.501-1.269-0.891
	c-0.36-0.39-0.645-0.864-0.855-1.422c-0.21-0.558-0.315-1.191-0.315-1.899s0.105-1.344,0.315-1.908s0.492-1.041,0.846-1.431
	c0.354-0.39,0.756-0.69,1.206-0.9c0.45-0.21,0.915-0.315,1.395-0.315c1.032,0,1.842,0.348,2.43,1.044
	c0.588,0.696,0.882,1.68,0.882,2.952c0,0.108,0,0.216,0,0.324s-0.012,0.216-0.036,0.324h-6.228c0.012,0.54,0.096,1.041,0.252,1.503
	c0.156,0.462,0.375,0.858,0.657,1.188c0.282,0.33,0.621,0.588,1.017,0.774s0.84,0.279,1.332,0.279c0.468,0,0.891-0.069,1.269-0.207
	c0.378-0.138,0.729-0.327,1.053-0.567l0.324,0.612c-0.348,0.204-0.729,0.396-1.143,0.576
	C280.054,81.568,279.529,81.658,278.893,81.658z M281.215,76.582c0-1.116-0.228-1.947-0.684-2.493
	c-0.456-0.546-1.074-0.819-1.854-0.819c-0.372,0-0.726,0.075-1.062,0.225s-0.639,0.369-0.909,0.657s-0.492,0.636-0.666,1.044
	c-0.174,0.408-0.285,0.87-0.333,1.386H281.215z"/>
<path fill="#FFFFFF" d="M284.311,72.802h0.684l0.072,1.08h0.054c0.42-0.336,0.879-0.636,1.377-0.9
	c0.498-0.264,1.017-0.396,1.557-0.396c1.152,0,2.016,0.399,2.592,1.197c0.576,0.798,0.864,1.869,0.864,3.213
	c0,0.732-0.102,1.386-0.306,1.962c-0.204,0.576-0.483,1.065-0.837,1.467c-0.354,0.402-0.762,0.708-1.224,0.918
	c-0.462,0.21-0.945,0.315-1.449,0.315c-0.408,0-0.828-0.093-1.26-0.279c-0.432-0.186-0.876-0.447-1.332-0.783v4.752h-0.792V72.802z
	 M285.103,79.84c0.504,0.408,0.972,0.696,1.404,0.864s0.816,0.252,1.152,0.252c0.432,0,0.834-0.096,1.206-0.288
	s0.69-0.462,0.954-0.81c0.264-0.348,0.471-0.765,0.621-1.251c0.15-0.486,0.225-1.023,0.225-1.611c0-0.528-0.051-1.02-0.153-1.476
	s-0.261-0.849-0.477-1.179c-0.216-0.33-0.498-0.588-0.846-0.774c-0.348-0.186-0.768-0.279-1.26-0.279
	c-0.432,0-0.879,0.123-1.341,0.369c-0.462,0.246-0.957,0.597-1.485,1.053V79.84z"/>
<path fill="#FFFFFF" d="M297.253,81.658c-0.516,0-1.008-0.102-1.476-0.306c-0.468-0.204-0.879-0.498-1.233-0.882
	c-0.354-0.384-0.636-0.855-0.846-1.413c-0.21-0.558-0.315-1.197-0.315-1.917c0-0.72,0.105-1.365,0.315-1.935
	s0.492-1.047,0.846-1.431c0.354-0.384,0.765-0.678,1.233-0.882c0.468-0.204,0.96-0.306,1.476-0.306c0.516,0,1.011,0.102,1.485,0.306
	s0.888,0.498,1.242,0.882c0.354,0.384,0.636,0.861,0.846,1.431s0.315,1.215,0.315,1.935c0,0.72-0.105,1.359-0.315,1.917
	c-0.21,0.558-0.492,1.029-0.846,1.413c-0.354,0.384-0.768,0.678-1.242,0.882C298.264,81.556,297.769,81.658,297.253,81.658z
	 M297.253,80.956c0.432,0,0.837-0.093,1.215-0.279c0.378-0.186,0.702-0.447,0.972-0.783s0.483-0.738,0.639-1.206
	c0.156-0.468,0.234-0.984,0.234-1.548c0-0.576-0.079-1.098-0.234-1.566c-0.156-0.468-0.369-0.873-0.639-1.215
	s-0.594-0.606-0.972-0.792s-0.783-0.279-1.215-0.279c-0.432,0-0.834,0.093-1.206,0.279c-0.372,0.186-0.693,0.45-0.963,0.792
	s-0.483,0.747-0.639,1.215c-0.156,0.468-0.234,0.99-0.234,1.566c0,0.564,0.078,1.08,0.234,1.548c0.156,0.468,0.369,0.87,0.639,1.206
	s0.591,0.597,0.963,0.783C296.418,80.863,296.821,80.956,297.253,80.956z"/>
<path fill="#FFFFFF" d="M305.821,81.658c-0.648,0-1.242-0.117-1.782-0.351c-0.54-0.234-1.002-0.513-1.386-0.837l0.468-0.594
	c0.372,0.312,0.768,0.573,1.188,0.783c0.42,0.21,0.942,0.315,1.566,0.315c0.684,0,1.197-0.171,1.539-0.513
	c0.342-0.342,0.513-0.741,0.513-1.197c0-0.264-0.063-0.498-0.189-0.702s-0.291-0.378-0.495-0.522s-0.429-0.27-0.675-0.378
	c-0.246-0.108-0.495-0.21-0.747-0.306c-0.324-0.12-0.651-0.246-0.981-0.378c-0.331-0.132-0.627-0.291-0.891-0.477
	c-0.264-0.186-0.477-0.408-0.639-0.666c-0.162-0.258-0.243-0.573-0.243-0.945c0-0.312,0.06-0.609,0.18-0.891s0.3-0.528,0.54-0.738
	c0.24-0.209,0.531-0.375,0.873-0.495s0.741-0.18,1.197-0.18s0.903,0.084,1.341,0.252c0.438,0.168,0.813,0.384,1.125,0.648
	l-0.432,0.558c-0.288-0.216-0.594-0.399-0.918-0.549s-0.708-0.225-1.152-0.225c-0.336,0-0.624,0.045-0.864,0.135
	c-0.24,0.09-0.441,0.207-0.603,0.351c-0.162,0.144-0.282,0.312-0.36,0.504c-0.078,0.192-0.117,0.384-0.117,0.576
	c0,0.252,0.057,0.465,0.171,0.639c0.114,0.174,0.267,0.327,0.459,0.459c0.191,0.132,0.411,0.249,0.657,0.351
	c0.246,0.103,0.495,0.201,0.747,0.297c0.336,0.132,0.672,0.264,1.008,0.396s0.639,0.294,0.909,0.486s0.489,0.429,0.657,0.711
	c0.167,0.282,0.252,0.633,0.252,1.053c0,0.324-0.063,0.633-0.189,0.927c-0.126,0.294-0.315,0.552-0.567,0.774
	c-0.252,0.222-0.558,0.399-0.918,0.531C306.703,81.592,306.289,81.658,305.821,81.658z"/>
<path fill="#FFFFFF" d="M311.436,70.714c-0.204,0-0.375-0.066-0.513-0.198c-0.138-0.132-0.207-0.3-0.207-0.504
	c0-0.228,0.069-0.405,0.207-0.531c0.138-0.126,0.309-0.189,0.513-0.189s0.375,0.063,0.513,0.189
	c0.138,0.126,0.207,0.303,0.207,0.531c0,0.205-0.069,0.372-0.207,0.504C311.811,70.648,311.64,70.714,311.436,70.714z
	 M311.022,72.802h0.792v8.64h-0.792V72.802z"/>
<path fill="#FFFFFF" d="M317.502,81.658c-0.42,0-0.768-0.063-1.044-0.189c-0.276-0.126-0.499-0.303-0.666-0.531
	c-0.168-0.228-0.285-0.504-0.351-0.828c-0.066-0.324-0.099-0.678-0.099-1.062v-5.562h-1.35v-0.612l1.368-0.072l0.108-2.502h0.684
	v2.502h2.502v0.684h-2.502v5.634c0,0.276,0.021,0.525,0.063,0.747c0.042,0.222,0.117,0.414,0.225,0.576s0.255,0.288,0.441,0.378
	c0.186,0.09,0.429,0.135,0.729,0.135c0.168,0,0.351-0.027,0.549-0.081c0.198-0.054,0.375-0.117,0.531-0.189l0.216,0.648
	c-0.252,0.096-0.504,0.174-0.756,0.234S317.682,81.658,317.502,81.658z"/>
<path fill="#FFFFFF" d="M323.712,81.658c-0.516,0-1.008-0.102-1.476-0.306c-0.468-0.204-0.879-0.498-1.233-0.882
	c-0.354-0.384-0.636-0.855-0.846-1.413c-0.21-0.558-0.315-1.197-0.315-1.917c0-0.72,0.105-1.365,0.315-1.935
	s0.492-1.047,0.846-1.431c0.354-0.384,0.765-0.678,1.233-0.882c0.468-0.204,0.96-0.306,1.476-0.306c0.516,0,1.011,0.102,1.485,0.306
	s0.888,0.498,1.242,0.882c0.354,0.384,0.636,0.861,0.846,1.431s0.315,1.215,0.315,1.935c0,0.72-0.105,1.359-0.315,1.917
	c-0.21,0.558-0.492,1.029-0.846,1.413c-0.354,0.384-0.768,0.678-1.242,0.882C324.723,81.556,324.228,81.658,323.712,81.658z
	 M323.712,80.956c0.432,0,0.837-0.093,1.215-0.279c0.378-0.186,0.702-0.447,0.972-0.783s0.483-0.738,0.639-1.206
	c0.156-0.468,0.234-0.984,0.234-1.548c0-0.576-0.079-1.098-0.234-1.566c-0.156-0.468-0.369-0.873-0.639-1.215
	s-0.594-0.606-0.972-0.792s-0.783-0.279-1.215-0.279c-0.432,0-0.834,0.093-1.206,0.279c-0.372,0.186-0.693,0.45-0.963,0.792
	s-0.483,0.747-0.639,1.215c-0.156,0.468-0.234,0.99-0.234,1.566c0,0.564,0.078,1.08,0.234,1.548c0.156,0.468,0.369,0.87,0.639,1.206
	s0.591,0.597,0.963,0.783C322.878,80.863,323.28,80.956,323.712,80.956z"/>
<path fill="#FFFFFF" d="M330.192,72.802h0.684l0.072,1.602h0.054c0.288-0.54,0.639-0.978,1.053-1.314s0.879-0.504,1.395-0.504
	c0.168,0,0.318,0.012,0.45,0.036c0.132,0.024,0.27,0.072,0.414,0.144l-0.18,0.72c-0.144-0.06-0.27-0.099-0.378-0.117
	c-0.108-0.018-0.246-0.027-0.414-0.027c-0.384,0-0.79,0.165-1.215,0.495s-0.807,0.903-1.143,1.719v5.886h-0.792V72.802z"/>
<path fill="#FFFFFF" d="M336.204,85.384c-0.324,0-0.618-0.06-0.882-0.18l0.18-0.702c0.096,0.036,0.204,0.069,0.324,0.099
	c0.12,0.03,0.246,0.045,0.378,0.045c0.54,0,0.99-0.216,1.35-0.648c0.36-0.432,0.648-0.979,0.864-1.638l0.234-0.756l-3.546-8.802
	h0.864l2.088,5.436c0.132,0.36,0.279,0.756,0.441,1.188s0.327,0.84,0.495,1.224h0.072c0.132-0.384,0.267-0.792,0.405-1.224
	c0.138-0.432,0.267-0.828,0.387-1.188l1.854-5.436h0.81l-3.42,9.72c-0.12,0.36-0.267,0.714-0.441,1.062
	c-0.174,0.348-0.378,0.654-0.612,0.918c-0.234,0.264-0.504,0.477-0.81,0.639C336.933,85.303,336.587,85.384,336.204,85.384z"/>
<path fill="#FFFFFF" d="M343.458,76.6h3.96v0.702h-3.96V76.6z"/>
<path fill="#FFFFFF" d="M349.866,69.58h0.864l5.004,8.37l1.332,2.358h0.072c-0.024-0.576-0.048-1.152-0.072-1.728
	c-0.024-0.576-0.036-1.152-0.036-1.728V69.58h0.792v11.862h-0.864l-5.004-8.37l-1.332-2.358h-0.072
	c0.024,0.576,0.048,1.137,0.072,1.683s0.036,1.107,0.036,1.683v7.362h-0.792V69.58z"/>
<path fill="#FFFFFF" d="M363.113,81.658c-0.348,0-0.672-0.048-0.972-0.144c-0.3-0.096-0.564-0.24-0.792-0.432
	c-0.229-0.192-0.408-0.438-0.54-0.738c-0.132-0.3-0.198-0.654-0.198-1.062c0-0.96,0.447-1.689,1.341-2.187
	c0.894-0.498,2.307-0.855,4.239-1.071c0-0.324-0.024-0.651-0.072-0.981s-0.15-0.624-0.306-0.882c-0.156-0.258-0.366-0.468-0.63-0.63
	c-0.264-0.162-0.612-0.243-1.044-0.243c-0.576,0-1.104,0.114-1.584,0.342s-0.87,0.45-1.17,0.666l-0.36-0.594
	c0.156-0.108,0.345-0.228,0.567-0.36c0.222-0.132,0.471-0.252,0.747-0.36c0.276-0.108,0.576-0.201,0.9-0.279
	c0.324-0.078,0.66-0.117,1.008-0.117c0.504,0,0.93,0.087,1.278,0.261c0.348,0.174,0.63,0.412,0.846,0.711
	c0.216,0.3,0.372,0.651,0.468,1.053c0.096,0.402,0.144,0.837,0.144,1.305v5.526h-0.684l-0.072-1.116h-0.054
	c-0.444,0.349-0.921,0.657-1.431,0.927C364.232,81.523,363.689,81.658,363.113,81.658z M363.257,80.974
	c0.504,0,0.984-0.12,1.44-0.36c0.456-0.24,0.954-0.588,1.494-1.044v-2.934c-0.888,0.108-1.638,0.24-2.25,0.396
	c-0.612,0.156-1.104,0.342-1.476,0.558s-0.639,0.462-0.801,0.738c-0.162,0.276-0.243,0.582-0.243,0.918
	c0,0.312,0.048,0.576,0.144,0.792c0.096,0.216,0.228,0.393,0.396,0.531c0.168,0.138,0.363,0.24,0.585,0.306
	C362.768,80.941,363.005,80.974,363.257,80.974z"/>
<path fill="#FFFFFF" d="M370.061,72.802h0.684l0.072,1.332h0.054c0.384-0.444,0.813-0.813,1.287-1.107
	c0.474-0.294,0.951-0.441,1.431-0.441c0.696,0,1.23,0.159,1.602,0.477c0.372,0.318,0.636,0.747,0.792,1.287
	c0.504-0.54,0.993-0.969,1.467-1.287s0.963-0.477,1.467-0.477c1.728,0,2.592,1.104,2.592,3.312v5.544h-0.81v-5.436
	c0-0.924-0.156-1.605-0.468-2.043c-0.313-0.438-0.798-0.657-1.458-0.657c-0.78,0-1.645,0.54-2.592,1.62v6.516h-0.792v-5.436
	c0-0.924-0.156-1.605-0.468-2.043c-0.313-0.438-0.804-0.657-1.476-0.657c-0.78,0-1.644,0.54-2.592,1.62v6.516h-0.792V72.802z"/>
<path fill="#FFFFFF" d="M387.953,81.658c-0.552,0-1.071-0.102-1.557-0.306c-0.486-0.204-0.909-0.501-1.269-0.891
	c-0.36-0.39-0.645-0.864-0.855-1.422c-0.21-0.558-0.315-1.191-0.315-1.899s0.105-1.344,0.315-1.908s0.492-1.041,0.846-1.431
	c0.354-0.39,0.756-0.69,1.206-0.9c0.45-0.21,0.915-0.315,1.395-0.315c1.032,0,1.842,0.348,2.43,1.044
	c0.588,0.696,0.882,1.68,0.882,2.952c0,0.108,0,0.216,0,0.324s-0.012,0.216-0.036,0.324h-6.228c0.012,0.54,0.096,1.041,0.252,1.503
	c0.156,0.462,0.375,0.858,0.657,1.188c0.282,0.33,0.621,0.588,1.017,0.774s0.84,0.279,1.332,0.279c0.468,0,0.891-0.069,1.269-0.207
	c0.378-0.138,0.729-0.327,1.053-0.567l0.324,0.612c-0.348,0.204-0.729,0.396-1.143,0.576
	C389.114,81.568,388.589,81.658,387.953,81.658z M390.275,76.582c0-1.116-0.228-1.947-0.684-2.493
	c-0.456-0.546-1.074-0.819-1.854-0.819c-0.372,0-0.726,0.075-1.062,0.225s-0.639,0.369-0.909,0.657s-0.492,0.636-0.666,1.044
	c-0.174,0.408-0.285,0.87-0.333,1.386H390.275z"/>
<line fill="none" stroke="#E77806" stroke-width="3" stroke-miterlimit="10" x1="315.116" y1="68.233" x2="343.023" y2="21.721"/>
<line fill="none" stroke="#E77806" stroke-width="3" stroke-miterlimit="10" x1="264.349" y1="21.721" x2="553.489" y2="21.721"/>
<rect x="542.836" y="60.092" fill="#99C21F" width="108.326" height="31.977"/>
<path fill="#FFFFFF" d="M563.17,81.658c-0.709,0-1.362-0.147-1.963-0.441c-0.6-0.294-1.115-0.711-1.547-1.251
	c-0.433-0.54-0.769-1.191-1.008-1.953c-0.24-0.762-0.36-1.611-0.36-2.547s0.12-1.779,0.36-2.529c0.239-0.75,0.575-1.392,1.008-1.926
	c0.432-0.534,0.947-0.942,1.547-1.224c0.601-0.282,1.254-0.423,1.963-0.423c0.72,0,1.38,0.141,1.98,0.423
	c0.6,0.282,1.115,0.69,1.547,1.224c0.433,0.534,0.768,1.176,1.008,1.926s0.361,1.593,0.361,2.529s-0.121,1.785-0.361,2.547
	c-0.24,0.762-0.575,1.413-1.008,1.953c-0.432,0.54-0.947,0.957-1.547,1.251C564.55,81.511,563.89,81.658,563.17,81.658z
	 M563.17,80.902c0.6,0,1.146-0.129,1.638-0.387c0.492-0.258,0.915-0.624,1.269-1.098c0.354-0.474,0.627-1.044,0.82-1.71
	c0.191-0.666,0.287-1.413,0.287-2.241c0-0.816-0.096-1.554-0.287-2.214c-0.193-0.66-0.466-1.221-0.82-1.683
	c-0.354-0.462-0.776-0.819-1.269-1.071s-1.038-0.378-1.638-0.378c-0.601,0-1.149,0.126-1.646,0.378
	c-0.498,0.252-0.922,0.609-1.27,1.071s-0.618,1.023-0.811,1.683c-0.191,0.66-0.287,1.398-0.287,2.214
	c0,0.828,0.096,1.575,0.287,2.241c0.192,0.666,0.463,1.236,0.811,1.71s0.771,0.84,1.27,1.098
	C562.021,80.773,562.57,80.902,563.17,80.902z"/>
<path fill="#FFFFFF" d="M574.079,81.658c-0.421,0-0.855-0.099-1.306-0.297c-0.45-0.198-0.879-0.465-1.286-0.801h-0.037l-0.09,0.882
	h-0.666V68.5h0.793v3.744l-0.037,1.692c0.444-0.372,0.918-0.69,1.422-0.954c0.504-0.264,1.026-0.396,1.566-0.396
	c1.152,0,2.016,0.399,2.592,1.197c0.576,0.798,0.864,1.869,0.864,3.213c0,0.732-0.103,1.386-0.306,1.962
	c-0.205,0.576-0.483,1.065-0.838,1.467c-0.354,0.402-0.762,0.708-1.224,0.918C575.065,81.553,574.583,81.658,574.079,81.658z
	 M574.042,80.956c0.433,0,0.834-0.096,1.207-0.288c0.371-0.192,0.689-0.462,0.953-0.81s0.471-0.765,0.621-1.251
	s0.225-1.023,0.225-1.611c0-0.528-0.051-1.02-0.152-1.476s-0.261-0.849-0.477-1.179c-0.217-0.33-0.498-0.588-0.846-0.774
	c-0.349-0.186-0.769-0.279-1.261-0.279c-0.433,0-0.882,0.123-1.351,0.369c-0.467,0.246-0.959,0.597-1.475,1.053v5.13
	c0.479,0.408,0.941,0.696,1.385,0.864C573.316,80.872,573.706,80.956,574.042,80.956z"/>
<path fill="#FFFFFF" d="M583.762,69.22c-0.18-0.096-0.357-0.162-0.531-0.198s-0.346-0.054-0.514-0.054
	c-0.455,0-0.795,0.168-1.016,0.504c-0.223,0.336-0.334,0.822-0.334,1.458v1.872h1.998v0.684h-1.998v7.956h-0.791v-7.956h-1.188
	v-0.612l1.188-0.072v-1.926c0-0.864,0.186-1.512,0.557-1.944c0.373-0.432,0.9-0.648,1.584-0.648c0.42,0,0.84,0.096,1.261,0.288
	L583.762,69.22z"/>
<path fill="#FFFFFF" d="M587.668,81.658c-0.9,0-1.561-0.27-1.98-0.81c-0.42-0.54-0.631-1.374-0.631-2.502v-5.544h0.793v5.436
	c0,0.924,0.152,1.605,0.459,2.043c0.306,0.438,0.807,0.657,1.503,0.657c0.516,0,0.983-0.141,1.403-0.423
	c0.42-0.282,0.883-0.729,1.387-1.341v-6.372h0.792v8.64h-0.666l-0.091-1.44h-0.035c-0.42,0.504-0.864,0.906-1.332,1.206
	C588.801,81.508,588.268,81.658,587.668,81.658z"/>
<path fill="#FFFFFF" d="M596.793,81.658c-0.648,0-1.242-0.117-1.782-0.351c-0.54-0.234-1.002-0.513-1.386-0.837l0.468-0.594
	c0.372,0.312,0.769,0.573,1.188,0.783c0.42,0.21,0.941,0.315,1.565,0.315c0.685,0,1.197-0.171,1.539-0.513
	c0.343-0.342,0.513-0.741,0.513-1.197c0-0.264-0.063-0.498-0.188-0.702s-0.291-0.378-0.495-0.522s-0.43-0.27-0.675-0.378
	c-0.246-0.108-0.495-0.21-0.747-0.306c-0.324-0.12-0.651-0.246-0.98-0.378c-0.331-0.132-0.628-0.291-0.892-0.477
	c-0.265-0.186-0.478-0.408-0.64-0.666c-0.162-0.258-0.242-0.573-0.242-0.945c0-0.312,0.06-0.609,0.18-0.891s0.3-0.528,0.54-0.738
	c0.239-0.209,0.531-0.375,0.873-0.495s0.741-0.18,1.196-0.18c0.457,0,0.903,0.084,1.342,0.252c0.438,0.168,0.813,0.384,1.125,0.648
	l-0.432,0.558c-0.289-0.216-0.594-0.399-0.918-0.549s-0.709-0.225-1.152-0.225c-0.336,0-0.624,0.045-0.864,0.135
	c-0.24,0.09-0.44,0.207-0.603,0.351s-0.282,0.312-0.36,0.504c-0.078,0.192-0.117,0.384-0.117,0.576c0,0.252,0.058,0.465,0.171,0.639
	c0.114,0.174,0.268,0.327,0.459,0.459c0.191,0.132,0.411,0.249,0.657,0.351c0.246,0.103,0.495,0.201,0.747,0.297
	c0.336,0.132,0.672,0.264,1.008,0.396s0.639,0.294,0.909,0.486s0.489,0.429,0.657,0.711c0.168,0.282,0.252,0.633,0.252,1.053
	c0,0.324-0.063,0.633-0.189,0.927c-0.125,0.294-0.314,0.552-0.566,0.774c-0.252,0.222-0.559,0.399-0.918,0.531
	C597.675,81.592,597.261,81.658,596.793,81.658z"/>
<path fill="#FFFFFF" d="M605.2,81.658c-0.564,0-1.084-0.102-1.557-0.306c-0.475-0.204-0.889-0.498-1.242-0.882
	c-0.354-0.384-0.631-0.855-0.828-1.413c-0.198-0.558-0.297-1.197-0.297-1.917c0-0.72,0.107-1.365,0.323-1.935
	s0.505-1.047,0.864-1.431c0.359-0.384,0.777-0.678,1.251-0.882s0.975-0.306,1.503-0.306c0.6,0,1.098,0.108,1.494,0.324
	c0.396,0.216,0.744,0.462,1.044,0.738l-0.468,0.558c-0.276-0.264-0.582-0.483-0.918-0.657c-0.336-0.174-0.715-0.261-1.135-0.261
	c-0.443,0-0.854,0.093-1.232,0.279s-0.709,0.45-0.99,0.792s-0.504,0.747-0.666,1.215c-0.162,0.468-0.242,0.99-0.242,1.566
	c0,0.564,0.074,1.08,0.225,1.548c0.149,0.468,0.359,0.87,0.63,1.206s0.6,0.597,0.989,0.783c0.391,0.187,0.82,0.279,1.287,0.279
	c0.457,0,0.879-0.096,1.27-0.288c0.39-0.192,0.734-0.426,1.035-0.702l0.414,0.558c-0.373,0.324-0.786,0.594-1.242,0.81
	C606.255,81.55,605.75,81.658,605.2,81.658z"/>
<path fill="#FFFFFF" d="M611.788,81.658c-0.348,0-0.672-0.048-0.972-0.144c-0.3-0.096-0.564-0.24-0.792-0.432
	c-0.229-0.192-0.408-0.438-0.54-0.738c-0.132-0.3-0.198-0.654-0.198-1.062c0-0.96,0.447-1.689,1.341-2.187
	c0.894-0.498,2.308-0.855,4.239-1.071c0-0.324-0.024-0.651-0.072-0.981s-0.15-0.624-0.306-0.882c-0.156-0.258-0.366-0.468-0.63-0.63
	s-0.612-0.243-1.045-0.243c-0.575,0-1.104,0.114-1.584,0.342c-0.479,0.228-0.869,0.45-1.17,0.666l-0.359-0.594
	c0.156-0.108,0.345-0.228,0.566-0.36c0.223-0.132,0.471-0.252,0.748-0.36c0.275-0.108,0.576-0.201,0.899-0.279
	c0.324-0.078,0.66-0.117,1.009-0.117c0.504,0,0.93,0.087,1.277,0.261c0.348,0.174,0.63,0.412,0.846,0.711
	c0.217,0.3,0.372,0.651,0.469,1.053c0.096,0.402,0.144,0.837,0.144,1.305v5.526h-0.685l-0.071-1.116h-0.054
	c-0.444,0.349-0.922,0.657-1.432,0.927S612.364,81.658,611.788,81.658z M611.932,80.974c0.504,0,0.983-0.12,1.439-0.36
	c0.456-0.24,0.954-0.588,1.494-1.044v-2.934c-0.889,0.108-1.639,0.24-2.25,0.396c-0.611,0.156-1.104,0.342-1.477,0.558
	c-0.371,0.216-0.639,0.462-0.801,0.738c-0.162,0.276-0.242,0.582-0.242,0.918c0,0.312,0.047,0.576,0.144,0.792
	c0.096,0.216,0.228,0.393,0.396,0.531c0.168,0.138,0.363,0.24,0.586,0.306C611.442,80.941,611.68,80.974,611.932,80.974z"/>
<path fill="#FFFFFF" d="M620.896,81.658c-0.421,0-0.769-0.063-1.044-0.189c-0.276-0.126-0.498-0.303-0.666-0.531
	s-0.285-0.504-0.352-0.828c-0.066-0.324-0.099-0.678-0.099-1.062v-5.562h-1.351v-0.612l1.369-0.072l0.107-2.502h0.684v2.502h2.502
	v0.684h-2.502v5.634c0,0.276,0.021,0.525,0.063,0.747c0.042,0.222,0.117,0.414,0.226,0.576c0.107,0.162,0.254,0.288,0.44,0.378
	c0.187,0.09,0.429,0.135,0.729,0.135c0.168,0,0.351-0.027,0.549-0.081c0.197-0.054,0.375-0.117,0.531-0.189l0.215,0.648
	c-0.252,0.096-0.504,0.174-0.756,0.234S621.076,81.658,620.896,81.658z"/>
<path fill="#FFFFFF" d="M627.106,81.658c-0.516,0-1.008-0.102-1.477-0.306c-0.468-0.204-0.879-0.498-1.232-0.882
	c-0.354-0.384-0.637-0.855-0.846-1.413c-0.211-0.558-0.315-1.197-0.315-1.917c0-0.72,0.104-1.365,0.315-1.935
	c0.209-0.57,0.491-1.047,0.846-1.431c0.354-0.384,0.765-0.678,1.232-0.882c0.469-0.204,0.961-0.306,1.477-0.306
	s1.011,0.102,1.484,0.306c0.475,0.204,0.889,0.498,1.242,0.882c0.354,0.384,0.637,0.861,0.846,1.431
	c0.211,0.57,0.315,1.215,0.315,1.935c0,0.72-0.104,1.359-0.315,1.917c-0.209,0.558-0.492,1.029-0.846,1.413
	c-0.354,0.384-0.768,0.678-1.242,0.882C628.117,81.556,627.622,81.658,627.106,81.658z M627.106,80.956
	c0.432,0,0.837-0.093,1.215-0.279c0.378-0.186,0.702-0.447,0.973-0.783c0.27-0.336,0.482-0.738,0.639-1.206
	c0.155-0.468,0.234-0.984,0.234-1.548c0-0.576-0.079-1.098-0.234-1.566c-0.156-0.468-0.369-0.873-0.639-1.215
	c-0.271-0.342-0.595-0.606-0.973-0.792s-0.783-0.279-1.215-0.279s-0.834,0.093-1.206,0.279s-0.692,0.45-0.963,0.792
	s-0.483,0.747-0.64,1.215c-0.156,0.468-0.233,0.99-0.233,1.566c0,0.564,0.077,1.08,0.233,1.548c0.156,0.468,0.369,0.87,0.64,1.206
	s0.591,0.597,0.963,0.783C626.272,80.863,626.674,80.956,627.106,80.956z"/>
<path fill="#FFFFFF" d="M633.585,72.802h0.685l0.072,1.602h0.053c0.289-0.54,0.64-0.978,1.054-1.314s0.879-0.504,1.396-0.504
	c0.168,0,0.317,0.012,0.449,0.036c0.133,0.024,0.27,0.072,0.414,0.144l-0.18,0.72c-0.145-0.06-0.27-0.099-0.378-0.117
	c-0.108-0.018-0.246-0.027-0.414-0.027c-0.384,0-0.79,0.165-1.216,0.495s-0.807,0.903-1.143,1.719v5.886h-0.792V72.802z"/>
<line fill="none" stroke="#99C21F" stroke-width="3" stroke-miterlimit="10" x1="605.069" y1="68.233" x2="632.976" y2="21.721"/>
<line fill="none" stroke="#99C21F" stroke-width="3" stroke-miterlimit="10" x1="564.535" y1="21.721" x2="880.233" y2="21.721"/>
</svg>
