<?xml version="1.0" encoding="utf-8"?>
<!-- Generator: Adobe Illustrator 15.0.0, SVG Export Plug-In  -->
<!DOCTYPE svg PUBLIC "-//W3C//DTD SVG 1.1//EN" "http://www.w3.org/Graphics/SVG/1.1/DTD/svg11.dtd" [
	<!ENTITY ns_flows "http://ns.adobe.com/Flows/1.0/">
]>
<svg version="1.1"
	 xmlns="http://www.w3.org/2000/svg" xmlns:xlink="http://www.w3.org/1999/xlink" xmlns:a="http://ns.adobe.com/AdobeSVGViewerExtensions/3.0/"
	 x="0px" y="0px" width="892px" height="93px" viewBox="-0.814 -0.605 892 93" enable-background="new -0.814 -0.605 892 93"
	 xml:space="preserve">
<defs>
</defs>
<rect x="30.232" y="60.093" fill="#1D9CCB" width="152.326" height="31.977"/>
<text transform="matrix(1 0 0 1 0 14.7437)"><tspan x="0" y="0" font-family="'Consolas'" font-size="18">https://</tspan><tspan x="79.172" y="0" fill="#1D9CCB" font-family="'Consolas'" font-size="18">comsysto</tspan><tspan x="158.344" y="0" font-family="'Consolas'" font-size="18">.github.io/</tspan><tspan x="267.205" y="0" fill="#E77806" font-family="'Consolas'" font-size="18">github-pages-basic-auth-proxy</tspan><tspan x="554.203" y="0" font-family="'Consolas'" font-size="18">/</tspan><tspan x="564.099" y="0" fill="#99C21F" font-family="'Consolas'" font-size="18">086e41eb6ff...0abdc71981e6fe88e3</tspan><tspan x="880.787" y="0" font-family="'Consolas'" font-size="18">/</tspan></text>
<text transform="matrix(1 0 0 1 41.6978 81.4419)" fill="#FFFFFF" font-family="'SourceSansPro-Light'" font-size="18">Repository-Owner</text>
<line fill="none" stroke="#1D9CCB" stroke-width="3" stroke-miterlimit="10" x1="92.465" y1="68.232" x2="120.372" y2="21.721"/>
<line fill="none" stroke="#1D9CCB" stroke-width="3" stroke-miterlimit="10" x1="77.163" y1="21.721" x2="160.302" y2="21.721"/>
<rect x="252.884" y="60.092" fill="#E77806" width="152.326" height="31.977"/>
<text transform="matrix(1 0 0 1 264.3491 81.4419)" fill="#FFFFFF" font-family="'SourceSansPro-Light'" font-size="18">Repository-Name</text>
<line fill="none" stroke="#E77806" stroke-width="3" stroke-miterlimit="10" x1="315.116" y1="68.233" x2="343.023" y2="21.721"/>
<line fill="none" stroke="#E77806" stroke-width="3" stroke-miterlimit="10" x1="264.349" y1="21.721" x2="553.489" y2="21.721"/>
<rect x="542.836" y="60.092" fill="#99C21F" width="108.326" height="31.977"/>
<text transform="matrix(1 0 0 1 557.3022 81.4419)" fill="#FFFFFF" font-family="'SourceSansPro-Light'" font-size="18">Obfuscator</text>
<line fill="none" stroke="#99C21F" stroke-width="3" stroke-miterlimit="10" x1="605.069" y1="68.233" x2="632.976" y2="21.721"/>
<line fill="none" stroke="#99C21F" stroke-width="3" stroke-miterlimit="10" x1="564.535" y1="21.721" x2="880.233" y2="21.721"/>
</svg>
