<?xml version="1.0" encoding="utf-8"?>
<!-- Generator: Adobe Illustrator 15.0.0, SVG Export Plug-In  -->
<!DOCTYPE svg PUBLIC "-//W3C//DTD SVG 1.1 Tiny//EN" "http://www.w3.org/Graphics/SVG/1.1/DTD/svg11-tiny.dtd" [
	<!ENTITY ns_flows "http://ns.adobe.com/Flows/1.0/">
]>
<svg version="1.1" baseProfile="tiny"
	 xmlns="http://www.w3.org/2000/svg" xmlns:xlink="http://www.w3.org/1999/xlink" xmlns:a="http://ns.adobe.com/AdobeSVGViewerExtensions/3.0/"
	 x="0px" y="0px" width="705px" height="88px" viewBox="-9.664 -13.981 705 88" xml:space="preserve">
<defs>
</defs>
<rect fill="#E77806" width="684.521" height="61.602"/>
<text transform="matrix(1 0 0 1 83.1685 25.4922)" fill="#FFFFFF" font-family="'SourceSansPro-Regular'" font-size="18">B</text>
<text transform="matrix(1 0 0 1 93.7524 25.4922)" fill="#FFFFFF" font-family="'SourceSansPro-Regular'" font-size="18">e</text>
<text transform="matrix(1 0 0 1 102.5005 25.4922)" fill="#FFFFFF" font-family="'SourceSansPro-Regular'" font-size="18">t</text>
<text transform="matrix(1 0 0 1 108.2065 25.4922)" fill="#FFFFFF" font-family="'SourceSansPro-Regular'" font-size="18">a</text>
<text transform="matrix(1 0 0 1 117.2783 25.4922)" fill="#FFFFFF" font-family="'SourceSansPro-Regular'" font-size="18"> </text>
<text transform="matrix(1 0 0 1 120.8784 25.4922)" fill="#FFFFFF" font-family="'SourceSansPro-Regular'" font-size="18">N</text>
<text transform="matrix(1 0 0 1 132.5239 25.4922)" fill="#FFFFFF" font-family="'SourceSansPro-Regular'" font-size="18">o</text>
<text transform="matrix(1 0 0 1 141.9741 25.4922)" fill="#FFFFFF" font-family="'SourceSansPro-Regular'" font-size="18">t</text>
<text transform="matrix(1 0 0 1 148.0576 25.4922)" fill="#FFFFFF" font-family="'SourceSansPro-Regular'" font-size="18">i</text>
<text transform="matrix(1 0 0 1 152.4858 25.4922)" fill="#FFFFFF" font-family="'SourceSansPro-Regular'" font-size="18">c</text>
<text transform="matrix(1 0 0 1 160.3154 25.4922)" fill="#FFFFFF" font-family="'SourceSansPro-Regular'" font-size="18">e</text>
<text transform="matrix(1 0 0 1 169.2432 25.4922)" fill="#FFFFFF" font-family="'SourceSansPro-Regular'" font-size="18"> </text>
<text transform="matrix(1 0 0 1 83.1685 47.0923)" fill="#FFFFFF" font-family="'SourceSansPro-Light'" font-size="18">T</text>
<text transform="matrix(1 0 0 1 92.6001 47.0923)" fill="#FFFFFF" font-family="'SourceSansPro-Light'" font-size="18">h</text>
<text transform="matrix(1 0 0 1 102.104 47.0923)" fill="#FFFFFF" font-family="'SourceSansPro-Light'" font-size="18">i</text>
<text transform="matrix(1 0 0 1 106.2261 47.0923)" fill="#FFFFFF" font-family="'SourceSansPro-Light'" font-size="18">s</text>
<text transform="matrix(1 0 0 1 113.5161 47.0923)" fill="#FFFFFF" font-family="'SourceSansPro-Light'" font-size="18"> </text>
<text transform="matrix(1 0 0 1 117.1157 47.0923)" fill="#FFFFFF" font-family="'SourceSansPro-Light'" font-size="18">s</text>
<text transform="matrix(1 0 0 1 124.4058 47.0923)" fill="#FFFFFF" font-family="'SourceSansPro-Light'" font-size="18">o</text>
<text transform="matrix(1 0 0 1 134.0356 47.0923)" fill="#FFFFFF" font-family="'SourceSansPro-Light'" font-size="18">f</text>
<text transform="matrix(1 0 0 1 -7737.7153 -8095.0894)" fill="#FFFFFF" font-family="'SourceSansPro-Light'" font-size="18">t</text>
<text transform="matrix(1 0 0 1 143.7373 47.0923)" fill="#FFFFFF" font-family="'SourceSansPro-Light'" font-size="18">w</text>
<text transform="matrix(1 0 0 1 155.8877 47.0923)" fill="#FFFFFF" font-family="'SourceSansPro-Light'" font-size="18">a</text>
<text transform="matrix(1 0 0 1 164.7256 47.0923)" fill="#FFFFFF" font-family="'SourceSansPro-Light'" font-size="18">r</text>
<text transform="matrix(1 0 0 1 170.2515 47.0923)" fill="#FFFFFF" font-family="'SourceSansPro-Light'" font-size="18">e</text>
<text transform="matrix(1 0 0 1 178.9448 47.0923)" fill="#FFFFFF" font-family="'SourceSansPro-Light'" font-size="18"> </text>
<text transform="matrix(1 0 0 1 182.5449 47.0923)" fill="#FFFFFF" font-family="'SourceSansPro-Light'" font-size="18">i</text>
<text transform="matrix(1 0 0 1 186.667 47.0923)" fill="#FFFFFF" font-family="'SourceSansPro-Light'" font-size="18">s</text>
<text transform="matrix(1 0 0 1 193.9565 47.0923)" fill="#FFFFFF" font-family="'SourceSansPro-Light'" font-size="18"> </text>
<text transform="matrix(1 0 0 1 197.5566 47.0923)" fill="#FFFFFF" font-family="'SourceSansPro-Light'" font-size="18">w</text>
<text transform="matrix(1 0 0 1 209.8867 47.0923)" fill="#FFFFFF" font-family="'SourceSansPro-Light'" font-size="18">o</text>
<text transform="matrix(1 0 0 1 219.5166 47.0923)" fill="#FFFFFF" font-family="'SourceSansPro-Light'" font-size="18">r</text>
<text transform="matrix(1 0 0 1 225.2222 47.0923)" fill="#FFFFFF" font-family="'SourceSansPro-Light'" font-size="18">k</text>
<text transform="matrix(1 0 0 1 233.5742 47.0923)" fill="#FFFFFF" font-family="'SourceSansPro-Light'" font-size="18">i</text>
<text transform="matrix(1 0 0 1 237.6958 47.0923)" fill="#FFFFFF" font-family="'SourceSansPro-Light'" font-size="18">n</text>
<text transform="matrix(1 0 0 1 247.272 47.0923)" fill="#FFFFFF" font-family="'SourceSansPro-Light'" font-size="18">g</text>
<text transform="matrix(1 0 0 1 256.0376 47.0923)" fill="#FFFFFF" font-family="'SourceSansPro-Light'" font-size="18"> </text>
<text transform="matrix(1 0 0 1 259.6377 47.0923)" fill="#FFFFFF" font-family="'SourceSansPro-Light'" font-size="18">b</text>
<text transform="matrix(1 0 0 1 269.3936 47.0923)" fill="#FFFFFF" font-family="'SourceSansPro-Light'" font-size="18">u</text>
<text transform="matrix(1 0 0 1 278.9155 47.0923)" fill="#FFFFFF" font-family="'SourceSansPro-Light'" font-size="18">t</text>
<text transform="matrix(1 0 0 1 284.5313 47.0923)" fill="#FFFFFF" font-family="'SourceSansPro-Light'" font-size="18"> </text>
<text transform="matrix(1 0 0 1 288.1313 47.0923)" fill="#FFFFFF" font-family="'SourceSansPro-Light'" font-size="18">i</text>
<text transform="matrix(1 0 0 1 292.2529 47.0923)" fill="#FFFFFF" font-family="'SourceSansPro-Light'" font-size="18">s</text>
<text transform="matrix(1 0 0 1 299.543 47.0923)" fill="#FFFFFF" font-family="'SourceSansPro-Light'" font-size="18"> </text>
<text transform="matrix(1 0 0 1 303.1431 47.0923)" fill="#FFFFFF" font-family="'SourceSansPro-Light'" font-size="18">n</text>
<text transform="matrix(1 0 0 1 312.7192 47.0923)" fill="#FFFFFF" font-family="'SourceSansPro-Light'" font-size="18">o</text>
<text transform="matrix(1 0 0 1 322.1328 47.0923)" fill="#FFFFFF" font-family="'SourceSansPro-Light'" font-size="18">t</text>
<text transform="matrix(1 0 0 1 327.749 47.0923)" fill="#FFFFFF" font-family="'SourceSansPro-Light'" font-size="18"> </text>
<text transform="matrix(1 0 0 1 331.3486 47.0923)" fill="#FFFFFF" font-family="'SourceSansPro-Light'" font-size="18">r</text>
<text transform="matrix(1 0 0 1 336.8745 47.0923)" fill="#FFFFFF" font-family="'SourceSansPro-Light'" font-size="18">e</text>
<text transform="matrix(1 0 0 1 345.5684 47.0923)" fill="#FFFFFF" font-family="'SourceSansPro-Light'" font-size="18">c</text>
<text transform="matrix(1 0 0 1 353.3442 47.0923)" fill="#FFFFFF" font-family="'SourceSansPro-Light'" font-size="18">o</text>
<text transform="matrix(1 0 0 1 362.9741 47.0923)" fill="#FFFFFF" font-family="'SourceSansPro-Light'" font-size="18">m</text>
<text transform="matrix(1 0 0 1 377.5898 47.0923)" fill="#FFFFFF" font-family="'SourceSansPro-Light'" font-size="18">m</text>
<text transform="matrix(1 0 0 1 392.2061 47.0923)" fill="#FFFFFF" font-family="'SourceSansPro-Light'" font-size="18">e</text>
<text transform="matrix(1 0 0 1 400.8999 47.0923)" fill="#FFFFFF" font-family="'SourceSansPro-Light'" font-size="18">n</text>
<text transform="matrix(1 0 0 1 410.4756 47.0923)" fill="#FFFFFF" font-family="'SourceSansPro-Light'" font-size="18">d</text>
<text transform="matrix(1 0 0 1 420.2676 47.0923)" fill="#FFFFFF" font-family="'SourceSansPro-Light'" font-size="18">e</text>
<text transform="matrix(1 0 0 1 428.9614 47.0923)" fill="#FFFFFF" font-family="'SourceSansPro-Light'" font-size="18">d</text>
<text transform="matrix(1 0 0 1 438.7529 47.0923)" fill="#FFFFFF" font-family="'SourceSansPro-Light'" font-size="18"> </text>
<text transform="matrix(1 0 0 1 442.353 47.0923)" fill="#FFFFFF" font-family="'SourceSansPro-Light'" font-size="18">f</text>
<text transform="matrix(1 0 0 1 446.9072 47.0923)" fill="#FFFFFF" font-family="'SourceSansPro-Light'" font-size="18">o</text>
<text transform="matrix(1 0 0 1 456.5361 47.0923)" fill="#FFFFFF" font-family="'SourceSansPro-Light'" font-size="18">r</text>
<text transform="matrix(1 0 0 1 462.2432 47.0923)" fill="#FFFFFF" font-family="'SourceSansPro-Light'" font-size="18"> </text>
<text transform="matrix(1 0 0 1 465.8428 47.0923)" fill="#FFFFFF" font-family="'SourceSansPro-Light'" font-size="18">p</text>
<text transform="matrix(1 0 0 1 475.6338 47.0923)" fill="#FFFFFF" font-family="'SourceSansPro-Light'" font-size="18">r</text>
<text transform="matrix(1 0 0 1 481.1592 47.0923)" fill="#FFFFFF" font-family="'SourceSansPro-Light'" font-size="18">o</text>
<text transform="matrix(1 0 0 1 490.79 47.0923)" fill="#FFFFFF" font-family="'SourceSansPro-Light'" font-size="18">d</text>
<text transform="matrix(1 0 0 1 500.5811 47.0923)" fill="#FFFFFF" font-family="'SourceSansPro-Light'" font-size="18">u</text>
<text transform="matrix(1 0 0 1 510.1025 47.0923)" fill="#FFFFFF" font-family="'SourceSansPro-Light'" font-size="18">c</text>
<text transform="matrix(1 0 0 1 518.0049 47.0923)" fill="#FFFFFF" font-family="'SourceSansPro-Light'" font-size="18">t</text>
<text transform="matrix(1 0 0 1 523.6221 47.0923)" fill="#FFFFFF" font-family="'SourceSansPro-Light'" font-size="18">i</text>
<text transform="matrix(1 0 0 1 527.7432 47.0923)" fill="#FFFFFF" font-family="'SourceSansPro-Light'" font-size="18">o</text>
<text transform="matrix(1 0 0 1 537.3721 47.0923)" fill="#FFFFFF" font-family="'SourceSansPro-Light'" font-size="18">n</text>
<text transform="matrix(1 0 0 1 546.9482 47.0923)" fill="#FFFFFF" font-family="'SourceSansPro-Light'" font-size="18"> </text>
<text transform="matrix(1 0 0 1 550.5479 47.0923)" fill="#FFFFFF" font-family="'SourceSansPro-Light'" font-size="18">u</text>
<text transform="matrix(1 0 0 1 560.0713 47.0923)" fill="#FFFFFF" font-family="'SourceSansPro-Light'" font-size="18">s</text>
<text transform="matrix(1 0 0 1 567.3604 47.0923)" fill="#FFFFFF" font-family="'SourceSansPro-Light'" font-size="18">e</text>
<text transform="matrix(1 0 0 1 576.0537 47.0923)" fill="#FFFFFF" font-family="'SourceSansPro-Light'" font-size="18">!</text>
<path fill="#FFFFFF" d="M64.077,46.095L64.077,46.095L44.204,11.672c-0.312-0.54-0.887-0.872-1.511-0.872
	c-0.623,0-1.199,0.333-1.51,0.872L21.308,46.095c-0.311,0.54-0.311,1.204,0,1.745c0.312,0.539,0.887,0.871,1.511,0.871h39.749
	c0.623,0,1.199-0.332,1.51-0.871C64.389,47.299,64.389,46.635,64.077,46.095z M27.047,44.526l15.646-27.1l15.646,27.1H27.047z"/>
<path id="path2235_1_" fill="#FFFFFF" d="M41.124,34.602c0.085,0.817,0.228,1.426,0.428,1.826c0.2,0.4,0.556,0.6,1.07,0.6h0.144
	c0.513,0,0.87-0.199,1.069-0.6c0.2-0.4,0.343-1.008,0.428-1.826l0.457-6.313c0.086-1.23,0.129-2.113,0.129-2.649
	c0-0.729-0.207-1.298-0.621-1.706c-0.393-0.389-0.952-0.611-1.534-0.611c-0.582,0-1.141,0.223-1.534,0.611
	c-0.414,0.408-0.62,0.977-0.62,1.706c0,0.537,0.042,1.419,0.128,2.649L41.124,34.602z"/>
<circle id="circle2237_1_" fill="#FFFFFF" cx="42.693" cy="40.821" r="2.187"/>
</svg>
